<?xml version="1.0" standalone="no"?>
<!DOCTYPE svg PUBLIC "-//W3C//DTD SVG 1.1//EN" 
  "http://www.w3.org/Graphics/SVG/1.1/DTD/svg11.dtd">
<svg width="2048" height="2048" viewBox="0 0 2048 2048"
     xmlns="http://www.w3.org/2000/svg" version="1.1">
<desc>c210n.blend, (Blender 2.83.0)</desc>
<polygon stroke="black" stroke-width="1" fill="rgb(204, 204, 204)" fill-opacity="0.25" points="9.751,1815.783 0.624,1802.552 0.000,1802.416 8.452,1818.014 " />
<polygon stroke="black" stroke-width="1" fill="rgb(204, 204, 204)" fill-opacity="0.25" points="1260.009,1635.526 1377.833,1648.989 1378.088,1646.804 1259.140,1633.094 " />
<polygon stroke="black" stroke-width="1" fill="rgb(204, 204, 204)" fill-opacity="0.25" points="2048.000,0.000 2048.000,0.000 2048.000,0.000 2048.000,0.000 " />
<polygon stroke="black" stroke-width="1" fill="rgb(204, 204, 204)" fill-opacity="0.25" points="1247.061,1655.447 1373.160,1679.434 1377.833,1648.989 1260.009,1635.526 " />
<polygon stroke="black" stroke-width="1" fill="rgb(204, 204, 204)" fill-opacity="0.25" points="1302.991,1084.000 1441.843,1084.202 1441.878,1072.990 1303.078,1072.577 " />
<polygon stroke="black" stroke-width="1" fill="rgb(204, 204, 204)" fill-opacity="0.25" points="1303.230,1307.964 1442.028,1307.607 1441.907,1268.860 1303.095,1269.162 " />
<polygon stroke="black" stroke-width="1" fill="rgb(204, 204, 204)" fill-opacity="0.25" points="1211.751,1871.182 1348.823,1881.311 1351.176,1850.275 1213.614,1838.611 " />
<polygon stroke="black" stroke-width="1" fill="rgb(204, 204, 204)" fill-opacity="0.25" points="2048.000,0.000 2048.000,0.000 2048.000,0.000 2048.000,0.000 " />
<polygon stroke="black" stroke-width="1" fill="rgb(204, 204, 204)" fill-opacity="0.25" points="72.106,1934.458 65.939,1914.266 56.676,1917.994 61.882,1937.790 " />
<polygon stroke="black" stroke-width="1" fill="rgb(204, 204, 204)" fill-opacity="0.25" points="87.306,2002.085 84.220,1986.631 73.627,1988.360 77.844,2004.425 " />
<polygon stroke="black" stroke-width="1" fill="rgb(204, 204, 204)" fill-opacity="0.25" points="1206.533,1975.406 1342.683,1983.111 1343.955,1959.351 1207.679,1951.295 " />
<polygon stroke="black" stroke-width="1" fill="rgb(204, 204, 204)" fill-opacity="0.25" points="1302.899,1186.354 1441.756,1186.168 1441.756,1158.651 1302.894,1158.773 " />
<polygon stroke="black" stroke-width="1" fill="rgb(204, 204, 204)" fill-opacity="0.25" points="2048.000,0.000 2048.000,0.000 2048.000,0.000 2048.000,0.000 " />
<polygon stroke="black" stroke-width="1" fill="rgb(204, 204, 204)" fill-opacity="0.25" points="2048.000,0.000 2048.000,0.000 2048.000,0.000 2048.000,0.000 " />
<polygon stroke="black" stroke-width="1" fill="rgb(204, 204, 204)" fill-opacity="0.25" points="1303.618,1409.470 1442.376,1409.017 1442.283,1383.294 1303.516,1383.721 " />
<polygon stroke="black" stroke-width="1" fill="rgb(204, 204, 204)" fill-opacity="0.25" points="1219.425,1751.966 1359.265,1769.252 1362.543,1743.025 1221.731,1722.859 " />
<polygon stroke="black" stroke-width="1" fill="rgb(204, 204, 204)" fill-opacity="0.25" points="44.061,1864.879 34.757,1850.199 29.512,1851.999 37.003,1866.097 " />
<polygon stroke="black" stroke-width="1" fill="rgb(204, 204, 204)" fill-opacity="0.25" points="1303.874,1479.649 1442.632,1479.104 1442.518,1448.059 1303.760,1448.548 " />
<polygon stroke="black" stroke-width="1" fill="rgb(204, 204, 204)" fill-opacity="0.25" points="2048.000,0.000 2048.000,0.000 2048.000,0.000 2048.000,0.000 " />
<polygon stroke="black" stroke-width="1" fill="rgb(204, 204, 204)" fill-opacity="0.25" points="1224.573,1692.020 1366.530,1715.852 1373.160,1679.434 1247.061,1655.447 " />
<polygon stroke="black" stroke-width="1" fill="rgb(204, 204, 204)" fill-opacity="0.25" points="24.601,1835.342 9.751,1815.783 8.452,1818.014 21.320,1838.292 " />
<polygon stroke="black" stroke-width="1" fill="rgb(204, 204, 204)" fill-opacity="0.25" points="57.689,1892.238 49.908,1876.033 42.690,1877.804 49.439,1894.567 " />
<polygon stroke="black" stroke-width="1" fill="rgb(204, 204, 204)" fill-opacity="0.25" points="1215.946,1801.354 1354.345,1815.440 1357.072,1788.452 1217.953,1772.303 " />
<polygon stroke="black" stroke-width="1" fill="rgb(204, 204, 204)" fill-opacity="0.25" points="2048.000,0.000 2048.000,0.000 2048.000,0.000 2048.000,0.000 " />
<polygon stroke="black" stroke-width="1" fill="rgb(204, 204, 204)" fill-opacity="0.25" points="1303.416,1357.969 1442.191,1357.572 1442.121,1336.594 1303.336,1336.977 " />
<polygon stroke="black" stroke-width="1" fill="rgb(204, 204, 204)" fill-opacity="0.25" points="2048.000,0.000 2048.000,0.000 2048.000,0.000 2048.000,0.000 " />
<polygon stroke="black" stroke-width="1" fill="rgb(204, 204, 204)" fill-opacity="0.25" points="1303.008,1237.376 1441.835,1237.112 1441.787,1212.224 1302.947,1212.456 " />
<polygon stroke="black" stroke-width="1" fill="rgb(204, 204, 204)" fill-opacity="0.25" points="79.928,1966.468 76.013,1949.802 65.488,1953.695 69.183,1970.617 " />
<polygon stroke="black" stroke-width="1" fill="rgb(204, 204, 204)" fill-opacity="0.25" points="1209.189,1920.587 1345.686,1929.329 1347.254,1904.438 1210.486,1895.034 " />
<polygon stroke="black" stroke-width="1" fill="rgb(204, 204, 204)" fill-opacity="0.25" points="1204.545,2018.457 1340.515,2024.849 1341.411,2007.527 1205.401,2000.068 " />
<polygon stroke="black" stroke-width="1" fill="rgb(204, 204, 204)" fill-opacity="0.25" points="1302.881,1134.214 1441.759,1134.153 1441.798,1104.342 1302.923,1104.277 " />
<polygon stroke="black" stroke-width="1" fill="rgb(204, 204, 204)" fill-opacity="0.25" points="2048.000,0.000 2048.000,0.000 2048.000,0.000 2048.000,0.000 " />
<polygon stroke="black" stroke-width="1" fill="rgb(204, 204, 204)" fill-opacity="0.25" points="1204.119,2028.476 1339.926,2035.825 1340.515,2024.849 1204.545,2018.457 " />
<polygon stroke="black" stroke-width="1" fill="rgb(204, 204, 204)" fill-opacity="0.25" points="1302.923,1104.277 1441.798,1104.342 1441.843,1084.202 1302.991,1084.000 " />
<polygon stroke="black" stroke-width="1" fill="rgb(204, 204, 204)" fill-opacity="0.25" points="2048.000,0.000 2048.000,0.000 2048.000,0.000 2048.000,0.000 " />
<polygon stroke="black" stroke-width="1" fill="rgb(204, 204, 204)" fill-opacity="0.25" points="2048.000,0.000 2048.000,0.000 2048.000,0.000 2048.000,0.000 " />
<polygon stroke="black" stroke-width="1" fill="rgb(204, 204, 204)" fill-opacity="0.25" points="1302.894,1158.773 1441.756,1158.651 1441.759,1134.153 1302.881,1134.214 " />
<polygon stroke="black" stroke-width="1" fill="rgb(204, 204, 204)" fill-opacity="0.25" points="1205.401,2000.068 1341.411,2007.527 1342.683,1983.111 1206.533,1975.406 " />
<polygon stroke="black" stroke-width="1" fill="rgb(204, 204, 204)" fill-opacity="0.25" points="99.644,2028.072 87.306,2002.085 77.844,2004.425 " />
<polygon stroke="black" stroke-width="1" fill="rgb(204, 204, 204)" fill-opacity="0.25" points="1207.679,1951.295 1343.955,1959.351 1345.686,1929.329 1209.189,1920.587 " />
<polygon stroke="black" stroke-width="1" fill="rgb(204, 204, 204)" fill-opacity="0.25" points="84.220,1986.631 79.928,1966.468 69.183,1970.617 73.627,1988.360 " />
<polygon stroke="black" stroke-width="1" fill="rgb(204, 204, 204)" fill-opacity="0.25" points="2048.000,0.000 2048.000,0.000 2048.000,0.000 2048.000,0.000 " />
<polygon stroke="black" stroke-width="1" fill="rgb(204, 204, 204)" fill-opacity="0.25" points="1302.947,1212.456 1441.787,1212.224 1441.756,1186.168 1302.899,1186.354 " />
<polygon stroke="black" stroke-width="1" fill="rgb(204, 204, 204)" fill-opacity="0.25" points="1303.095,1269.162 1441.907,1268.860 1441.835,1237.112 1303.008,1237.376 " />
<polygon stroke="black" stroke-width="1" fill="rgb(204, 204, 204)" fill-opacity="0.25" points="2048.000,0.000 2048.000,0.000 2048.000,0.000 2048.000,0.000 " />
<polygon stroke="black" stroke-width="1" fill="rgb(204, 204, 204)" fill-opacity="0.25" points="76.013,1949.802 72.106,1934.458 61.882,1937.790 65.488,1953.695 " />
<polygon stroke="black" stroke-width="1" fill="rgb(204, 204, 204)" fill-opacity="0.25" points="1210.486,1895.034 1347.254,1904.438 1348.823,1881.311 1211.751,1871.182 " />
<polygon stroke="black" stroke-width="1" fill="rgb(204, 204, 204)" fill-opacity="0.25" points="1213.614,1838.611 1351.176,1850.275 1354.345,1815.440 1215.946,1801.354 " />
<polygon stroke="black" stroke-width="1" fill="rgb(204, 204, 204)" fill-opacity="0.25" points="65.939,1914.266 57.689,1892.238 49.439,1894.567 56.676,1917.994 " />
<polygon stroke="black" stroke-width="1" fill="rgb(204, 204, 204)" fill-opacity="0.25" points="2048.000,0.000 2048.000,0.000 2048.000,0.000 2048.000,0.000 " />
<polygon stroke="black" stroke-width="1" fill="rgb(204, 204, 204)" fill-opacity="0.25" points="1303.336,1336.977 1442.121,1336.594 1442.028,1307.607 1303.230,1307.964 " />
<polygon stroke="black" stroke-width="1" fill="rgb(204, 204, 204)" fill-opacity="0.25" points="1303.516,1383.721 1442.283,1383.294 1442.191,1357.572 1303.416,1357.969 " />
<polygon stroke="black" stroke-width="1" fill="rgb(204, 204, 204)" fill-opacity="0.25" points="2048.000,0.000 2048.000,0.000 2048.000,0.000 2048.000,0.000 " />
<polygon stroke="black" stroke-width="1" fill="rgb(204, 204, 204)" fill-opacity="0.25" points="49.908,1876.033 44.061,1864.879 37.003,1866.097 42.690,1877.804 " />
<polygon stroke="black" stroke-width="1" fill="rgb(204, 204, 204)" fill-opacity="0.25" points="1217.953,1772.303 1357.072,1788.452 1359.265,1769.252 1219.425,1751.966 " />
<polygon stroke="black" stroke-width="1" fill="rgb(204, 204, 204)" fill-opacity="0.25" points="34.757,1850.199 24.601,1835.342 21.320,1838.292 29.512,1851.999 " />
<polygon stroke="black" stroke-width="1" fill="rgb(204, 204, 204)" fill-opacity="0.25" points="1221.731,1722.859 1362.543,1743.025 1366.530,1715.852 1224.573,1692.020 " />
<polygon stroke="black" stroke-width="1" fill="rgb(204, 204, 204)" fill-opacity="0.25" points="1303.760,1448.548 1442.518,1448.059 1442.376,1409.017 1303.618,1409.470 " />
<polygon stroke="black" stroke-width="1" fill="rgb(204, 204, 204)" fill-opacity="0.25" points="2048.000,0.000 2048.000,0.000 2048.000,0.000 2048.000,0.000 " />
<polygon stroke="black" stroke-width="1" fill="rgb(204, 204, 204)" fill-opacity="0.25" points="945.317,1744.659 1221.731,1722.859 1224.573,1692.020 945.705,1718.487 " />
<polygon stroke="black" stroke-width="1" fill="rgb(204, 204, 204)" fill-opacity="0.25" points="944.642,1787.957 1217.953,1772.303 1219.425,1751.966 944.988,1769.895 " />
<polygon stroke="black" stroke-width="1" fill="rgb(204, 204, 204)" fill-opacity="0.25" points="1034.505,1360.358 1303.516,1383.721 1303.416,1357.969 1034.253,1336.527 " />
<polygon stroke="black" stroke-width="1" fill="rgb(204, 204, 204)" fill-opacity="0.25" points="1034.084,1317.146 1303.336,1336.977 1303.230,1307.964 1033.861,1290.376 " />
<polygon stroke="black" stroke-width="1" fill="rgb(204, 204, 204)" fill-opacity="0.25" points="943.648,1846.812 1213.614,1838.611 1215.946,1801.354 944.293,1813.735 " />
<polygon stroke="black" stroke-width="1" fill="rgb(204, 204, 204)" fill-opacity="0.25" points="942.607,1897.808 1210.486,1895.034 1211.751,1871.182 943.078,1876.110 " />
<polygon stroke="black" stroke-width="1" fill="rgb(204, 204, 204)" fill-opacity="0.25" points="1033.553,1254.567 1303.095,1269.162 1303.008,1237.376 1033.395,1225.313 " />
<polygon stroke="black" stroke-width="1" fill="rgb(204, 204, 204)" fill-opacity="0.25" points="1033.285,1202.395 1302.947,1212.456 1302.899,1186.354 1033.228,1178.424 " />
<polygon stroke="black" stroke-width="1" fill="rgb(204, 204, 204)" fill-opacity="0.25" points="941.505,1949.201 1207.679,1951.295 1209.189,1920.587 942.133,1921.122 " />
<polygon stroke="black" stroke-width="1" fill="rgb(204, 204, 204)" fill-opacity="0.25" points="940.178,1994.232 1205.401,2000.068 1206.533,1975.406 940.866,1971.423 " />
<polygon stroke="black" stroke-width="1" fill="rgb(204, 204, 204)" fill-opacity="0.25" points="1033.319,1153.121 1302.894,1158.773 1302.881,1134.214 1033.356,1130.598 " />
<polygon stroke="black" stroke-width="1" fill="rgb(204, 204, 204)" fill-opacity="0.25" points="1033.602,1103.121 1302.923,1104.277 1302.991,1084.000 1033.926,1084.415 " />
<polygon stroke="black" stroke-width="1" fill="rgb(204, 204, 204)" fill-opacity="0.25" points="939.027,2020.758 1204.119,2028.476 1204.545,2018.457 939.452,2011.316 " />
<polygon stroke="black" stroke-width="1" fill="rgb(204, 204, 204)" fill-opacity="0.25" points="1033.356,1130.598 1302.881,1134.214 1302.923,1104.277 1033.602,1103.121 " />
<polygon stroke="black" stroke-width="1" fill="rgb(204, 204, 204)" fill-opacity="0.25" points="939.452,2011.316 1204.545,2018.457 1205.401,2000.068 940.178,1994.232 " />
<polygon stroke="black" stroke-width="1" fill="rgb(204, 204, 204)" fill-opacity="0.25" points="942.133,1921.122 1209.189,1920.587 1210.486,1895.034 942.607,1897.808 " />
<polygon stroke="black" stroke-width="1" fill="rgb(204, 204, 204)" fill-opacity="0.25" points="1033.395,1225.313 1303.008,1237.376 1302.947,1212.456 1033.285,1202.395 " />
<polygon stroke="black" stroke-width="1" fill="rgb(204, 204, 204)" fill-opacity="0.25" points="1034.253,1336.527 1303.416,1357.969 1303.336,1336.977 1034.084,1317.146 " />
<polygon stroke="black" stroke-width="1" fill="rgb(204, 204, 204)" fill-opacity="0.25" points="944.293,1813.735 1215.946,1801.354 1217.953,1772.303 944.642,1787.957 " />
<polygon stroke="black" stroke-width="1" fill="rgb(204, 204, 204)" fill-opacity="0.25" points="944.988,1769.895 1219.425,1751.966 1221.731,1722.859 945.317,1744.659 " />
<polygon stroke="black" stroke-width="1" fill="rgb(204, 204, 204)" fill-opacity="0.25" points="1034.755,1384.184 1303.618,1409.470 1303.516,1383.721 1034.505,1360.358 " />
<polygon stroke="black" stroke-width="1" fill="rgb(204, 204, 204)" fill-opacity="0.25" points="1033.228,1178.424 1302.899,1186.354 1302.894,1158.773 1033.319,1153.121 " />
<polygon stroke="black" stroke-width="1" fill="rgb(204, 204, 204)" fill-opacity="0.25" points="940.866,1971.423 1206.533,1975.406 1207.679,1951.295 941.505,1949.201 " />
<polygon stroke="black" stroke-width="1" fill="rgb(204, 204, 204)" fill-opacity="0.25" points="943.078,1876.110 1211.751,1871.182 1213.614,1838.611 943.648,1846.812 " />
<polygon stroke="black" stroke-width="1" fill="rgb(204, 204, 204)" fill-opacity="0.25" points="1033.861,1290.376 1303.230,1307.964 1303.095,1269.162 1033.553,1254.567 " />
<polygon stroke="black" stroke-width="1" fill="rgb(204, 204, 204)" fill-opacity="0.25" points="1033.926,1084.415 1302.991,1084.000 1303.078,1072.577 1034.340,1073.595 " />
<polygon stroke="black" stroke-width="1" fill="rgb(204, 204, 204)" fill-opacity="0.25" points="1224.573,1692.020 1211.342,1669.647 942.691,1695.875 672.608,1715.231 541.041,1731.822 552.788,1745.598 676.604,1736.610 945.705,1718.487 " />
<polygon stroke="black" stroke-width="1" fill="rgb(204, 204, 204)" fill-opacity="0.25" points="1339.926,2035.825 1204.119,2028.476 1203.469,2042.253 1339.409,2048.000 " />
<polygon stroke="black" stroke-width="1" fill="rgb(204, 204, 204)" fill-opacity="0.25" points="30.115,1777.320 47.772,1767.224 46.846,1765.740 29.189,1775.910 " />
<polygon stroke="black" stroke-width="1" fill="rgb(204, 204, 204)" fill-opacity="0.25" points="41.012,1791.797 58.432,1781.520 47.772,1767.224 30.115,1777.320 " />
<polygon stroke="black" stroke-width="1" fill="rgb(204, 204, 204)" fill-opacity="0.25" points="220.275,1084.386 242.394,1082.227 243.298,1073.892 220.214,1076.084 " />
<polygon stroke="black" stroke-width="1" fill="rgb(204, 204, 204)" fill-opacity="0.25" points="200.231,1241.661 224.051,1241.009 227.295,1212.770 203.800,1213.555 " />
<polygon stroke="black" stroke-width="1" fill="rgb(204, 204, 204)" fill-opacity="0.25" points="110.866,1924.281 132.807,1922.850 126.980,1899.370 104.557,1901.987 " />
<polygon stroke="black" stroke-width="1" fill="rgb(204, 204, 204)" fill-opacity="0.25" points="125.490,1996.844 146.651,1998.108 144.054,1980.469 122.823,1979.838 " />
<polygon stroke="black" stroke-width="1" fill="rgb(204, 204, 204)" fill-opacity="0.25" points="211.580,1154.960 234.270,1153.851 236.595,1134.607 213.998,1135.786 " />
<polygon stroke="black" stroke-width="1" fill="rgb(204, 204, 204)" fill-opacity="0.25" points="191.007,1316.852 215.320,1317.120 217.822,1297.549 193.474,1297.583 " />
<polygon stroke="black" stroke-width="1" fill="rgb(204, 204, 204)" fill-opacity="0.25" points="80.558,1844.665 106.191,1833.465 88.680,1816.033 68.912,1827.940 " />
<polygon stroke="black" stroke-width="1" fill="rgb(204, 204, 204)" fill-opacity="0.25" points="183.956,1369.544 208.081,1370.582 211.362,1346.809 187.164,1346.113 " />
<polygon stroke="black" stroke-width="1" fill="rgb(204, 204, 204)" fill-opacity="0.25" points="56.880,1812.339 74.492,1801.390 58.432,1781.520 41.012,1791.797 " />
<polygon stroke="black" stroke-width="1" fill="rgb(204, 204, 204)" fill-opacity="0.25" points="95.890,1876.724 119.096,1872.197 111.757,1850.209 87.411,1857.347 " />
<polygon stroke="black" stroke-width="1" fill="rgb(204, 204, 204)" fill-opacity="0.25" points="195.889,1278.403 220.157,1277.953 221.737,1262.348 197.716,1262.922 " />
<polygon stroke="black" stroke-width="1" fill="rgb(204, 204, 204)" fill-opacity="0.25" points="206.688,1190.869 229.991,1189.990 232.085,1172.251 209.066,1173.222 " />
<polygon stroke="black" stroke-width="1" fill="rgb(204, 204, 204)" fill-opacity="0.25" points="118.760,1958.448 140.102,1958.391 136.468,1940.062 114.883,1940.765 " />
<polygon stroke="black" stroke-width="1" fill="rgb(204, 204, 204)" fill-opacity="0.25" points="128.900,2027.349 150.312,2029.449 149.025,2016.307 127.711,2014.545 " />
<polygon stroke="black" stroke-width="1" fill="rgb(204, 204, 204)" fill-opacity="0.25" points="216.414,1118.872 238.591,1117.425 240.884,1096.578 219.097,1098.633 " />
<polygon stroke="black" stroke-width="1" fill="rgb(204, 204, 204)" fill-opacity="0.25" points="129.378,2035.590 150.802,2038.012 150.312,2029.449 128.900,2027.349 " />
<polygon stroke="black" stroke-width="1" fill="rgb(204, 204, 204)" fill-opacity="0.25" points="219.097,1098.633 240.884,1096.578 242.394,1082.227 220.275,1084.386 " />
<polygon stroke="black" stroke-width="1" fill="rgb(204, 204, 204)" fill-opacity="0.25" points="213.998,1135.786 236.595,1134.607 238.591,1117.425 216.414,1118.872 " />
<polygon stroke="black" stroke-width="1" fill="rgb(204, 204, 204)" fill-opacity="0.25" points="127.711,2014.545 149.025,2016.307 146.651,1998.108 125.490,1996.844 " />
<polygon stroke="black" stroke-width="1" fill="rgb(204, 204, 204)" fill-opacity="0.25" points="122.823,1979.838 144.054,1980.469 140.102,1958.391 118.760,1958.448 " />
<polygon stroke="black" stroke-width="1" fill="rgb(204, 204, 204)" fill-opacity="0.25" points="209.066,1173.222 232.085,1172.251 234.270,1153.851 211.580,1154.960 " />
<polygon stroke="black" stroke-width="1" fill="rgb(204, 204, 204)" fill-opacity="0.25" points="203.800,1213.555 227.295,1212.770 229.991,1189.990 206.688,1190.869 " />
<polygon stroke="black" stroke-width="1" fill="rgb(204, 204, 204)" fill-opacity="0.25" points="114.883,1940.765 136.468,1940.062 132.807,1922.850 110.866,1924.281 " />
<polygon stroke="black" stroke-width="1" fill="rgb(204, 204, 204)" fill-opacity="0.25" points="104.557,1901.987 126.980,1899.370 119.096,1872.197 95.890,1876.724 " />
<polygon stroke="black" stroke-width="1" fill="rgb(204, 204, 204)" fill-opacity="0.25" points="197.716,1262.922 221.737,1262.348 224.051,1241.009 200.231,1241.661 " />
<polygon stroke="black" stroke-width="1" fill="rgb(204, 204, 204)" fill-opacity="0.25" points="193.474,1297.583 217.822,1297.549 220.157,1277.953 195.889,1278.403 " />
<polygon stroke="black" stroke-width="1" fill="rgb(204, 204, 204)" fill-opacity="0.25" points="87.411,1857.347 111.757,1850.209 106.191,1833.465 80.558,1844.665 " />
<polygon stroke="black" stroke-width="1" fill="rgb(204, 204, 204)" fill-opacity="0.25" points="68.912,1827.940 88.680,1816.033 74.492,1801.390 56.880,1812.339 " />
<polygon stroke="black" stroke-width="1" fill="rgb(204, 204, 204)" fill-opacity="0.25" points="187.164,1346.113 211.362,1346.809 215.320,1317.120 191.007,1316.852 " />
<polygon stroke="black" stroke-width="1" fill="rgb(204, 204, 204)" fill-opacity="0.25" points="407.252,2023.574 150.802,2038.012 149.688,2048.000 406.359,2034.566 " />
<polygon stroke="black" stroke-width="1" fill="rgb(204, 204, 204)" fill-opacity="0.25" points="137.099,1343.052 161.479,1343.754 164.223,1314.573 138.269,1313.975 " />
<polygon stroke="black" stroke-width="1" fill="rgb(204, 204, 204)" fill-opacity="0.25" points="34.757,1850.199 50.864,1840.021 40.008,1824.629 24.601,1835.342 " />
<polygon stroke="black" stroke-width="1" fill="rgb(204, 204, 204)" fill-opacity="0.25" points="49.908,1876.033 67.246,1867.513 60.879,1855.674 44.061,1864.879 " />
<polygon stroke="black" stroke-width="1" fill="rgb(204, 204, 204)" fill-opacity="0.25" points="139.049,1294.807 166.059,1295.357 167.962,1276.241 139.863,1275.638 " />
<polygon stroke="black" stroke-width="1" fill="rgb(204, 204, 204)" fill-opacity="0.25" points="140.618,1259.891 169.437,1260.676 171.571,1239.205 141.848,1238.071 " />
<polygon stroke="black" stroke-width="1" fill="rgb(204, 204, 204)" fill-opacity="0.25" points="65.939,1914.266 84.174,1908.420 75.493,1884.978 57.689,1892.238 " />
<polygon stroke="black" stroke-width="1" fill="rgb(204, 204, 204)" fill-opacity="0.25" points="76.013,1949.802 94.674,1945.434 90.603,1929.576 72.106,1934.458 " />
<polygon stroke="black" stroke-width="1" fill="rgb(204, 204, 204)" fill-opacity="0.25" points="143.975,1208.790 174.873,1210.745 177.709,1187.585 146.440,1184.583 " />
<polygon stroke="black" stroke-width="1" fill="rgb(204, 204, 204)" fill-opacity="0.25" points="148.961,1165.646 180.268,1169.561 183.176,1150.898 152.231,1145.808 " />
<polygon stroke="black" stroke-width="1" fill="rgb(204, 204, 204)" fill-opacity="0.25" points="84.220,1986.631 102.825,1983.238 98.670,1962.537 79.928,1966.468 " />
<polygon stroke="black" stroke-width="1" fill="rgb(204, 204, 204)" fill-opacity="0.25" points="99.644,2028.072 106.777,2016.548 105.249,1999.538 87.306,2002.085 " />
<polygon stroke="black" stroke-width="1" fill="rgb(204, 204, 204)" fill-opacity="0.25" points="156.666,1125.338 186.074,1131.389 189.356,1114.122 161.122,1107.275 " />
<polygon stroke="black" stroke-width="1" fill="rgb(204, 204, 204)" fill-opacity="0.25" points="161.122,1107.275 189.356,1114.122 195.219,1094.805 185.292,1079.867 " />
<polygon stroke="black" stroke-width="1" fill="rgb(204, 204, 204)" fill-opacity="0.25" points="79.928,1966.468 98.670,1962.537 94.674,1945.434 76.013,1949.802 " />
<polygon stroke="black" stroke-width="1" fill="rgb(204, 204, 204)" fill-opacity="0.25" points="146.440,1184.583 177.709,1187.585 180.268,1169.561 148.961,1165.646 " />
<polygon stroke="black" stroke-width="1" fill="rgb(204, 204, 204)" fill-opacity="0.25" points="139.863,1275.638 167.962,1276.241 169.437,1260.676 140.618,1259.891 " />
<polygon stroke="black" stroke-width="1" fill="rgb(204, 204, 204)" fill-opacity="0.25" points="57.689,1892.238 75.493,1884.978 67.246,1867.513 49.908,1876.033 " />
<polygon stroke="black" stroke-width="1" fill="rgb(204, 204, 204)" fill-opacity="0.25" points="24.601,1835.342 40.008,1824.629 24.480,1804.269 9.751,1815.783 " />
<polygon stroke="black" stroke-width="1" fill="rgb(204, 204, 204)" fill-opacity="0.25" points="136.229,1365.911 159.256,1366.952 161.479,1343.754 137.099,1343.052 " />
<polygon stroke="black" stroke-width="1" fill="rgb(204, 204, 204)" fill-opacity="0.25" points="44.061,1864.879 60.879,1855.674 50.864,1840.021 34.757,1850.199 " />
<polygon stroke="black" stroke-width="1" fill="rgb(204, 204, 204)" fill-opacity="0.25" points="138.269,1313.975 164.223,1314.573 166.059,1295.357 139.049,1294.807 " />
<polygon stroke="black" stroke-width="1" fill="rgb(204, 204, 204)" fill-opacity="0.25" points="152.231,1145.808 183.176,1150.898 186.074,1131.389 156.666,1125.338 " />
<polygon stroke="black" stroke-width="1" fill="rgb(204, 204, 204)" fill-opacity="0.25" points="87.306,2002.085 105.249,1999.538 102.825,1983.238 84.220,1986.631 " />
<polygon stroke="black" stroke-width="1" fill="rgb(204, 204, 204)" fill-opacity="0.25" points="72.106,1934.458 90.603,1929.576 84.174,1908.420 65.939,1914.266 " />
<polygon stroke="black" stroke-width="1" fill="rgb(204, 204, 204)" fill-opacity="0.25" points="141.848,1238.071 171.571,1239.205 174.873,1210.745 143.975,1208.790 " />
<polygon stroke="black" stroke-width="1" fill="rgb(204, 204, 204)" fill-opacity="0.25" points="9.751,1815.783 24.480,1804.269 13.142,1789.982 0.624,1802.552 " />
<polygon stroke="black" stroke-width="1" fill="rgb(204, 204, 204)" fill-opacity="0.25" points="0.624,1802.552 13.142,1789.982 12.232,1788.960 0.000,1802.416 " />
<polygon stroke="black" stroke-width="1" fill="rgb(204, 204, 204)" fill-opacity="0.25" points="129.378,2035.590 99.644,2028.072 127.878,2044.830 " />
<polygon stroke="black" stroke-width="1" fill="rgb(204, 204, 204)" fill-opacity="0.25" points="150.802,2038.012 129.378,2035.590 127.878,2044.830 149.688,2048.000 " />
<polygon stroke="black" stroke-width="1" fill="rgb(204, 204, 204)" fill-opacity="0.25" points="161.479,1343.754 187.164,1346.113 191.007,1316.852 164.223,1314.573 " />
<polygon stroke="black" stroke-width="1" fill="rgb(204, 204, 204)" fill-opacity="0.25" points="50.864,1840.021 68.912,1827.940 56.880,1812.339 40.008,1824.629 " />
<polygon stroke="black" stroke-width="1" fill="rgb(204, 204, 204)" fill-opacity="0.25" points="67.246,1867.513 87.411,1857.347 80.558,1844.665 60.879,1855.674 " />
<polygon stroke="black" stroke-width="1" fill="rgb(204, 204, 204)" fill-opacity="0.25" points="166.059,1295.357 193.474,1297.583 195.889,1278.403 167.962,1276.241 " />
<polygon stroke="black" stroke-width="1" fill="rgb(204, 204, 204)" fill-opacity="0.25" points="169.437,1260.676 197.716,1262.922 200.231,1241.661 171.571,1239.205 " />
<polygon stroke="black" stroke-width="1" fill="rgb(204, 204, 204)" fill-opacity="0.25" points="84.174,1908.420 104.557,1901.987 95.890,1876.724 75.493,1884.978 " />
<polygon stroke="black" stroke-width="1" fill="rgb(204, 204, 204)" fill-opacity="0.25" points="94.674,1945.434 114.883,1940.765 110.866,1924.281 90.603,1929.576 " />
<polygon stroke="black" stroke-width="1" fill="rgb(204, 204, 204)" fill-opacity="0.25" points="174.873,1210.745 203.800,1213.555 206.688,1190.869 177.709,1187.585 " />
<polygon stroke="black" stroke-width="1" fill="rgb(204, 204, 204)" fill-opacity="0.25" points="180.268,1169.561 209.066,1173.222 211.580,1154.960 183.176,1150.898 " />
<polygon stroke="black" stroke-width="1" fill="rgb(204, 204, 204)" fill-opacity="0.25" points="102.825,1983.238 122.823,1979.838 118.760,1958.448 98.670,1962.537 " />
<polygon stroke="black" stroke-width="1" fill="rgb(204, 204, 204)" fill-opacity="0.25" points="106.777,2016.548 127.711,2014.545 125.490,1996.844 105.249,1999.538 " />
<polygon stroke="black" stroke-width="1" fill="rgb(204, 204, 204)" fill-opacity="0.25" points="186.074,1131.389 213.998,1135.786 216.414,1118.872 189.356,1114.122 " />
<polygon stroke="black" stroke-width="1" fill="rgb(204, 204, 204)" fill-opacity="0.25" points="195.219,1094.805 219.097,1098.633 220.275,1084.386 185.292,1079.867 " />
<polygon stroke="black" stroke-width="1" fill="rgb(204, 204, 204)" fill-opacity="0.25" points="99.644,2028.072 129.378,2035.590 128.900,2027.349 " />
<polygon stroke="black" stroke-width="1" fill="rgb(204, 204, 204)" fill-opacity="0.25" points="189.356,1114.122 216.414,1118.872 219.097,1098.633 195.219,1094.805 " />
<polygon stroke="black" stroke-width="1" fill="rgb(204, 204, 204)" fill-opacity="0.25" points="99.644,2028.072 128.900,2027.349 127.711,2014.545 106.777,2016.548 " />
<polygon stroke="black" stroke-width="1" fill="rgb(204, 204, 204)" fill-opacity="0.25" points="98.670,1962.537 118.760,1958.448 114.883,1940.765 94.674,1945.434 " />
<polygon stroke="black" stroke-width="1" fill="rgb(204, 204, 204)" fill-opacity="0.25" points="177.709,1187.585 206.688,1190.869 209.066,1173.222 180.268,1169.561 " />
<polygon stroke="black" stroke-width="1" fill="rgb(204, 204, 204)" fill-opacity="0.25" points="167.962,1276.241 195.889,1278.403 197.716,1262.922 169.437,1260.676 " />
<polygon stroke="black" stroke-width="1" fill="rgb(204, 204, 204)" fill-opacity="0.25" points="75.493,1884.978 95.890,1876.724 87.411,1857.347 67.246,1867.513 " />
<polygon stroke="black" stroke-width="1" fill="rgb(204, 204, 204)" fill-opacity="0.25" points="40.008,1824.629 56.880,1812.339 41.012,1791.797 24.480,1804.269 " />
<polygon stroke="black" stroke-width="1" fill="rgb(204, 204, 204)" fill-opacity="0.25" points="159.256,1366.952 183.956,1369.544 187.164,1346.113 161.479,1343.754 " />
<polygon stroke="black" stroke-width="1" fill="rgb(204, 204, 204)" fill-opacity="0.25" points="60.879,1855.674 80.558,1844.665 68.912,1827.940 50.864,1840.021 " />
<polygon stroke="black" stroke-width="1" fill="rgb(204, 204, 204)" fill-opacity="0.25" points="164.223,1314.573 191.007,1316.852 193.474,1297.583 166.059,1295.357 " />
<polygon stroke="black" stroke-width="1" fill="rgb(204, 204, 204)" fill-opacity="0.25" points="183.176,1150.898 211.580,1154.960 213.998,1135.786 186.074,1131.389 " />
<polygon stroke="black" stroke-width="1" fill="rgb(204, 204, 204)" fill-opacity="0.25" points="105.249,1999.538 125.490,1996.844 122.823,1979.838 102.825,1983.238 " />
<polygon stroke="black" stroke-width="1" fill="rgb(204, 204, 204)" fill-opacity="0.25" points="90.603,1929.576 110.866,1924.281 104.557,1901.987 84.174,1908.420 " />
<polygon stroke="black" stroke-width="1" fill="rgb(204, 204, 204)" fill-opacity="0.25" points="171.571,1239.205 200.231,1241.661 203.800,1213.555 174.873,1210.745 " />
<polygon stroke="black" stroke-width="1" fill="rgb(204, 204, 204)" fill-opacity="0.25" points="185.292,1079.867 220.275,1084.386 220.214,1076.084 " />
<polygon stroke="black" stroke-width="1" fill="rgb(204, 204, 204)" fill-opacity="0.25" points="24.480,1804.269 41.012,1791.797 30.115,1777.320 13.142,1789.982 " />
<polygon stroke="black" stroke-width="1" fill="rgb(204, 204, 204)" fill-opacity="0.25" points="13.142,1789.982 30.115,1777.320 29.189,1775.910 12.232,1788.960 " />
<polygon stroke="black" stroke-width="1" fill="rgb(204, 204, 204)" fill-opacity="0.25" points="939.027,2020.758 673.119,2019.063 671.914,2030.731 937.997,2034.313 " />
<polygon stroke="black" stroke-width="1" fill="rgb(204, 204, 204)" fill-opacity="0.25" points="644.871,1082.824 765.010,1082.363 765.643,1072.577 646.275,1073.499 " />
<polygon stroke="black" stroke-width="1" fill="rgb(204, 204, 204)" fill-opacity="0.25" points="626.034,1265.701 764.535,1274.828 764.109,1241.332 628.705,1233.762 " />
<polygon stroke="black" stroke-width="1" fill="rgb(204, 204, 204)" fill-opacity="0.25" points="542.571,1887.239 675.429,1883.566 675.582,1856.194 539.661,1860.049 " />
<polygon stroke="black" stroke-width="1" fill="rgb(204, 204, 204)" fill-opacity="0.25" points="551.790,1974.043 674.588,1973.018 674.947,1952.151 549.828,1953.918 " />
<polygon stroke="black" stroke-width="1" fill="rgb(204, 204, 204)" fill-opacity="0.25" points="635.118,1165.969 763.755,1170.050 763.947,1146.397 637.610,1143.533 " />
<polygon stroke="black" stroke-width="1" fill="rgb(204, 204, 204)" fill-opacity="0.25" points="619.322,1349.435 765.834,1362.593 765.458,1340.305 620.954,1328.159 " />
<polygon stroke="black" stroke-width="1" fill="rgb(204, 204, 204)" fill-opacity="0.25" points="531.600,1787.423 676.479,1786.202 676.567,1763.413 542.161,1764.066 " />
<polygon stroke="black" stroke-width="1" fill="rgb(204, 204, 204)" fill-opacity="0.25" points="536.256,1828.857 675.885,1825.381 676.116,1801.480 533.436,1804.506 " />
<polygon stroke="black" stroke-width="1" fill="rgb(204, 204, 204)" fill-opacity="0.25" points="622.587,1306.880 765.081,1318.022 764.843,1299.883 624.022,1289.584 " />
<polygon stroke="black" stroke-width="1" fill="rgb(204, 204, 204)" fill-opacity="0.25" points="631.102,1207.702 763.919,1213.947 763.794,1192.491 633.009,1187.293 " />
<polygon stroke="black" stroke-width="1" fill="rgb(204, 204, 204)" fill-opacity="0.25" points="547.057,1928.367 675.122,1925.782 675.240,1903.907 544.696,1907.115 " />
<polygon stroke="black" stroke-width="1" fill="rgb(204, 204, 204)" fill-opacity="0.25" points="554.812,2009.620 673.585,2010.074 674.176,1994.414 553.750,1994.626 " />
<polygon stroke="black" stroke-width="1" fill="rgb(204, 204, 204)" fill-opacity="0.25" points="639.756,1123.536 764.051,1125.326 764.482,1099.703 642.685,1099.248 " />
<polygon stroke="black" stroke-width="1" fill="rgb(204, 204, 204)" fill-opacity="0.25" points="555.273,2018.419 673.119,2019.063 673.585,2010.074 554.812,2009.620 " />
<polygon stroke="black" stroke-width="1" fill="rgb(204, 204, 204)" fill-opacity="0.25" points="642.685,1099.248 764.482,1099.703 765.010,1082.363 644.871,1082.824 " />
<polygon stroke="black" stroke-width="1" fill="rgb(204, 204, 204)" fill-opacity="0.25" points="637.610,1143.533 763.947,1146.397 764.051,1125.326 639.756,1123.536 " />
<polygon stroke="black" stroke-width="1" fill="rgb(204, 204, 204)" fill-opacity="0.25" points="553.750,1994.626 674.176,1994.414 674.588,1973.018 551.790,1974.043 " />
<polygon stroke="black" stroke-width="1" fill="rgb(204, 204, 204)" fill-opacity="0.25" points="549.828,1953.918 674.947,1952.151 675.122,1925.782 547.057,1928.367 " />
<polygon stroke="black" stroke-width="1" fill="rgb(204, 204, 204)" fill-opacity="0.25" points="633.009,1187.293 763.794,1192.491 763.755,1170.050 635.118,1165.969 " />
<polygon stroke="black" stroke-width="1" fill="rgb(204, 204, 204)" fill-opacity="0.25" points="628.705,1233.762 764.109,1241.332 763.919,1213.947 631.102,1207.702 " />
<polygon stroke="black" stroke-width="1" fill="rgb(204, 204, 204)" fill-opacity="0.25" points="544.696,1907.115 675.240,1903.907 675.429,1883.566 542.571,1887.239 " />
<polygon stroke="black" stroke-width="1" fill="rgb(204, 204, 204)" fill-opacity="0.25" points="539.661,1860.049 675.582,1856.194 675.885,1825.381 536.256,1828.857 " />
<polygon stroke="black" stroke-width="1" fill="rgb(204, 204, 204)" fill-opacity="0.25" points="624.022,1289.584 764.843,1299.883 764.535,1274.828 626.034,1265.701 " />
<polygon stroke="black" stroke-width="1" fill="rgb(204, 204, 204)" fill-opacity="0.25" points="620.954,1328.159 765.458,1340.305 765.081,1318.022 622.587,1306.880 " />
<polygon stroke="black" stroke-width="1" fill="rgb(204, 204, 204)" fill-opacity="0.25" points="533.436,1804.506 676.116,1801.480 676.479,1786.202 531.600,1787.423 " />
<polygon stroke="black" stroke-width="1" fill="rgb(204, 204, 204)" fill-opacity="0.25" points="542.161,1764.066 676.567,1763.413 676.604,1736.610 552.788,1745.598 " />
<polygon stroke="black" stroke-width="1" fill="rgb(204, 204, 204)" fill-opacity="0.25" points="1204.119,2028.476 939.027,2020.758 937.997,2034.313 1203.469,2042.253 " />
<polygon stroke="black" stroke-width="1" fill="rgb(204, 204, 204)" fill-opacity="0.25" points="1211.342,1669.647 1224.573,1692.020 1247.061,1655.447 1260.009,1635.526 1259.140,1633.094 1237.930,1649.689 " />
<polygon stroke="black" stroke-width="1" fill="rgb(204, 204, 204)" fill-opacity="0.25" points="765.010,1082.363 1033.926,1084.415 1034.340,1073.595 765.643,1072.577 " />
<polygon stroke="black" stroke-width="1" fill="rgb(204, 204, 204)" fill-opacity="0.25" points="764.535,1274.828 1033.861,1290.376 1033.553,1254.567 764.109,1241.332 " />
<polygon stroke="black" stroke-width="1" fill="rgb(204, 204, 204)" fill-opacity="0.25" points="675.429,1883.566 943.078,1876.110 943.648,1846.812 675.582,1856.194 " />
<polygon stroke="black" stroke-width="1" fill="rgb(204, 204, 204)" fill-opacity="0.25" points="674.588,1973.018 940.866,1971.423 941.505,1949.201 674.947,1952.151 " />
<polygon stroke="black" stroke-width="1" fill="rgb(204, 204, 204)" fill-opacity="0.25" points="763.755,1170.050 1033.228,1178.424 1033.319,1153.121 763.947,1146.397 " />
<polygon stroke="black" stroke-width="1" fill="rgb(204, 204, 204)" fill-opacity="0.25" points="765.834,1362.593 1034.755,1384.184 1034.505,1360.358 765.458,1340.305 " />
<polygon stroke="black" stroke-width="1" fill="rgb(204, 204, 204)" fill-opacity="0.25" points="676.479,1786.202 944.988,1769.895 945.317,1744.659 676.567,1763.413 " />
<polygon stroke="black" stroke-width="1" fill="rgb(204, 204, 204)" fill-opacity="0.25" points="675.885,1825.381 944.293,1813.735 944.642,1787.957 676.116,1801.480 " />
<polygon stroke="black" stroke-width="1" fill="rgb(204, 204, 204)" fill-opacity="0.25" points="765.081,1318.022 1034.253,1336.527 1034.084,1317.146 764.843,1299.883 " />
<polygon stroke="black" stroke-width="1" fill="rgb(204, 204, 204)" fill-opacity="0.25" points="763.919,1213.947 1033.395,1225.313 1033.285,1202.395 763.794,1192.491 " />
<polygon stroke="black" stroke-width="1" fill="rgb(204, 204, 204)" fill-opacity="0.25" points="675.122,1925.782 942.133,1921.122 942.607,1897.808 675.240,1903.907 " />
<polygon stroke="black" stroke-width="1" fill="rgb(204, 204, 204)" fill-opacity="0.25" points="673.585,2010.074 939.452,2011.316 940.178,1994.232 674.176,1994.414 " />
<polygon stroke="black" stroke-width="1" fill="rgb(204, 204, 204)" fill-opacity="0.25" points="764.051,1125.326 1033.356,1130.598 1033.602,1103.121 764.482,1099.703 " />
<polygon stroke="black" stroke-width="1" fill="rgb(204, 204, 204)" fill-opacity="0.25" points="673.119,2019.063 939.027,2020.758 939.452,2011.316 673.585,2010.074 " />
<polygon stroke="black" stroke-width="1" fill="rgb(204, 204, 204)" fill-opacity="0.25" points="764.482,1099.703 1033.602,1103.121 1033.926,1084.415 765.010,1082.363 " />
<polygon stroke="black" stroke-width="1" fill="rgb(204, 204, 204)" fill-opacity="0.25" points="763.947,1146.397 1033.319,1153.121 1033.356,1130.598 764.051,1125.326 " />
<polygon stroke="black" stroke-width="1" fill="rgb(204, 204, 204)" fill-opacity="0.25" points="674.176,1994.414 940.178,1994.232 940.866,1971.423 674.588,1973.018 " />
<polygon stroke="black" stroke-width="1" fill="rgb(204, 204, 204)" fill-opacity="0.25" points="674.947,1952.151 941.505,1949.201 942.133,1921.122 675.122,1925.782 " />
<polygon stroke="black" stroke-width="1" fill="rgb(204, 204, 204)" fill-opacity="0.25" points="763.794,1192.491 1033.285,1202.395 1033.228,1178.424 763.755,1170.050 " />
<polygon stroke="black" stroke-width="1" fill="rgb(204, 204, 204)" fill-opacity="0.25" points="764.109,1241.332 1033.553,1254.567 1033.395,1225.313 763.919,1213.947 " />
<polygon stroke="black" stroke-width="1" fill="rgb(204, 204, 204)" fill-opacity="0.25" points="675.240,1903.907 942.607,1897.808 943.078,1876.110 675.429,1883.566 " />
<polygon stroke="black" stroke-width="1" fill="rgb(204, 204, 204)" fill-opacity="0.25" points="675.582,1856.194 943.648,1846.812 944.293,1813.735 675.885,1825.381 " />
<polygon stroke="black" stroke-width="1" fill="rgb(204, 204, 204)" fill-opacity="0.25" points="764.843,1299.883 1034.084,1317.146 1033.861,1290.376 764.535,1274.828 " />
<polygon stroke="black" stroke-width="1" fill="rgb(204, 204, 204)" fill-opacity="0.25" points="765.458,1340.305 1034.505,1360.358 1034.253,1336.527 765.081,1318.022 " />
<polygon stroke="black" stroke-width="1" fill="rgb(204, 204, 204)" fill-opacity="0.25" points="676.116,1801.480 944.642,1787.957 944.988,1769.895 676.479,1786.202 " />
<polygon stroke="black" stroke-width="1" fill="rgb(204, 204, 204)" fill-opacity="0.25" points="676.567,1763.413 945.317,1744.659 945.705,1718.487 676.604,1736.610 " />
<polygon stroke="black" stroke-width="1" fill="rgb(204, 204, 204)" fill-opacity="0.25" points="111.757,1850.209 401.622,1822.106 401.048,1807.914 106.191,1833.465 " />
<polygon stroke="black" stroke-width="1" fill="rgb(204, 204, 204)" fill-opacity="0.25" points="221.737,1262.348 495.709,1279.999 495.386,1257.138 224.051,1241.009 " />
<polygon stroke="black" stroke-width="1" fill="rgb(204, 204, 204)" fill-opacity="0.25" points="126.980,1899.370 403.598,1872.925 402.640,1844.327 119.096,1872.197 " />
<polygon stroke="black" stroke-width="1" fill="rgb(204, 204, 204)" fill-opacity="0.25" points="136.468,1940.062 405.178,1917.131 404.529,1898.304 132.807,1922.850 " />
<polygon stroke="black" stroke-width="1" fill="rgb(204, 204, 204)" fill-opacity="0.25" points="227.295,1212.770 494.914,1226.579 494.738,1201.644 229.991,1189.990 " />
<polygon stroke="black" stroke-width="1" fill="rgb(204, 204, 204)" fill-opacity="0.25" points="232.085,1172.251 494.623,1182.143 494.611,1161.741 234.270,1153.851 " />
<polygon stroke="black" stroke-width="1" fill="rgb(204, 204, 204)" fill-opacity="0.25" points="144.054,1980.469 406.728,1961.601 405.936,1937.313 140.102,1958.391 " />
<polygon stroke="black" stroke-width="1" fill="rgb(204, 204, 204)" fill-opacity="0.25" points="149.025,2016.307 407.484,2000.582 407.125,1980.860 146.651,1998.108 " />
<polygon stroke="black" stroke-width="1" fill="rgb(204, 204, 204)" fill-opacity="0.25" points="236.595,1134.607 494.889,1140.320 495.033,1121.176 238.591,1117.425 " />
<polygon stroke="black" stroke-width="1" fill="rgb(204, 204, 204)" fill-opacity="0.25" points="240.884,1096.578 495.594,1097.866 496.270,1082.009 242.394,1082.227 " />
<polygon stroke="black" stroke-width="1" fill="rgb(204, 204, 204)" fill-opacity="0.25" points="150.802,2038.012 407.252,2023.574 407.465,2014.917 150.312,2029.449 " />
<polygon stroke="black" stroke-width="1" fill="rgb(204, 204, 204)" fill-opacity="0.25" points="238.591,1117.425 495.033,1121.176 495.594,1097.866 240.884,1096.578 " />
<polygon stroke="black" stroke-width="1" fill="rgb(204, 204, 204)" fill-opacity="0.25" points="150.312,2029.449 407.465,2014.917 407.484,2000.582 149.025,2016.307 " />
<polygon stroke="black" stroke-width="1" fill="rgb(204, 204, 204)" fill-opacity="0.25" points="140.102,1958.391 405.936,1937.313 405.178,1917.131 136.468,1940.062 " />
<polygon stroke="black" stroke-width="1" fill="rgb(204, 204, 204)" fill-opacity="0.25" points="229.991,1189.990 494.738,1201.644 494.623,1182.143 232.085,1172.251 " />
<polygon stroke="black" stroke-width="1" fill="rgb(204, 204, 204)" fill-opacity="0.25" points="220.157,1277.953 495.959,1296.556 495.709,1279.999 221.737,1262.348 " />
<polygon stroke="black" stroke-width="1" fill="rgb(204, 204, 204)" fill-opacity="0.25" points="119.096,1872.197 402.640,1844.327 401.622,1822.106 111.757,1850.209 " />
<polygon stroke="black" stroke-width="1" fill="rgb(204, 204, 204)" fill-opacity="0.25" points="234.270,1153.851 494.611,1161.741 494.889,1140.320 236.595,1134.607 " />
<polygon stroke="black" stroke-width="1" fill="rgb(204, 204, 204)" fill-opacity="0.25" points="146.651,1998.108 407.125,1980.860 406.728,1961.601 144.054,1980.469 " />
<polygon stroke="black" stroke-width="1" fill="rgb(204, 204, 204)" fill-opacity="0.25" points="132.807,1922.850 404.529,1898.304 403.598,1872.925 126.980,1899.370 " />
<polygon stroke="black" stroke-width="1" fill="rgb(204, 204, 204)" fill-opacity="0.25" points="224.051,1241.009 495.386,1257.138 494.914,1226.579 227.295,1212.770 " />
<polygon stroke="black" stroke-width="1" fill="rgb(204, 204, 204)" fill-opacity="0.25" points="242.394,1082.227 496.270,1082.009 497.071,1073.027 243.298,1073.892 " />
<polygon stroke="black" stroke-width="1" fill="rgb(204, 204, 204)" fill-opacity="0.25" points="555.273,2018.419 407.252,2023.574 406.359,2034.566 554.280,2029.724 " />
<polygon stroke="black" stroke-width="1" fill="rgb(204, 204, 204)" fill-opacity="0.25" points="673.119,2019.063 555.273,2018.419 554.280,2029.724 671.914,2030.731 " />
<polygon stroke="black" stroke-width="1" fill="rgb(204, 204, 204)" fill-opacity="0.25" points="401.622,1822.106 533.436,1804.506 531.600,1787.423 401.048,1807.914 " />
<polygon stroke="black" stroke-width="1" fill="rgb(204, 204, 204)" fill-opacity="0.25" points="495.709,1279.999 624.022,1289.584 626.034,1265.701 495.386,1257.138 " />
<polygon stroke="black" stroke-width="1" fill="rgb(204, 204, 204)" fill-opacity="0.25" points="403.598,1872.925 539.661,1860.049 536.256,1828.857 402.640,1844.327 " />
<polygon stroke="black" stroke-width="1" fill="rgb(204, 204, 204)" fill-opacity="0.25" points="405.178,1917.131 544.696,1907.115 542.571,1887.239 404.529,1898.304 " />
<polygon stroke="black" stroke-width="1" fill="rgb(204, 204, 204)" fill-opacity="0.25" points="494.914,1226.579 628.705,1233.762 631.102,1207.702 494.738,1201.644 " />
<polygon stroke="black" stroke-width="1" fill="rgb(204, 204, 204)" fill-opacity="0.25" points="494.623,1182.143 633.009,1187.293 635.118,1165.969 494.611,1161.741 " />
<polygon stroke="black" stroke-width="1" fill="rgb(204, 204, 204)" fill-opacity="0.25" points="406.728,1961.601 549.828,1953.918 547.057,1928.367 405.936,1937.313 " />
<polygon stroke="black" stroke-width="1" fill="rgb(204, 204, 204)" fill-opacity="0.25" points="407.484,2000.582 553.750,1994.626 551.790,1974.043 407.125,1980.860 " />
<polygon stroke="black" stroke-width="1" fill="rgb(204, 204, 204)" fill-opacity="0.25" points="494.889,1140.320 637.610,1143.533 639.756,1123.536 495.033,1121.176 " />
<polygon stroke="black" stroke-width="1" fill="rgb(204, 204, 204)" fill-opacity="0.25" points="495.594,1097.866 642.685,1099.248 644.871,1082.824 496.270,1082.009 " />
<polygon stroke="black" stroke-width="1" fill="rgb(204, 204, 204)" fill-opacity="0.25" points="407.252,2023.574 555.273,2018.419 554.812,2009.620 407.465,2014.917 " />
<polygon stroke="black" stroke-width="1" fill="rgb(204, 204, 204)" fill-opacity="0.25" points="495.033,1121.176 639.756,1123.536 642.685,1099.248 495.594,1097.866 " />
<polygon stroke="black" stroke-width="1" fill="rgb(204, 204, 204)" fill-opacity="0.25" points="407.465,2014.917 554.812,2009.620 553.750,1994.626 407.484,2000.582 " />
<polygon stroke="black" stroke-width="1" fill="rgb(204, 204, 204)" fill-opacity="0.25" points="405.936,1937.313 547.057,1928.367 544.696,1907.115 405.178,1917.131 " />
<polygon stroke="black" stroke-width="1" fill="rgb(204, 204, 204)" fill-opacity="0.25" points="494.738,1201.644 631.102,1207.702 633.009,1187.293 494.623,1182.143 " />
<polygon stroke="black" stroke-width="1" fill="rgb(204, 204, 204)" fill-opacity="0.25" points="495.959,1296.556 622.587,1306.880 624.022,1289.584 495.709,1279.999 " />
<polygon stroke="black" stroke-width="1" fill="rgb(204, 204, 204)" fill-opacity="0.25" points="402.640,1844.327 536.256,1828.857 533.436,1804.506 401.622,1822.106 " />
<polygon stroke="black" stroke-width="1" fill="rgb(204, 204, 204)" fill-opacity="0.25" points="494.611,1161.741 635.118,1165.969 637.610,1143.533 494.889,1140.320 " />
<polygon stroke="black" stroke-width="1" fill="rgb(204, 204, 204)" fill-opacity="0.25" points="407.125,1980.860 551.790,1974.043 549.828,1953.918 406.728,1961.601 " />
<polygon stroke="black" stroke-width="1" fill="rgb(204, 204, 204)" fill-opacity="0.25" points="404.529,1898.304 542.571,1887.239 539.661,1860.049 403.598,1872.925 " />
<polygon stroke="black" stroke-width="1" fill="rgb(204, 204, 204)" fill-opacity="0.25" points="495.386,1257.138 626.034,1265.701 628.705,1233.762 494.914,1226.579 " />
<polygon stroke="black" stroke-width="1" fill="rgb(204, 204, 204)" fill-opacity="0.25" points="496.270,1082.009 644.871,1082.824 646.275,1073.499 497.071,1073.027 " />
<polygon stroke="black" stroke-width="1" fill="rgb(204, 204, 204)" fill-opacity="0.25" points="541.041,1731.822 524.552,1747.379 509.457,1760.855 531.600,1787.423 542.161,1764.066 552.788,1745.598 " />
<polygon stroke="black" stroke-width="1" fill="rgb(204, 204, 204)" fill-opacity="0.25" points="394.707,1782.779 114.969,1803.807 106.191,1833.465 401.048,1807.914 531.600,1787.423 509.457,1760.855 " />
<polygon stroke="black" stroke-width="1" fill="rgb(204, 204, 204)" fill-opacity="0.25" points="47.772,1767.224 58.432,1781.520 74.492,1801.390 88.680,1816.033 106.191,1833.465 114.969,1803.807 99.776,1798.244 85.776,1790.726 65.638,1776.666 48.818,1765.817 " />
<polygon stroke="black" stroke-width="1" fill="rgb(204, 204, 204)" fill-opacity="0.25" points="1345.061,461.720 958.130,441.362 953.450,470.234 1339.231,487.668 " />
<polygon stroke="black" stroke-width="1" fill="rgb(204, 204, 204)" fill-opacity="0.25" points="1349.423,375.395 1349.771,368.569 960.199,334.599 958.241,341.290 " />
<polygon stroke="black" stroke-width="1" fill="rgb(204, 204, 204)" fill-opacity="0.25" points="928.955,439.283 958.130,441.362 958.241,341.290 953.433,340.056 " />
<polygon stroke="black" stroke-width="1" fill="rgb(204, 204, 204)" fill-opacity="0.25" points="958.130,441.362 1345.061,461.720 1349.423,375.395 958.241,341.290 " />
<polygon stroke="black" stroke-width="1" fill="rgb(204, 204, 204)" fill-opacity="0.25" points="1345.061,461.720 1371.577,459.667 1352.149,377.301 1349.423,375.395 " />
<polygon stroke="black" stroke-width="1" fill="rgb(204, 204, 204)" fill-opacity="0.25" points="1339.231,487.668 953.450,470.234 948.058,572.294 1339.472,572.294 " />
<polygon stroke="black" stroke-width="1" fill="rgb(204, 204, 204)" fill-opacity="0.25" points="123.988,1562.958 129.819,1588.906 515.600,1571.473 510.919,1542.600 " />
<polygon stroke="black" stroke-width="1" fill="rgb(204, 204, 204)" fill-opacity="0.25" points="119.626,1476.633 510.808,1442.529 509.214,1435.805 119.573,1469.770 " />
<polygon stroke="black" stroke-width="1" fill="rgb(204, 204, 204)" fill-opacity="0.25" points="540.095,1540.522 515.616,1441.295 510.808,1442.529 510.919,1542.600 " />
<polygon stroke="black" stroke-width="1" fill="rgb(204, 204, 204)" fill-opacity="0.25" points="510.919,1542.600 510.808,1442.529 119.626,1476.633 123.988,1562.958 " />
<polygon stroke="black" stroke-width="1" fill="rgb(204, 204, 204)" fill-opacity="0.25" points="123.988,1562.958 119.626,1476.633 116.901,1478.539 97.472,1560.905 " />
<polygon stroke="black" stroke-width="1" fill="rgb(204, 204, 204)" fill-opacity="0.25" points="129.819,1588.906 129.577,1673.532 520.992,1673.532 515.600,1571.473 " />
<polygon stroke="black" stroke-width="1" fill="rgb(204, 204, 204)" fill-opacity="0.25" points="1391.889,709.723 1393.188,711.954 1401.640,696.356 1401.016,696.492 " />
<polygon stroke="black" stroke-width="1" fill="rgb(204, 204, 204)" fill-opacity="0.25" points="141.632,529.468 142.501,527.037 23.551,540.745 23.805,542.930 " />
<polygon stroke="black" stroke-width="1" fill="rgb(204, 204, 204)" fill-opacity="0.25" points="2048.000,0.000 2048.000,0.000 2048.000,0.000 2048.000,0.000 " />
<polygon stroke="black" stroke-width="1" fill="rgb(204, 204, 204)" fill-opacity="0.25" points="154.579,549.388 141.632,529.468 23.805,542.930 28.478,573.375 " />
<polygon stroke="black" stroke-width="1" fill="rgb(204, 204, 204)" fill-opacity="0.25" points="139.642,11.422 139.555,0.000 0.755,0.413 0.790,11.625 " />
<polygon stroke="black" stroke-width="1" fill="rgb(204, 204, 204)" fill-opacity="0.25" points="139.402,235.387 139.537,196.585 0.725,196.282 0.605,235.030 " />
<polygon stroke="black" stroke-width="1" fill="rgb(204, 204, 204)" fill-opacity="0.25" points="189.887,765.123 188.024,732.553 50.463,744.217 52.816,775.252 " />
<polygon stroke="black" stroke-width="1" fill="rgb(204, 204, 204)" fill-opacity="0.25" points="2048.000,0.000 2048.000,0.000 2048.000,0.000 2048.000,0.000 " />
<polygon stroke="black" stroke-width="1" fill="rgb(204, 204, 204)" fill-opacity="0.25" points="1329.534,828.399 1339.757,831.732 1344.963,811.935 1335.700,808.208 " />
<polygon stroke="black" stroke-width="1" fill="rgb(204, 204, 204)" fill-opacity="0.25" points="1314.333,896.026 1323.796,898.366 1328.012,882.302 1317.419,880.573 " />
<polygon stroke="black" stroke-width="1" fill="rgb(204, 204, 204)" fill-opacity="0.25" points="195.105,869.347 193.959,845.237 57.683,853.292 58.955,877.052 " />
<polygon stroke="black" stroke-width="1" fill="rgb(204, 204, 204)" fill-opacity="0.25" points="139.734,113.777 139.739,86.196 0.877,86.074 0.877,113.590 " />
<polygon stroke="black" stroke-width="1" fill="rgb(204, 204, 204)" fill-opacity="0.25" points="2048.000,0.000 2048.000,0.000 2048.000,0.000 2048.000,0.000 " />
<polygon stroke="black" stroke-width="1" fill="rgb(204, 204, 204)" fill-opacity="0.25" points="2048.000,0.000 2048.000,0.000 2048.000,0.000 2048.000,0.000 " />
<polygon stroke="black" stroke-width="1" fill="rgb(204, 204, 204)" fill-opacity="0.25" points="139.014,336.893 139.116,311.144 0.349,310.717 0.256,336.439 " />
<polygon stroke="black" stroke-width="1" fill="rgb(204, 204, 204)" fill-opacity="0.25" points="182.214,645.907 179.908,616.801 39.096,636.966 42.374,663.193 " />
<polygon stroke="black" stroke-width="1" fill="rgb(204, 204, 204)" fill-opacity="0.25" points="1357.578,758.820 1364.636,760.038 1372.128,745.939 1366.883,744.139 " />
<polygon stroke="black" stroke-width="1" fill="rgb(204, 204, 204)" fill-opacity="0.25" points="138.758,407.072 138.872,375.971 0.114,375.482 0.000,406.526 " />
<polygon stroke="black" stroke-width="1" fill="rgb(204, 204, 204)" fill-opacity="0.25" points="2048.000,0.000 2048.000,0.000 2048.000,0.000 2048.000,0.000 " />
<polygon stroke="black" stroke-width="1" fill="rgb(204, 204, 204)" fill-opacity="0.25" points="177.066,585.961 154.579,549.388 28.478,573.375 35.108,609.793 " />
<polygon stroke="black" stroke-width="1" fill="rgb(204, 204, 204)" fill-opacity="0.25" points="1377.039,729.283 1380.320,732.233 1393.188,711.954 1391.889,709.723 " />
<polygon stroke="black" stroke-width="1" fill="rgb(204, 204, 204)" fill-opacity="0.25" points="1343.950,786.179 1352.200,788.508 1358.950,771.745 1351.731,769.973 " />
<polygon stroke="black" stroke-width="1" fill="rgb(204, 204, 204)" fill-opacity="0.25" points="185.693,695.295 183.686,666.244 44.566,682.393 47.294,709.381 " />
<polygon stroke="black" stroke-width="1" fill="rgb(204, 204, 204)" fill-opacity="0.25" points="2048.000,0.000 2048.000,0.000 2048.000,0.000 2048.000,0.000 " />
<polygon stroke="black" stroke-width="1" fill="rgb(204, 204, 204)" fill-opacity="0.25" points="139.217,285.392 139.297,264.400 0.511,264.016 0.441,284.994 " />
<polygon stroke="black" stroke-width="1" fill="rgb(204, 204, 204)" fill-opacity="0.25" points="2048.000,0.000 2048.000,0.000 2048.000,0.000 2048.000,0.000 " />
<polygon stroke="black" stroke-width="1" fill="rgb(204, 204, 204)" fill-opacity="0.25" points="139.625,164.798 139.686,139.879 0.846,139.646 0.798,164.534 " />
<polygon stroke="black" stroke-width="1" fill="rgb(204, 204, 204)" fill-opacity="0.25" points="1321.711,860.410 1332.456,864.558 1336.151,847.636 1325.626,843.744 " />
<polygon stroke="black" stroke-width="1" fill="rgb(204, 204, 204)" fill-opacity="0.25" points="192.450,814.528 191.152,788.976 54.385,798.379 55.953,823.271 " />
<polygon stroke="black" stroke-width="1" fill="rgb(204, 204, 204)" fill-opacity="0.25" points="197.093,912.398 196.237,894.009 60.228,901.468 61.124,918.790 " />
<polygon stroke="black" stroke-width="1" fill="rgb(204, 204, 204)" fill-opacity="0.25" points="139.751,61.637 139.709,31.699 0.835,31.765 0.875,61.575 " />
<polygon stroke="black" stroke-width="1" fill="rgb(204, 204, 204)" fill-opacity="0.25" points="2048.000,0.000 2048.000,0.000 2048.000,0.000 2048.000,0.000 " />
<polygon stroke="black" stroke-width="1" fill="rgb(204, 204, 204)" fill-opacity="0.25" points="197.519,922.417 197.093,912.398 61.124,918.790 61.712,929.766 " />
<polygon stroke="black" stroke-width="1" fill="rgb(204, 204, 204)" fill-opacity="0.25" points="139.709,31.699 139.642,11.422 0.790,11.625 0.835,31.765 " />
<polygon stroke="black" stroke-width="1" fill="rgb(204, 204, 204)" fill-opacity="0.25" points="2048.000,0.000 2048.000,0.000 2048.000,0.000 2048.000,0.000 " />
<polygon stroke="black" stroke-width="1" fill="rgb(204, 204, 204)" fill-opacity="0.25" points="2048.000,0.000 2048.000,0.000 2048.000,0.000 2048.000,0.000 " />
<polygon stroke="black" stroke-width="1" fill="rgb(204, 204, 204)" fill-opacity="0.25" points="139.739,86.196 139.751,61.637 0.875,61.575 0.877,86.074 " />
<polygon stroke="black" stroke-width="1" fill="rgb(204, 204, 204)" fill-opacity="0.25" points="196.237,894.009 195.105,869.347 58.955,877.052 60.228,901.468 " />
<polygon stroke="black" stroke-width="1" fill="rgb(204, 204, 204)" fill-opacity="0.25" points="1301.995,922.013 1323.796,898.366 1314.333,896.026 " />
<polygon stroke="black" stroke-width="1" fill="rgb(204, 204, 204)" fill-opacity="0.25" points="193.959,845.237 192.450,814.528 55.953,823.271 57.683,853.292 " />
<polygon stroke="black" stroke-width="1" fill="rgb(204, 204, 204)" fill-opacity="0.25" points="1317.419,880.573 1328.012,882.302 1332.456,864.558 1321.711,860.410 " />
<polygon stroke="black" stroke-width="1" fill="rgb(204, 204, 204)" fill-opacity="0.25" points="2048.000,0.000 2048.000,0.000 2048.000,0.000 2048.000,0.000 " />
<polygon stroke="black" stroke-width="1" fill="rgb(204, 204, 204)" fill-opacity="0.25" points="139.686,139.879 139.734,113.777 0.877,113.590 0.846,139.646 " />
<polygon stroke="black" stroke-width="1" fill="rgb(204, 204, 204)" fill-opacity="0.25" points="139.537,196.585 139.625,164.798 0.798,164.534 0.725,196.282 " />
<polygon stroke="black" stroke-width="1" fill="rgb(204, 204, 204)" fill-opacity="0.25" points="2048.000,0.000 2048.000,0.000 2048.000,0.000 2048.000,0.000 " />
<polygon stroke="black" stroke-width="1" fill="rgb(204, 204, 204)" fill-opacity="0.25" points="1325.626,843.744 1336.151,847.636 1339.757,831.732 1329.534,828.399 " />
<polygon stroke="black" stroke-width="1" fill="rgb(204, 204, 204)" fill-opacity="0.25" points="191.152,788.976 189.887,765.123 52.816,775.252 54.385,798.379 " />
<polygon stroke="black" stroke-width="1" fill="rgb(204, 204, 204)" fill-opacity="0.25" points="188.024,732.553 185.693,695.295 47.294,709.381 50.463,744.217 " />
<polygon stroke="black" stroke-width="1" fill="rgb(204, 204, 204)" fill-opacity="0.25" points="1335.700,808.208 1344.963,811.935 1352.200,788.508 1343.950,786.179 " />
<polygon stroke="black" stroke-width="1" fill="rgb(204, 204, 204)" fill-opacity="0.25" points="2048.000,0.000 2048.000,0.000 2048.000,0.000 2048.000,0.000 " />
<polygon stroke="black" stroke-width="1" fill="rgb(204, 204, 204)" fill-opacity="0.25" points="139.297,264.400 139.402,235.387 0.605,235.030 0.511,264.016 " />
<polygon stroke="black" stroke-width="1" fill="rgb(204, 204, 204)" fill-opacity="0.25" points="139.116,311.144 139.217,285.392 0.441,284.994 0.349,310.717 " />
<polygon stroke="black" stroke-width="1" fill="rgb(204, 204, 204)" fill-opacity="0.25" points="2048.000,0.000 2048.000,0.000 2048.000,0.000 2048.000,0.000 " />
<polygon stroke="black" stroke-width="1" fill="rgb(204, 204, 204)" fill-opacity="0.25" points="1351.731,769.973 1358.950,771.745 1364.636,760.038 1357.578,758.820 " />
<polygon stroke="black" stroke-width="1" fill="rgb(204, 204, 204)" fill-opacity="0.25" points="183.686,666.244 182.214,645.907 42.374,663.193 44.566,682.393 " />
<polygon stroke="black" stroke-width="1" fill="rgb(204, 204, 204)" fill-opacity="0.25" points="1366.883,744.139 1372.128,745.939 1380.320,732.233 1377.039,729.283 " />
<polygon stroke="black" stroke-width="1" fill="rgb(204, 204, 204)" fill-opacity="0.25" points="179.908,616.801 177.066,585.961 35.108,609.793 39.096,636.966 " />
<polygon stroke="black" stroke-width="1" fill="rgb(204, 204, 204)" fill-opacity="0.25" points="138.872,375.971 139.014,336.893 0.256,336.439 0.114,375.482 " />
<polygon stroke="black" stroke-width="1" fill="rgb(204, 204, 204)" fill-opacity="0.25" points="2048.000,0.000 2048.000,0.000 2048.000,0.000 2048.000,0.000 " />
<polygon stroke="black" stroke-width="1" fill="rgb(204, 204, 204)" fill-opacity="0.25" points="456.321,638.600 455.933,612.428 177.066,585.961 179.908,616.801 " />
<polygon stroke="black" stroke-width="1" fill="rgb(204, 204, 204)" fill-opacity="0.25" points="456.995,681.898 456.650,663.837 182.214,645.907 183.686,666.244 " />
<polygon stroke="black" stroke-width="1" fill="rgb(204, 204, 204)" fill-opacity="0.25" points="408.128,287.781 408.379,263.950 139.217,285.392 139.116,311.144 " />
<polygon stroke="black" stroke-width="1" fill="rgb(204, 204, 204)" fill-opacity="0.25" points="408.549,244.570 408.772,217.799 139.402,235.387 139.297,264.400 " />
<polygon stroke="black" stroke-width="1" fill="rgb(204, 204, 204)" fill-opacity="0.25" points="457.990,740.753 457.345,707.676 185.693,695.295 188.024,732.553 " />
<polygon stroke="black" stroke-width="1" fill="rgb(204, 204, 204)" fill-opacity="0.25" points="459.031,791.750 458.560,770.052 189.887,765.123 191.152,788.976 " />
<polygon stroke="black" stroke-width="1" fill="rgb(204, 204, 204)" fill-opacity="0.25" points="409.080,181.990 409.238,152.736 139.625,164.798 139.537,196.585 " />
<polygon stroke="black" stroke-width="1" fill="rgb(204, 204, 204)" fill-opacity="0.25" points="409.348,129.818 409.405,105.847 139.734,113.777 139.686,139.879 " />
<polygon stroke="black" stroke-width="1" fill="rgb(204, 204, 204)" fill-opacity="0.25" points="460.133,843.142 459.505,815.063 192.450,814.528 193.959,845.237 " />
<polygon stroke="black" stroke-width="1" fill="rgb(204, 204, 204)" fill-opacity="0.25" points="461.460,888.173 460.772,865.364 195.105,869.347 196.237,894.009 " />
<polygon stroke="black" stroke-width="1" fill="rgb(204, 204, 204)" fill-opacity="0.25" points="409.314,80.544 409.277,58.020 139.751,61.637 139.739,86.196 " />
<polygon stroke="black" stroke-width="1" fill="rgb(204, 204, 204)" fill-opacity="0.25" points="409.031,30.543 408.707,11.837 139.642,11.422 139.709,31.699 " />
<polygon stroke="black" stroke-width="1" fill="rgb(204, 204, 204)" fill-opacity="0.25" points="462.611,914.700 462.185,905.258 197.093,912.398 197.519,922.417 " />
<polygon stroke="black" stroke-width="1" fill="rgb(204, 204, 204)" fill-opacity="0.25" points="409.277,58.020 409.031,30.543 139.709,31.699 139.751,61.637 " />
<polygon stroke="black" stroke-width="1" fill="rgb(204, 204, 204)" fill-opacity="0.25" points="462.185,905.258 461.460,888.173 196.237,894.009 197.093,912.398 " />
<polygon stroke="black" stroke-width="1" fill="rgb(204, 204, 204)" fill-opacity="0.25" points="459.505,815.063 459.031,791.750 191.152,788.976 192.450,814.528 " />
<polygon stroke="black" stroke-width="1" fill="rgb(204, 204, 204)" fill-opacity="0.25" points="409.238,152.736 409.348,129.818 139.686,139.879 139.625,164.798 " />
<polygon stroke="black" stroke-width="1" fill="rgb(204, 204, 204)" fill-opacity="0.25" points="408.379,263.950 408.549,244.570 139.297,264.400 139.217,285.392 " />
<polygon stroke="black" stroke-width="1" fill="rgb(204, 204, 204)" fill-opacity="0.25" points="457.345,707.676 456.995,681.898 183.686,666.244 185.693,695.295 " />
<polygon stroke="black" stroke-width="1" fill="rgb(204, 204, 204)" fill-opacity="0.25" points="456.650,663.837 456.321,638.600 179.908,616.801 182.214,645.907 " />
<polygon stroke="black" stroke-width="1" fill="rgb(204, 204, 204)" fill-opacity="0.25" points="407.878,311.607 408.128,287.781 139.116,311.144 139.014,336.893 " />
<polygon stroke="black" stroke-width="1" fill="rgb(204, 204, 204)" fill-opacity="0.25" points="409.405,105.847 409.314,80.544 139.739,86.196 139.734,113.777 " />
<polygon stroke="black" stroke-width="1" fill="rgb(204, 204, 204)" fill-opacity="0.25" points="460.772,865.364 460.133,843.142 193.959,845.237 195.105,869.347 " />
<polygon stroke="black" stroke-width="1" fill="rgb(204, 204, 204)" fill-opacity="0.25" points="458.560,770.052 457.990,740.753 188.024,732.553 189.887,765.123 " />
<polygon stroke="black" stroke-width="1" fill="rgb(204, 204, 204)" fill-opacity="0.25" points="408.772,217.799 409.080,181.990 139.537,196.585 139.402,235.387 " />
<polygon stroke="black" stroke-width="1" fill="rgb(204, 204, 204)" fill-opacity="0.25" points="408.707,11.837 408.293,1.018 139.555,0.000 139.642,11.422 " />
<polygon stroke="black" stroke-width="1" fill="rgb(204, 204, 204)" fill-opacity="0.25" points="177.066,585.961 455.933,612.428 725.034,630.551 848.850,639.540 860.596,625.764 729.029,609.172 458.947,589.817 190.296,563.589 " />
<polygon stroke="black" stroke-width="1" fill="rgb(204, 204, 204)" fill-opacity="0.25" points="61.712,929.766 62.230,941.941 198.169,936.194 197.519,922.417 " />
<polygon stroke="black" stroke-width="1" fill="rgb(204, 204, 204)" fill-opacity="0.25" points="1371.525,671.260 1372.452,669.850 1354.794,659.679 1353.868,661.164 " />
<polygon stroke="black" stroke-width="1" fill="rgb(204, 204, 204)" fill-opacity="0.25" points="1360.628,685.737 1371.525,671.260 1353.868,661.164 1343.208,675.459 " />
<polygon stroke="black" stroke-width="1" fill="rgb(204, 204, 204)" fill-opacity="0.25" points="1222.359,11.811 1222.420,3.509 1199.335,1.317 1200.240,9.652 " />
<polygon stroke="black" stroke-width="1" fill="rgb(204, 204, 204)" fill-opacity="0.25" points="1242.402,169.085 1238.833,140.979 1215.338,140.194 1218.582,168.433 " />
<polygon stroke="black" stroke-width="1" fill="rgb(204, 204, 204)" fill-opacity="0.25" points="1290.773,818.222 1297.082,795.928 1274.659,793.311 1268.831,816.791 " />
<polygon stroke="black" stroke-width="1" fill="rgb(204, 204, 204)" fill-opacity="0.25" points="1276.149,890.785 1278.815,873.779 1257.585,874.411 1254.988,892.049 " />
<polygon stroke="black" stroke-width="1" fill="rgb(204, 204, 204)" fill-opacity="0.25" points="1231.053,82.385 1228.636,63.211 1206.039,62.032 1208.363,81.276 " />
<polygon stroke="black" stroke-width="1" fill="rgb(204, 204, 204)" fill-opacity="0.25" points="1251.625,244.275 1249.159,225.007 1224.811,224.973 1227.312,244.543 " />
<polygon stroke="black" stroke-width="1" fill="rgb(204, 204, 204)" fill-opacity="0.25" points="1321.081,738.605 1332.727,721.880 1312.959,709.973 1295.448,727.405 " />
<polygon stroke="black" stroke-width="1" fill="rgb(204, 204, 204)" fill-opacity="0.25" points="1258.676,296.967 1255.468,273.536 1231.270,274.231 1234.551,298.004 " />
<polygon stroke="black" stroke-width="1" fill="rgb(204, 204, 204)" fill-opacity="0.25" points="1344.760,706.279 1360.628,685.737 1343.208,675.459 1327.147,695.330 " />
<polygon stroke="black" stroke-width="1" fill="rgb(204, 204, 204)" fill-opacity="0.25" points="1305.749,770.665 1314.228,751.288 1289.882,744.150 1282.543,766.138 " />
<polygon stroke="black" stroke-width="1" fill="rgb(204, 204, 204)" fill-opacity="0.25" points="1246.744,205.827 1244.917,190.346 1220.896,189.772 1222.476,205.376 " />
<polygon stroke="black" stroke-width="1" fill="rgb(204, 204, 204)" fill-opacity="0.25" points="1235.945,118.294 1233.568,100.646 1210.548,99.675 1212.642,117.414 " />
<polygon stroke="black" stroke-width="1" fill="rgb(204, 204, 204)" fill-opacity="0.25" points="1282.879,852.389 1286.756,834.706 1265.171,834.003 1261.537,852.332 " />
<polygon stroke="black" stroke-width="1" fill="rgb(204, 204, 204)" fill-opacity="0.25" points="1272.738,921.290 1273.928,908.486 1252.614,910.248 1251.327,923.391 " />
<polygon stroke="black" stroke-width="1" fill="rgb(204, 204, 204)" fill-opacity="0.25" points="1226.219,46.297 1223.536,26.057 1201.749,24.002 1204.043,44.849 " />
<polygon stroke="black" stroke-width="1" fill="rgb(204, 204, 204)" fill-opacity="0.25" points="1272.261,929.531 1272.738,921.290 1251.327,923.391 1250.837,931.953 " />
<polygon stroke="black" stroke-width="1" fill="rgb(204, 204, 204)" fill-opacity="0.25" points="1223.536,26.057 1222.359,11.811 1200.240,9.652 1201.749,24.002 " />
<polygon stroke="black" stroke-width="1" fill="rgb(204, 204, 204)" fill-opacity="0.25" points="1228.636,63.211 1226.219,46.297 1204.043,44.849 1206.039,62.032 " />
<polygon stroke="black" stroke-width="1" fill="rgb(204, 204, 204)" fill-opacity="0.25" points="1273.928,908.486 1276.149,890.785 1254.988,892.049 1252.614,910.248 " />
<polygon stroke="black" stroke-width="1" fill="rgb(204, 204, 204)" fill-opacity="0.25" points="1278.815,873.779 1282.879,852.389 1261.537,852.332 1257.585,874.411 " />
<polygon stroke="black" stroke-width="1" fill="rgb(204, 204, 204)" fill-opacity="0.25" points="1233.568,100.646 1231.053,82.385 1208.363,81.276 1210.548,99.675 " />
<polygon stroke="black" stroke-width="1" fill="rgb(204, 204, 204)" fill-opacity="0.25" points="1238.833,140.979 1235.945,118.294 1212.642,117.414 1215.338,140.194 " />
<polygon stroke="black" stroke-width="1" fill="rgb(204, 204, 204)" fill-opacity="0.25" points="1286.756,834.706 1290.773,818.222 1268.831,816.791 1265.171,834.003 " />
<polygon stroke="black" stroke-width="1" fill="rgb(204, 204, 204)" fill-opacity="0.25" points="1297.082,795.928 1305.749,770.665 1282.543,766.138 1274.659,793.311 " />
<polygon stroke="black" stroke-width="1" fill="rgb(204, 204, 204)" fill-opacity="0.25" points="1244.917,190.346 1242.402,169.085 1218.582,168.433 1220.896,189.772 " />
<polygon stroke="black" stroke-width="1" fill="rgb(204, 204, 204)" fill-opacity="0.25" points="1249.159,225.007 1246.744,205.827 1222.476,205.376 1224.811,224.973 " />
<polygon stroke="black" stroke-width="1" fill="rgb(204, 204, 204)" fill-opacity="0.25" points="1314.228,751.288 1321.081,738.605 1295.448,727.405 1289.882,744.150 " />
<polygon stroke="black" stroke-width="1" fill="rgb(204, 204, 204)" fill-opacity="0.25" points="1332.727,721.880 1344.760,706.279 1327.147,695.330 1312.959,709.973 " />
<polygon stroke="black" stroke-width="1" fill="rgb(204, 204, 204)" fill-opacity="0.25" points="1255.468,273.536 1251.625,244.275 1227.312,244.543 1231.270,274.231 " />
<polygon stroke="black" stroke-width="1" fill="rgb(204, 204, 204)" fill-opacity="0.25" points="994.386,917.516 995.279,928.508 1251.951,941.941 1250.837,931.953 " />
<polygon stroke="black" stroke-width="1" fill="rgb(204, 204, 204)" fill-opacity="0.25" points="1305.532,270.476 1304.363,241.399 1278.409,241.997 1281.153,271.177 " />
<polygon stroke="black" stroke-width="1" fill="rgb(204, 204, 204)" fill-opacity="0.25" points="1366.883,744.139 1377.039,729.283 1361.632,718.570 1350.776,733.961 " />
<polygon stroke="black" stroke-width="1" fill="rgb(204, 204, 204)" fill-opacity="0.25" points="1351.731,769.973 1357.578,758.820 1340.761,749.615 1334.393,761.454 " />
<polygon stroke="black" stroke-width="1" fill="rgb(204, 204, 204)" fill-opacity="0.25" points="1303.583,222.231 1302.769,203.062 1274.671,203.665 1276.573,222.781 " />
<polygon stroke="black" stroke-width="1" fill="rgb(204, 204, 204)" fill-opacity="0.25" points="1302.014,187.316 1300.785,165.496 1271.061,166.629 1273.195,188.100 " />
<polygon stroke="black" stroke-width="1" fill="rgb(204, 204, 204)" fill-opacity="0.25" points="1335.700,808.208 1343.950,786.179 1326.146,778.918 1317.465,802.360 " />
<polygon stroke="black" stroke-width="1" fill="rgb(204, 204, 204)" fill-opacity="0.25" points="1325.626,843.744 1329.534,828.399 1311.036,823.517 1306.965,839.375 " />
<polygon stroke="black" stroke-width="1" fill="rgb(204, 204, 204)" fill-opacity="0.25" points="1298.658,136.215 1296.193,112.008 1264.924,115.010 1267.760,138.170 " />
<polygon stroke="black" stroke-width="1" fill="rgb(204, 204, 204)" fill-opacity="0.25" points="1293.672,93.071 1290.402,73.233 1259.458,78.323 1262.365,96.986 " />
<polygon stroke="black" stroke-width="1" fill="rgb(204, 204, 204)" fill-opacity="0.25" points="1317.419,880.573 1321.711,860.410 1302.969,856.478 1298.814,877.179 " />
<polygon stroke="black" stroke-width="1" fill="rgb(204, 204, 204)" fill-opacity="0.25" points="1301.995,922.013 1314.333,896.026 1296.390,893.479 1294.862,910.490 " />
<polygon stroke="black" stroke-width="1" fill="rgb(204, 204, 204)" fill-opacity="0.25" points="1285.967,52.763 1281.512,34.700 1253.277,41.547 1256.559,58.814 " />
<polygon stroke="black" stroke-width="1" fill="rgb(204, 204, 204)" fill-opacity="0.25" points="1281.512,34.700 1257.341,7.292 1247.415,22.230 1253.277,41.547 " />
<polygon stroke="black" stroke-width="1" fill="rgb(204, 204, 204)" fill-opacity="0.25" points="1321.711,860.410 1325.626,843.744 1306.965,839.375 1302.969,856.478 " />
<polygon stroke="black" stroke-width="1" fill="rgb(204, 204, 204)" fill-opacity="0.25" points="1296.193,112.008 1293.672,93.071 1262.365,96.986 1264.924,115.010 " />
<polygon stroke="black" stroke-width="1" fill="rgb(204, 204, 204)" fill-opacity="0.25" points="1302.769,203.062 1302.014,187.316 1273.195,188.100 1274.671,203.665 " />
<polygon stroke="black" stroke-width="1" fill="rgb(204, 204, 204)" fill-opacity="0.25" points="1343.950,786.179 1351.731,769.973 1334.393,761.454 1326.146,778.918 " />
<polygon stroke="black" stroke-width="1" fill="rgb(204, 204, 204)" fill-opacity="0.25" points="1377.039,729.283 1391.889,709.723 1377.160,698.209 1361.632,718.570 " />
<polygon stroke="black" stroke-width="1" fill="rgb(204, 204, 204)" fill-opacity="0.25" points="1306.402,293.334 1305.532,270.476 1281.153,271.177 1283.375,294.375 " />
<polygon stroke="black" stroke-width="1" fill="rgb(204, 204, 204)" fill-opacity="0.25" points="1357.578,758.820 1366.883,744.139 1350.776,733.961 1340.761,749.615 " />
<polygon stroke="black" stroke-width="1" fill="rgb(204, 204, 204)" fill-opacity="0.25" points="1304.363,241.399 1303.583,222.231 1276.573,222.781 1278.409,241.997 " />
<polygon stroke="black" stroke-width="1" fill="rgb(204, 204, 204)" fill-opacity="0.25" points="1290.402,73.233 1285.967,52.763 1256.559,58.814 1259.458,78.323 " />
<polygon stroke="black" stroke-width="1" fill="rgb(204, 204, 204)" fill-opacity="0.25" points="1314.333,896.026 1317.419,880.573 1298.814,877.179 1296.390,893.479 " />
<polygon stroke="black" stroke-width="1" fill="rgb(204, 204, 204)" fill-opacity="0.25" points="1329.534,828.399 1335.700,808.208 1317.465,802.360 1311.036,823.517 " />
<polygon stroke="black" stroke-width="1" fill="rgb(204, 204, 204)" fill-opacity="0.25" points="1300.785,165.496 1298.658,136.215 1267.760,138.170 1271.061,166.629 " />
<polygon stroke="black" stroke-width="1" fill="rgb(204, 204, 204)" fill-opacity="0.25" points="1391.889,709.723 1401.016,696.492 1388.498,683.922 1377.160,698.209 " />
<polygon stroke="black" stroke-width="1" fill="rgb(204, 204, 204)" fill-opacity="0.25" points="1401.016,696.492 1401.640,696.356 1389.408,682.900 1388.498,683.922 " />
<polygon stroke="black" stroke-width="1" fill="rgb(204, 204, 204)" fill-opacity="0.25" points="1272.261,929.531 1273.761,938.771 1301.995,922.013 " />
<polygon stroke="black" stroke-width="1" fill="rgb(204, 204, 204)" fill-opacity="0.25" points="1250.837,931.953 1251.951,941.941 1273.761,938.771 1272.261,929.531 " />
<polygon stroke="black" stroke-width="1" fill="rgb(204, 204, 204)" fill-opacity="0.25" points="1281.153,271.177 1278.409,241.997 1251.625,244.275 1255.468,273.536 " />
<polygon stroke="black" stroke-width="1" fill="rgb(204, 204, 204)" fill-opacity="0.25" points="1350.776,733.961 1361.632,718.570 1344.760,706.279 1332.727,721.880 " />
<polygon stroke="black" stroke-width="1" fill="rgb(204, 204, 204)" fill-opacity="0.25" points="1334.393,761.454 1340.761,749.615 1321.081,738.605 1314.228,751.288 " />
<polygon stroke="black" stroke-width="1" fill="rgb(204, 204, 204)" fill-opacity="0.25" points="1276.573,222.781 1274.671,203.665 1246.744,205.827 1249.159,225.007 " />
<polygon stroke="black" stroke-width="1" fill="rgb(204, 204, 204)" fill-opacity="0.25" points="1273.195,188.100 1271.061,166.629 1242.402,169.085 1244.917,190.346 " />
<polygon stroke="black" stroke-width="1" fill="rgb(204, 204, 204)" fill-opacity="0.25" points="1317.465,802.360 1326.146,778.918 1305.749,770.665 1297.082,795.928 " />
<polygon stroke="black" stroke-width="1" fill="rgb(204, 204, 204)" fill-opacity="0.25" points="1306.965,839.375 1311.036,823.517 1290.773,818.222 1286.756,834.706 " />
<polygon stroke="black" stroke-width="1" fill="rgb(204, 204, 204)" fill-opacity="0.25" points="1267.760,138.170 1264.924,115.010 1235.945,118.294 1238.833,140.979 " />
<polygon stroke="black" stroke-width="1" fill="rgb(204, 204, 204)" fill-opacity="0.25" points="1262.365,96.986 1259.458,78.323 1231.053,82.385 1233.568,100.646 " />
<polygon stroke="black" stroke-width="1" fill="rgb(204, 204, 204)" fill-opacity="0.25" points="1298.814,877.179 1302.969,856.478 1282.879,852.389 1278.815,873.779 " />
<polygon stroke="black" stroke-width="1" fill="rgb(204, 204, 204)" fill-opacity="0.25" points="1294.862,910.490 1296.390,893.479 1276.149,890.785 1273.928,908.486 " />
<polygon stroke="black" stroke-width="1" fill="rgb(204, 204, 204)" fill-opacity="0.25" points="1256.559,58.814 1253.277,41.547 1226.219,46.297 1228.636,63.211 " />
<polygon stroke="black" stroke-width="1" fill="rgb(204, 204, 204)" fill-opacity="0.25" points="1247.415,22.230 1257.341,7.292 1222.359,11.811 1223.536,26.057 " />
<polygon stroke="black" stroke-width="1" fill="rgb(204, 204, 204)" fill-opacity="0.25" points="1301.995,922.013 1272.738,921.290 1272.261,929.531 " />
<polygon stroke="black" stroke-width="1" fill="rgb(204, 204, 204)" fill-opacity="0.25" points="1253.277,41.547 1247.415,22.230 1223.536,26.057 1226.219,46.297 " />
<polygon stroke="black" stroke-width="1" fill="rgb(204, 204, 204)" fill-opacity="0.25" points="1301.995,922.013 1294.862,910.490 1273.928,908.486 1272.738,921.290 " />
<polygon stroke="black" stroke-width="1" fill="rgb(204, 204, 204)" fill-opacity="0.25" points="1302.969,856.478 1306.965,839.375 1286.756,834.706 1282.879,852.389 " />
<polygon stroke="black" stroke-width="1" fill="rgb(204, 204, 204)" fill-opacity="0.25" points="1264.924,115.010 1262.365,96.986 1233.568,100.646 1235.945,118.294 " />
<polygon stroke="black" stroke-width="1" fill="rgb(204, 204, 204)" fill-opacity="0.25" points="1274.671,203.665 1273.195,188.100 1244.917,190.346 1246.744,205.827 " />
<polygon stroke="black" stroke-width="1" fill="rgb(204, 204, 204)" fill-opacity="0.25" points="1326.146,778.918 1334.393,761.454 1314.228,751.288 1305.749,770.665 " />
<polygon stroke="black" stroke-width="1" fill="rgb(204, 204, 204)" fill-opacity="0.25" points="1361.632,718.570 1377.160,698.209 1360.628,685.737 1344.760,706.279 " />
<polygon stroke="black" stroke-width="1" fill="rgb(204, 204, 204)" fill-opacity="0.25" points="1283.375,294.375 1281.153,271.177 1255.468,273.536 1258.676,296.967 " />
<polygon stroke="black" stroke-width="1" fill="rgb(204, 204, 204)" fill-opacity="0.25" points="1340.761,749.615 1350.776,733.961 1332.727,721.880 1321.081,738.605 " />
<polygon stroke="black" stroke-width="1" fill="rgb(204, 204, 204)" fill-opacity="0.25" points="1278.409,241.997 1276.573,222.781 1249.159,225.007 1251.625,244.275 " />
<polygon stroke="black" stroke-width="1" fill="rgb(204, 204, 204)" fill-opacity="0.25" points="1259.458,78.323 1256.559,58.814 1228.636,63.211 1231.053,82.385 " />
<polygon stroke="black" stroke-width="1" fill="rgb(204, 204, 204)" fill-opacity="0.25" points="1296.390,893.479 1298.814,877.179 1278.815,873.779 1276.149,890.785 " />
<polygon stroke="black" stroke-width="1" fill="rgb(204, 204, 204)" fill-opacity="0.25" points="1311.036,823.517 1317.465,802.360 1297.082,795.928 1290.773,818.222 " />
<polygon stroke="black" stroke-width="1" fill="rgb(204, 204, 204)" fill-opacity="0.25" points="1271.061,166.629 1267.760,138.170 1238.833,140.979 1242.402,169.085 " />
<polygon stroke="black" stroke-width="1" fill="rgb(204, 204, 204)" fill-opacity="0.25" points="1257.341,7.292 1222.420,3.509 1222.359,11.811 " />
<polygon stroke="black" stroke-width="1" fill="rgb(204, 204, 204)" fill-opacity="0.25" points="1377.160,698.209 1388.498,683.922 1371.525,671.260 1360.628,685.737 " />
<polygon stroke="black" stroke-width="1" fill="rgb(204, 204, 204)" fill-opacity="0.25" points="1388.498,683.922 1389.408,682.900 1372.452,669.850 1371.525,671.260 " />
<polygon stroke="black" stroke-width="1" fill="rgb(204, 204, 204)" fill-opacity="0.25" points="462.611,914.700 463.641,928.254 729.724,924.673 728.519,913.005 " />
<polygon stroke="black" stroke-width="1" fill="rgb(204, 204, 204)" fill-opacity="0.25" points="797.763,10.248 796.358,0.922 676.991,0.000 677.624,9.786 " />
<polygon stroke="black" stroke-width="1" fill="rgb(204, 204, 204)" fill-opacity="0.25" points="816.600,193.125 813.928,161.186 678.525,168.755 678.099,202.252 " />
<polygon stroke="black" stroke-width="1" fill="rgb(204, 204, 204)" fill-opacity="0.25" points="859.066,781.181 861.977,753.991 726.055,750.135 726.209,777.508 " />
<polygon stroke="black" stroke-width="1" fill="rgb(204, 204, 204)" fill-opacity="0.25" points="849.848,867.984 851.810,847.859 726.691,846.092 727.049,866.959 " />
<polygon stroke="black" stroke-width="1" fill="rgb(204, 204, 204)" fill-opacity="0.25" points="807.516,93.392 805.024,70.957 678.687,73.820 678.879,97.474 " />
<polygon stroke="black" stroke-width="1" fill="rgb(204, 204, 204)" fill-opacity="0.25" points="823.312,276.859 821.680,255.583 677.176,267.729 676.799,290.017 " />
<polygon stroke="black" stroke-width="1" fill="rgb(204, 204, 204)" fill-opacity="0.25" points="870.038,681.365 859.477,658.008 725.071,657.354 725.158,680.144 " />
<polygon stroke="black" stroke-width="1" fill="rgb(204, 204, 204)" fill-opacity="0.25" points="865.382,722.798 868.201,698.448 725.521,695.421 725.753,719.323 " />
<polygon stroke="black" stroke-width="1" fill="rgb(204, 204, 204)" fill-opacity="0.25" points="820.046,234.304 818.612,217.008 677.790,227.306 677.552,245.445 " />
<polygon stroke="black" stroke-width="1" fill="rgb(204, 204, 204)" fill-opacity="0.25" points="811.532,135.126 809.625,114.717 678.840,119.915 678.715,141.371 " />
<polygon stroke="black" stroke-width="1" fill="rgb(204, 204, 204)" fill-opacity="0.25" points="854.581,822.309 856.942,801.056 726.398,797.849 726.515,819.723 " />
<polygon stroke="black" stroke-width="1" fill="rgb(204, 204, 204)" fill-opacity="0.25" points="846.826,903.562 847.888,888.567 727.461,888.355 728.053,904.015 " />
<polygon stroke="black" stroke-width="1" fill="rgb(204, 204, 204)" fill-opacity="0.25" points="802.877,50.959 799.949,26.672 678.152,27.126 678.583,52.749 " />
<polygon stroke="black" stroke-width="1" fill="rgb(204, 204, 204)" fill-opacity="0.25" points="846.365,912.361 846.826,903.562 728.053,904.015 728.519,913.005 " />
<polygon stroke="black" stroke-width="1" fill="rgb(204, 204, 204)" fill-opacity="0.25" points="799.949,26.672 797.763,10.248 677.624,9.786 678.152,27.126 " />
<polygon stroke="black" stroke-width="1" fill="rgb(204, 204, 204)" fill-opacity="0.25" points="805.024,70.957 802.877,50.959 678.583,52.749 678.687,73.820 " />
<polygon stroke="black" stroke-width="1" fill="rgb(204, 204, 204)" fill-opacity="0.25" points="847.888,888.567 849.848,867.984 727.049,866.959 727.461,888.355 " />
<polygon stroke="black" stroke-width="1" fill="rgb(204, 204, 204)" fill-opacity="0.25" points="851.810,847.859 854.581,822.309 726.515,819.723 726.691,846.092 " />
<polygon stroke="black" stroke-width="1" fill="rgb(204, 204, 204)" fill-opacity="0.25" points="809.625,114.717 807.516,93.392 678.879,97.474 678.840,119.915 " />
<polygon stroke="black" stroke-width="1" fill="rgb(204, 204, 204)" fill-opacity="0.25" points="813.928,161.186 811.532,135.126 678.715,141.371 678.525,168.755 " />
<polygon stroke="black" stroke-width="1" fill="rgb(204, 204, 204)" fill-opacity="0.25" points="856.942,801.056 859.066,781.181 726.209,777.508 726.398,797.849 " />
<polygon stroke="black" stroke-width="1" fill="rgb(204, 204, 204)" fill-opacity="0.25" points="861.977,753.991 865.382,722.798 725.753,719.323 726.055,750.135 " />
<polygon stroke="black" stroke-width="1" fill="rgb(204, 204, 204)" fill-opacity="0.25" points="818.612,217.008 816.600,193.125 678.099,202.252 677.790,227.306 " />
<polygon stroke="black" stroke-width="1" fill="rgb(204, 204, 204)" fill-opacity="0.25" points="821.680,255.583 820.046,234.304 677.552,245.445 677.176,267.729 " />
<polygon stroke="black" stroke-width="1" fill="rgb(204, 204, 204)" fill-opacity="0.25" points="868.201,698.448 870.038,681.365 725.158,680.144 725.521,695.421 " />
<polygon stroke="black" stroke-width="1" fill="rgb(204, 204, 204)" fill-opacity="0.25" points="859.477,658.008 848.850,639.540 725.034,630.551 725.071,657.354 " />
<polygon stroke="black" stroke-width="1" fill="rgb(204, 204, 204)" fill-opacity="0.25" points="197.519,922.417 198.169,936.194 463.641,928.254 462.611,914.700 " />
<polygon stroke="black" stroke-width="1" fill="rgb(204, 204, 204)" fill-opacity="0.25" points="190.296,563.589 163.709,543.631 142.501,527.037 141.632,529.468 154.579,549.388 177.066,585.961 " />
<polygon stroke="black" stroke-width="1" fill="rgb(204, 204, 204)" fill-opacity="0.25" points="677.624,9.786 676.991,0.000 408.293,1.018 408.707,11.837 " />
<polygon stroke="black" stroke-width="1" fill="rgb(204, 204, 204)" fill-opacity="0.25" points="678.099,202.252 678.525,168.755 409.080,181.990 408.772,217.799 " />
<polygon stroke="black" stroke-width="1" fill="rgb(204, 204, 204)" fill-opacity="0.25" points="726.209,777.508 726.055,750.135 457.990,740.753 458.560,770.052 " />
<polygon stroke="black" stroke-width="1" fill="rgb(204, 204, 204)" fill-opacity="0.25" points="727.049,866.959 726.691,846.092 460.133,843.142 460.772,865.364 " />
<polygon stroke="black" stroke-width="1" fill="rgb(204, 204, 204)" fill-opacity="0.25" points="678.879,97.474 678.687,73.820 409.314,80.544 409.405,105.847 " />
<polygon stroke="black" stroke-width="1" fill="rgb(204, 204, 204)" fill-opacity="0.25" points="676.799,290.017 677.176,267.729 408.128,287.781 407.878,311.607 " />
<polygon stroke="black" stroke-width="1" fill="rgb(204, 204, 204)" fill-opacity="0.25" points="725.158,680.144 725.071,657.354 456.321,638.600 456.650,663.837 " />
<polygon stroke="black" stroke-width="1" fill="rgb(204, 204, 204)" fill-opacity="0.25" points="725.753,719.323 725.521,695.421 456.995,681.898 457.345,707.676 " />
<polygon stroke="black" stroke-width="1" fill="rgb(204, 204, 204)" fill-opacity="0.25" points="677.552,245.445 677.790,227.306 408.549,244.570 408.379,263.950 " />
<polygon stroke="black" stroke-width="1" fill="rgb(204, 204, 204)" fill-opacity="0.25" points="678.715,141.371 678.840,119.915 409.348,129.818 409.238,152.736 " />
<polygon stroke="black" stroke-width="1" fill="rgb(204, 204, 204)" fill-opacity="0.25" points="726.515,819.723 726.398,797.849 459.031,791.750 459.505,815.063 " />
<polygon stroke="black" stroke-width="1" fill="rgb(204, 204, 204)" fill-opacity="0.25" points="728.053,904.015 727.461,888.355 461.460,888.173 462.185,905.258 " />
<polygon stroke="black" stroke-width="1" fill="rgb(204, 204, 204)" fill-opacity="0.25" points="678.583,52.749 678.152,27.126 409.031,30.543 409.277,58.020 " />
<polygon stroke="black" stroke-width="1" fill="rgb(204, 204, 204)" fill-opacity="0.25" points="728.519,913.005 728.053,904.015 462.185,905.258 462.611,914.700 " />
<polygon stroke="black" stroke-width="1" fill="rgb(204, 204, 204)" fill-opacity="0.25" points="678.152,27.126 677.624,9.786 408.707,11.837 409.031,30.543 " />
<polygon stroke="black" stroke-width="1" fill="rgb(204, 204, 204)" fill-opacity="0.25" points="678.687,73.820 678.583,52.749 409.277,58.020 409.314,80.544 " />
<polygon stroke="black" stroke-width="1" fill="rgb(204, 204, 204)" fill-opacity="0.25" points="727.461,888.355 727.049,866.959 460.772,865.364 461.460,888.173 " />
<polygon stroke="black" stroke-width="1" fill="rgb(204, 204, 204)" fill-opacity="0.25" points="726.691,846.092 726.515,819.723 459.505,815.063 460.133,843.142 " />
<polygon stroke="black" stroke-width="1" fill="rgb(204, 204, 204)" fill-opacity="0.25" points="678.840,119.915 678.879,97.474 409.405,105.847 409.348,129.818 " />
<polygon stroke="black" stroke-width="1" fill="rgb(204, 204, 204)" fill-opacity="0.25" points="678.525,168.755 678.715,141.371 409.238,152.736 409.080,181.990 " />
<polygon stroke="black" stroke-width="1" fill="rgb(204, 204, 204)" fill-opacity="0.25" points="726.398,797.849 726.209,777.508 458.560,770.052 459.031,791.750 " />
<polygon stroke="black" stroke-width="1" fill="rgb(204, 204, 204)" fill-opacity="0.25" points="726.055,750.135 725.753,719.323 457.345,707.676 457.990,740.753 " />
<polygon stroke="black" stroke-width="1" fill="rgb(204, 204, 204)" fill-opacity="0.25" points="677.790,227.306 678.099,202.252 408.772,217.799 408.549,244.570 " />
<polygon stroke="black" stroke-width="1" fill="rgb(204, 204, 204)" fill-opacity="0.25" points="677.176,267.729 677.552,245.445 408.379,263.950 408.128,287.781 " />
<polygon stroke="black" stroke-width="1" fill="rgb(204, 204, 204)" fill-opacity="0.25" points="725.521,695.421 725.158,680.144 456.650,663.837 456.995,681.898 " />
<polygon stroke="black" stroke-width="1" fill="rgb(204, 204, 204)" fill-opacity="0.25" points="725.071,657.354 725.034,630.551 455.933,612.428 456.321,638.600 " />
<polygon stroke="black" stroke-width="1" fill="rgb(204, 204, 204)" fill-opacity="0.25" points="1289.882,744.150 1295.448,727.405 1000.589,701.855 1000.015,716.047 " />
<polygon stroke="black" stroke-width="1" fill="rgb(204, 204, 204)" fill-opacity="0.25" points="1220.896,189.772 1218.582,168.433 947.248,184.562 946.925,207.423 " />
<polygon stroke="black" stroke-width="1" fill="rgb(204, 204, 204)" fill-opacity="0.25" points="1274.659,793.311 1282.543,766.138 998.997,738.268 998.039,766.866 " />
<polygon stroke="black" stroke-width="1" fill="rgb(204, 204, 204)" fill-opacity="0.25" points="1265.171,834.003 1268.831,816.791 997.109,792.245 996.460,811.073 " />
<polygon stroke="black" stroke-width="1" fill="rgb(204, 204, 204)" fill-opacity="0.25" points="1215.338,140.194 1212.642,117.414 947.896,129.068 947.720,154.003 " />
<polygon stroke="black" stroke-width="1" fill="rgb(204, 204, 204)" fill-opacity="0.25" points="1210.548,99.675 1208.363,81.276 948.024,89.165 948.011,109.567 " />
<polygon stroke="black" stroke-width="1" fill="rgb(204, 204, 204)" fill-opacity="0.25" points="1257.585,874.411 1261.537,852.332 995.702,831.255 994.910,855.542 " />
<polygon stroke="black" stroke-width="1" fill="rgb(204, 204, 204)" fill-opacity="0.25" points="1252.614,910.248 1254.988,892.049 994.513,874.801 994.154,894.524 " />
<polygon stroke="black" stroke-width="1" fill="rgb(204, 204, 204)" fill-opacity="0.25" points="1206.039,62.032 1204.043,44.849 947.601,48.600 947.745,67.744 " />
<polygon stroke="black" stroke-width="1" fill="rgb(204, 204, 204)" fill-opacity="0.25" points="1201.749,24.002 1200.240,9.652 946.365,9.433 947.041,25.290 " />
<polygon stroke="black" stroke-width="1" fill="rgb(204, 204, 204)" fill-opacity="0.25" points="1250.837,931.953 1251.327,923.391 994.173,908.859 994.386,917.516 " />
<polygon stroke="black" stroke-width="1" fill="rgb(204, 204, 204)" fill-opacity="0.25" points="1204.043,44.849 1201.749,24.002 947.041,25.290 947.601,48.600 " />
<polygon stroke="black" stroke-width="1" fill="rgb(204, 204, 204)" fill-opacity="0.25" points="1251.327,923.391 1252.614,910.248 994.154,894.524 994.173,908.859 " />
<polygon stroke="black" stroke-width="1" fill="rgb(204, 204, 204)" fill-opacity="0.25" points="1261.537,852.332 1265.171,834.003 996.460,811.073 995.702,831.255 " />
<polygon stroke="black" stroke-width="1" fill="rgb(204, 204, 204)" fill-opacity="0.25" points="1212.642,117.414 1210.548,99.675 948.011,109.567 947.896,129.068 " />
<polygon stroke="black" stroke-width="1" fill="rgb(204, 204, 204)" fill-opacity="0.25" points="1222.476,205.376 1220.896,189.772 946.925,207.423 946.675,223.980 " />
<polygon stroke="black" stroke-width="1" fill="rgb(204, 204, 204)" fill-opacity="0.25" points="1282.543,766.138 1289.882,744.150 1000.015,716.047 998.997,738.268 " />
<polygon stroke="black" stroke-width="1" fill="rgb(204, 204, 204)" fill-opacity="0.25" points="1208.363,81.276 1206.039,62.032 947.745,67.744 948.024,89.165 " />
<polygon stroke="black" stroke-width="1" fill="rgb(204, 204, 204)" fill-opacity="0.25" points="1254.988,892.049 1257.585,874.411 994.910,855.542 994.513,874.801 " />
<polygon stroke="black" stroke-width="1" fill="rgb(204, 204, 204)" fill-opacity="0.25" points="1268.831,816.791 1274.659,793.311 998.039,766.866 997.109,792.245 " />
<polygon stroke="black" stroke-width="1" fill="rgb(204, 204, 204)" fill-opacity="0.25" points="1218.582,168.433 1215.338,140.194 947.720,154.003 947.248,184.562 " />
<polygon stroke="black" stroke-width="1" fill="rgb(204, 204, 204)" fill-opacity="0.25" points="1200.240,9.652 1199.335,1.317 945.564,0.451 946.365,9.433 " />
<polygon stroke="black" stroke-width="1" fill="rgb(204, 204, 204)" fill-opacity="0.25" points="846.365,912.361 847.358,923.666 995.279,928.508 994.386,917.516 " />
<polygon stroke="black" stroke-width="1" fill="rgb(204, 204, 204)" fill-opacity="0.25" points="728.519,913.005 729.724,924.673 847.358,923.666 846.365,912.361 " />
<polygon stroke="black" stroke-width="1" fill="rgb(204, 204, 204)" fill-opacity="0.25" points="1000.015,716.047 1000.589,701.855 870.038,681.365 868.201,698.448 " />
<polygon stroke="black" stroke-width="1" fill="rgb(204, 204, 204)" fill-opacity="0.25" points="946.925,207.423 947.248,184.562 816.600,193.125 818.612,217.008 " />
<polygon stroke="black" stroke-width="1" fill="rgb(204, 204, 204)" fill-opacity="0.25" points="998.039,766.866 998.997,738.268 865.382,722.798 861.977,753.991 " />
<polygon stroke="black" stroke-width="1" fill="rgb(204, 204, 204)" fill-opacity="0.25" points="996.460,811.073 997.109,792.245 859.066,781.181 856.942,801.056 " />
<polygon stroke="black" stroke-width="1" fill="rgb(204, 204, 204)" fill-opacity="0.25" points="947.720,154.003 947.896,129.068 811.532,135.126 813.928,161.186 " />
<polygon stroke="black" stroke-width="1" fill="rgb(204, 204, 204)" fill-opacity="0.25" points="948.011,109.567 948.024,89.165 807.516,93.392 809.625,114.717 " />
<polygon stroke="black" stroke-width="1" fill="rgb(204, 204, 204)" fill-opacity="0.25" points="994.910,855.542 995.702,831.255 854.581,822.309 851.810,847.859 " />
<polygon stroke="black" stroke-width="1" fill="rgb(204, 204, 204)" fill-opacity="0.25" points="994.154,894.524 994.513,874.801 849.848,867.984 847.888,888.567 " />
<polygon stroke="black" stroke-width="1" fill="rgb(204, 204, 204)" fill-opacity="0.25" points="947.745,67.744 947.601,48.600 802.877,50.959 805.024,70.957 " />
<polygon stroke="black" stroke-width="1" fill="rgb(204, 204, 204)" fill-opacity="0.25" points="947.041,25.290 946.365,9.433 797.763,10.248 799.949,26.672 " />
<polygon stroke="black" stroke-width="1" fill="rgb(204, 204, 204)" fill-opacity="0.25" points="994.386,917.516 994.173,908.859 846.826,903.562 846.365,912.361 " />
<polygon stroke="black" stroke-width="1" fill="rgb(204, 204, 204)" fill-opacity="0.25" points="947.601,48.600 947.041,25.290 799.949,26.672 802.877,50.959 " />
<polygon stroke="black" stroke-width="1" fill="rgb(204, 204, 204)" fill-opacity="0.25" points="994.173,908.859 994.154,894.524 847.888,888.567 846.826,903.562 " />
<polygon stroke="black" stroke-width="1" fill="rgb(204, 204, 204)" fill-opacity="0.25" points="995.702,831.255 996.460,811.073 856.942,801.056 854.581,822.309 " />
<polygon stroke="black" stroke-width="1" fill="rgb(204, 204, 204)" fill-opacity="0.25" points="947.896,129.068 948.011,109.567 809.625,114.717 811.532,135.126 " />
<polygon stroke="black" stroke-width="1" fill="rgb(204, 204, 204)" fill-opacity="0.25" points="946.675,223.980 946.925,207.423 818.612,217.008 820.046,234.304 " />
<polygon stroke="black" stroke-width="1" fill="rgb(204, 204, 204)" fill-opacity="0.25" points="998.997,738.268 1000.015,716.047 868.201,698.448 865.382,722.798 " />
<polygon stroke="black" stroke-width="1" fill="rgb(204, 204, 204)" fill-opacity="0.25" points="948.024,89.165 947.745,67.744 805.024,70.957 807.516,93.392 " />
<polygon stroke="black" stroke-width="1" fill="rgb(204, 204, 204)" fill-opacity="0.25" points="994.513,874.801 994.910,855.542 851.810,847.859 849.848,867.984 " />
<polygon stroke="black" stroke-width="1" fill="rgb(204, 204, 204)" fill-opacity="0.25" points="997.109,792.245 998.039,766.866 861.977,753.991 859.066,781.181 " />
<polygon stroke="black" stroke-width="1" fill="rgb(204, 204, 204)" fill-opacity="0.25" points="947.248,184.562 947.720,154.003 813.928,161.186 816.600,193.125 " />
<polygon stroke="black" stroke-width="1" fill="rgb(204, 204, 204)" fill-opacity="0.25" points="946.365,9.433 945.564,0.451 796.358,0.922 797.763,10.248 " />
<polygon stroke="black" stroke-width="1" fill="rgb(204, 204, 204)" fill-opacity="0.25" points="860.596,625.764 848.850,639.540 859.477,658.008 870.038,681.365 892.180,654.797 877.086,641.321 " />
<polygon stroke="black" stroke-width="1" fill="rgb(204, 204, 204)" fill-opacity="0.25" points="1006.931,676.720 892.180,654.797 870.038,681.365 1000.589,701.855 1295.448,727.405 1286.670,697.747 " />
<polygon stroke="black" stroke-width="1" fill="rgb(204, 204, 204)" fill-opacity="0.25" points="1353.868,661.164 1352.822,659.756 1336.001,670.605 1315.863,684.665 1301.863,692.184 1286.670,697.747 1295.448,727.405 1312.959,709.973 1327.147,695.330 1343.208,675.459 " />
<polygon stroke="black" stroke-width="1" fill="rgb(204, 204, 204)" fill-opacity="0.25" points="848.340,471.408 178.287,458.162 178.232,517.244 852.819,541.691 " />
<polygon stroke="black" stroke-width="1" fill="rgb(204, 204, 204)" fill-opacity="0.25" points="847.657,447.868 855.737,380.130 181.710,380.125 177.576,438.401 " />
<polygon stroke="black" stroke-width="1" fill="rgb(204, 204, 204)" fill-opacity="0.25" points="158.196,434.460 177.576,438.401 181.710,380.125 176.953,378.437 " />
<polygon stroke="black" stroke-width="1" fill="rgb(204, 204, 204)" fill-opacity="0.25" points="180.756,368.354 181.710,380.125 855.737,380.130 856.067,368.354 " />
<polygon stroke="black" stroke-width="1" fill="rgb(204, 204, 204)" fill-opacity="0.25" points="859.281,380.236 855.737,380.130 847.657,447.868 871.139,449.656 " />
<polygon stroke="black" stroke-width="1" fill="rgb(204, 204, 204)" fill-opacity="0.25" points="848.340,471.408 847.657,447.868 177.576,438.401 178.287,458.162 " />
<polygon stroke="black" stroke-width="1" fill="rgb(204, 204, 204)" fill-opacity="0.25" points="600.603,1558.094 596.122,1628.377 1270.710,1603.958 1270.657,1544.876 " />
<polygon stroke="black" stroke-width="1" fill="rgb(204, 204, 204)" fill-opacity="0.25" points="601.288,1534.555 1271.369,1525.112 1267.237,1466.836 593.209,1466.817 " />
<polygon stroke="black" stroke-width="1" fill="rgb(204, 204, 204)" fill-opacity="0.25" points="1290.749,1521.172 1271.994,1465.148 1267.237,1466.836 1271.369,1525.112 " />
<polygon stroke="black" stroke-width="1" fill="rgb(204, 204, 204)" fill-opacity="0.25" points="1269.297,1455.051 593.161,1455.051 593.209,1466.817 1267.237,1466.836 " />
<polygon stroke="black" stroke-width="1" fill="rgb(204, 204, 204)" fill-opacity="0.25" points="589.666,1466.923 577.806,1536.342 601.288,1534.555 593.209,1466.817 " />
<polygon stroke="black" stroke-width="1" fill="rgb(204, 204, 204)" fill-opacity="0.25" points="600.603,1558.094 1270.657,1544.876 1271.369,1525.112 601.288,1534.555 " />

</svg>
