<?xml version="1.0" encoding="UTF-8" standalone="no"?>
<svg
   xmlns:dc="http://purl.org/dc/elements/1.1/"
   xmlns:cc="http://creativecommons.org/ns#"
   xmlns:rdf="http://www.w3.org/1999/02/22-rdf-syntax-ns#"
   xmlns:svg="http://www.w3.org/2000/svg"
   xmlns="http://www.w3.org/2000/svg"
   xmlns:sodipodi="http://sodipodi.sourceforge.net/DTD/sodipodi-0.dtd"
   xmlns:inkscape="http://www.inkscape.org/namespaces/inkscape"
   width="1024"
   height="512"
   viewBox="0 0 1024 512"
   version="1.1"
   id="svg60"
   sodipodi:docname="rnav.svg"
   inkscape:version="0.92.5 (2060ec1f9f, 2020-04-08)"
   inkscape:export-filename="/mnt/DATEN/blender-2.83.0-linux64/2.83/datafiles/colormanagement/filmic/fgfs-addons/Aircraft/c210-family/Models/Interior/Panel/Avionics/rnav/rnav.png"
   inkscape:export-xdpi="96"
   inkscape:export-ydpi="96">
  <metadata
     id="metadata66">
    <rdf:RDF>
      <cc:Work
         rdf:about="">
        <dc:format>image/svg+xml</dc:format>
        <dc:type
           rdf:resource="http://purl.org/dc/dcmitype/StillImage" />
      </cc:Work>
    </rdf:RDF>
  </metadata>
  <defs
     id="defs64" />
  <sodipodi:namedview
     pagecolor="#ffffff"
     bordercolor="#666666"
     borderopacity="1"
     objecttolerance="10"
     gridtolerance="10"
     guidetolerance="10"
     inkscape:pageopacity="0"
     inkscape:pageshadow="2"
     inkscape:window-width="1362"
     inkscape:window-height="706"
     id="namedview62"
     showgrid="false"
     inkscape:zoom="1"
     inkscape:cx="518.39962"
     inkscape:cy="268.76619"
     inkscape:window-x="0"
     inkscape:window-y="0"
     inkscape:window-maximized="1"
     inkscape:current-layer="svg60" />
  <desc
     id="desc2">rnav.blend, (Blender 2.83.0)</desc>
  <g
     id="Face"
     style="fill:#000000;stroke:#ffffff">
    <polygon
       id="polygon4"
       points="576,304 944,304 960,208 640,208 384,208 64,208 80,304 448,304 "
       style="fill:#000000;fill-opacity:1;stroke:#000000;stroke-width:1" />
    <polygon
       id="polygon6"
       points="944,448 576,448 448,448 80,448 0,512 1024,512 "
       style="fill:#000000;fill-opacity:1;stroke:#000000;stroke-width:1" />
    <polygon
       id="polygon8"
       points="960,80 960,208 944,304 944,448 1024,512 1024,0 "
       style="fill:#000000;fill-opacity:1;stroke:#000000;stroke-width:1" />
    <polygon
       id="polygon10"
       points="640,208 640,80 624,144 623.757,146.778 623.035,149.472 621.856,152 620.257,154.285 618.285,156.257 616,157.856 613.472,159.035 610.779,159.757 608,160 605.222,159.757 602.528,159.035 600,157.856 597.715,156.257 595.743,154.285 594.144,152 592.965,149.472 592.243,146.778 592,144 432,144 431.757,146.778 431.035,149.472 429.856,152 428.257,154.285 426.285,156.257 424,157.856 421.472,159.035 418.778,159.757 416,160 413.222,159.757 410.528,159.035 408,157.856 405.715,156.257 403.743,154.285 402.144,152 400.965,149.472 400.243,146.778 400,144 384,80 384,208 "
       style="fill:#000000;fill-opacity:1;stroke:#000000;stroke-width:1" />
    <polygon
       id="polygon12"
       points="509.222,80 506.528,79.035 504,77.856 501.715,76.257 499.743,74.285 498.144,72 496.965,69.472 496.243,66.778 496,64 496.243,61.222 496.965,58.528 498.144,56 499.743,53.715 501.715,51.743 504,50.144 506.528,48.965 509.222,48.243 512,48 514.778,48.243 517.472,48.965 520,50.144 522.285,51.743 524.257,53.715 525.856,56 527.035,58.528 527.757,61.222 528,64 527.757,66.778 527.035,69.472 525.856,72 524.257,74.285 522.285,76.257 520,77.856 517.472,79.035 514.778,80 640,80 960,80 1024,0 0,0 64,80 384,80 "
       style="fill:#000000;fill-opacity:1;stroke:#000000;stroke-width:1" />
    <polygon
       id="polygon14"
       points="0,512 80,448 80,304 64,208 64,80 0,0 "
       style="fill:#000000;fill-opacity:1;stroke:#000000;stroke-width:1" />
    <polygon
       id="polygon16"
       points="496,368 496.243,365.222 496.965,362.528 498.144,360 499.743,357.715 501.715,355.743 504,354.144 506.528,352.965 509.222,352.243 512,352 514.778,352.243 517.472,352.965 520,354.144 522.285,355.743 524.257,357.715 525.856,360 527.035,362.528 527.757,365.222 528,368 576,304 448,304 "
       style="fill:#000000;fill-opacity:1;stroke:#000000;stroke-width:1" />
    <polygon
       id="polygon18"
       points="64,80 64,80 384,80 "
       style="fill:#000000;fill-opacity:1;stroke:#000000;stroke-width:1" />
    <polygon
       id="polygon20"
       points="64,208 64,208 64,80 "
       style="fill:#000000;fill-opacity:1;stroke:#000000;stroke-width:1" />
    <polygon
       id="polygon22"
       points="384,208 384,208 64,208 "
       style="fill:#000000;fill-opacity:1;stroke:#000000;stroke-width:1" />
    <polygon
       id="polygon24"
       points="384,80 384,80 384,208 "
       style="fill:#000000;fill-opacity:1;stroke:#000000;stroke-width:1" />
    <polygon
       id="polygon26"
       points="640,208 640,208 640,80 "
       style="fill:#000000;fill-opacity:1;stroke:#000000;stroke-width:1" />
    <polygon
       id="polygon28"
       points="960,208 960,208 640,208 "
       style="fill:#000000;fill-opacity:1;stroke:#000000;stroke-width:1" />
    <polygon
       id="polygon30"
       points="960,80 960,80 960,208 "
       style="fill:#000000;fill-opacity:1;stroke:#000000;stroke-width:1" />
    <polygon
       id="polygon32"
       points="640,80 640,80 960,80 "
       style="fill:#000000;fill-opacity:1;stroke:#000000;stroke-width:1" />
    <polygon
       id="polygon34"
       points="448,448 448,448 80,448 "
       style="fill:#000000;fill-opacity:1;stroke:#000000;stroke-width:1" />
    <polygon
       id="polygon36"
       points="448,304 448,304 448,448 "
       style="fill:#000000;fill-opacity:1;stroke:#000000;stroke-width:1" />
    <polygon
       id="polygon38"
       points="576,448 576,448 576,304 "
       style="fill:#000000;fill-opacity:1;stroke:#000000;stroke-width:1" />
    <polygon
       id="polygon40"
       points="944,448 944,448 576,448 "
       style="fill:#000000;fill-opacity:1;stroke:#000000;stroke-width:1" />
    <polygon
       id="polygon42"
       points="80,448 80,448 80,304 "
       style="fill:#000000;fill-opacity:1;stroke:#000000;stroke-width:1" />
    <polygon
       id="polygon44"
       points="944,304 944,304 944,448 "
       style="fill:#000000;fill-opacity:1;stroke:#000000;stroke-width:1" />
    <polygon
       id="polygon46"
       points="576,304 576,304 944,304 "
       style="fill:#000000;fill-opacity:1;stroke:#000000;stroke-width:1" />
    <polygon
       id="polygon48"
       points="80,304 80,304 448,304 "
       style="fill:#000000;fill-opacity:1;stroke:#000000;stroke-width:1" />
    <polygon
       id="polygon54"
       points="528,368 527.757,370.778 527.035,373.472 525.856,376 524.257,378.285 522.285,380.257 520,381.856 517.472,383.035 514.778,383.757 512,384 509.222,383.757 506.528,383.035 504,381.856 501.715,380.257 499.743,378.285 498.144,376 496.965,373.472 496.243,370.778 496,368 448,304 448,448 576,448 576,304 "
       style="fill:#000000;fill-opacity:1;stroke:#000000;stroke-width:1" />
    <polygon
       id="polygon56"
       points="496.965,373.472 498.144,376 499.743,378.285 501.715,380.257 504,381.856 506.528,383.035 509.222,383.757 512,384 514.778,383.757 517.472,383.035 520,381.856 522.285,380.257 524.257,378.285 525.856,376 527.035,373.472 527.757,370.778 528,368 527.757,365.222 527.035,362.528 525.856,360 524.257,357.715 522.285,355.743 520,354.144 517.472,352.965 514.778,352.243 512,352 509.222,352.243 506.528,352.965 504,354.144 501.715,355.743 499.743,357.715 498.144,360 496.965,362.528 496.243,365.222 496,368 496.243,370.778 "
       style="fill:#000000;fill-opacity:1;stroke:#ffffff;stroke-width:5;stroke-miterlimit:4;stroke-dasharray:none" />
    <polygon
       id="polygon58"
       points="592,144 592.243,141.222 592.965,138.528 594.144,136 595.743,133.715 597.715,131.743 600,130.144 602.528,128.965 605.222,128.243 608,128 610.779,128.243 613.472,128.965 616,130.144 618.285,131.743 620.257,133.715 621.856,136 623.035,138.528 623.757,141.222 624,144 640,80 514.778,80 509.222,80 384,80 400,144 400.243,141.222 400.965,138.528 402.144,136 403.743,133.715 405.715,131.743 408,130.144 410.528,128.965 413.222,128.243 416,128 418.778,128.243 421.472,128.965 424,130.144 426.285,131.743 428.257,133.715 429.856,136 431.035,138.528 431.757,141.222 432,144 "
       style="fill:#000000;fill-opacity:1;stroke:#000000;stroke-width:1" />
    <polygon
       id="polygon50"
       points="431.035,138.528 429.856,136 428.257,133.715 426.285,131.743 424,130.144 421.472,128.965 418.778,128.243 416,128 413.222,128.243 410.528,128.965 408,130.144 405.715,131.743 403.743,133.715 402.144,136 400.965,138.528 400.243,141.222 400,144 400.243,146.778 400.965,149.472 402.144,152 403.743,154.285 405.715,156.257 408,157.856 410.528,159.035 413.222,159.757 416,160 418.778,159.757 421.472,159.035 424,157.856 426.285,156.257 428.257,154.285 429.856,152 431.035,149.472 431.757,146.778 432,144 431.757,141.222 "
       style="fill:#000000;fill-opacity:1;stroke:#ffffff;stroke-width:5;stroke-miterlimit:4;stroke-dasharray:none" />
    <polygon
       id="polygon52"
       points="623.035,138.528 621.856,136 620.257,133.715 618.285,131.743 616,130.144 613.472,128.965 610.779,128.243 608,128 605.222,128.243 602.528,128.965 600,130.144 597.715,131.743 595.743,133.715 594.144,136 592.965,138.528 592.243,141.222 592,144 592.243,146.778 592.965,149.472 594.144,152 595.743,154.285 597.715,156.257 600,157.856 602.528,159.035 605.222,159.757 608,160 610.779,159.757 613.472,159.035 616,157.856 618.285,156.257 620.257,154.285 621.856,152 623.035,149.472 623.757,146.778 624,144 623.757,141.222 "
       style="fill:#000000;fill-opacity:1;stroke:#ffffff;stroke-width:5;stroke-miterlimit:4;stroke-dasharray:none" />
  </g>
  <text
     xml:space="preserve"
     style="font-style:normal;font-variant:normal;font-weight:bold;font-stretch:normal;font-size:32px;line-height:1.25;font-family:Ubuntu;-inkscape-font-specification:'Ubuntu Bold';text-align:center;text-anchor:middle;opacity:1;fill:#ffffff;fill-opacity:1;fill-rule:nonzero;stroke:#ffffff;stroke-width:1;stroke-linecap:butt;stroke-linejoin:miter;stroke-miterlimit:4;stroke-dasharray:none;stroke-dashoffset:0;stroke-opacity:0.99285715;paint-order:normal"
     x="511.83997"
     y="31"
     id="text968"><tspan
       sodipodi:role="line"
       id="tspan966"
       x="511.83997"
       y="31">400 RNAV</tspan></text>
  <g
     id="g935">
    <text
       id="text925"
       y="137.86501"
       x="443.58835"
       style="font-style:normal;font-variant:normal;font-weight:normal;font-stretch:normal;font-size:26.66666603px;line-height:1.25;font-family:'Ubuntu Condensed';-inkscape-font-specification:'Ubuntu Condensed, ';text-align:center;text-anchor:middle;opacity:1;fill:#ffffff;fill-opacity:1;fill-rule:nonzero;stroke:#ffffff;stroke-width:1;stroke-linecap:butt;stroke-linejoin:miter;stroke-miterlimit:4;stroke-dasharray:none;stroke-dashoffset:0;stroke-opacity:0.99285715;paint-order:normal"
       xml:space="preserve"><tspan
         y="137.86501"
         x="443.58835"
         id="tspan923"
         sodipodi:role="line">1</tspan></text>
    <text
       id="text929"
       y="168.61501"
       x="442.72168"
       style="font-style:normal;font-variant:normal;font-weight:normal;font-stretch:normal;font-size:26.66666603px;line-height:1.25;font-family:'Ubuntu Condensed';-inkscape-font-specification:'Ubuntu Condensed, ';text-align:center;text-anchor:middle;opacity:1;fill:#ffffff;fill-opacity:1;fill-rule:nonzero;stroke:#ffffff;stroke-width:1;stroke-linecap:butt;stroke-linejoin:miter;stroke-miterlimit:4;stroke-dasharray:none;stroke-dashoffset:0;stroke-opacity:0.99285715;paint-order:normal"
       xml:space="preserve"><tspan
         y="168.61501"
         x="442.72168"
         id="tspan927"
         sodipodi:role="line">2</tspan></text>
  </g>
  <g
     id="g946">
    <text
       id="text905"
       y="335.91367"
       x="511.28"
       style="font-style:normal;font-variant:normal;font-weight:normal;font-stretch:normal;font-size:26.66666603px;line-height:1.25;font-family:'Ubuntu Condensed';-inkscape-font-specification:'Ubuntu Condensed, ';text-align:center;text-anchor:middle;opacity:1;fill:#ffffff;fill-opacity:1;fill-rule:nonzero;stroke:#ffffff;stroke-width:1;stroke-linecap:butt;stroke-linejoin:miter;stroke-miterlimit:4;stroke-dasharray:none;stroke-dashoffset:0;stroke-opacity:0.99285715;paint-order:normal"
       xml:space="preserve"><tspan
         y="335.91367"
         x="511.28"
         id="tspan903"
         sodipodi:role="line">ENR</tspan></text>
    <text
       xml:space="preserve"
       style="font-style:normal;font-variant:normal;font-weight:normal;font-stretch:normal;font-size:26.66666603px;line-height:1.25;font-family:'Ubuntu Condensed';-inkscape-font-specification:'Ubuntu Condensed, ';text-align:center;text-anchor:middle;opacity:1;fill:#ffffff;fill-opacity:1;fill-rule:nonzero;stroke:#ffffff;stroke-width:1;stroke-linecap:butt;stroke-linejoin:miter;stroke-miterlimit:4;stroke-dasharray:none;stroke-dashoffset:0;stroke-opacity:0.99285715;paint-order:normal"
       x="512.13336"
       y="418.75302"
       id="text909"><tspan
         id="tspan911"
         sodipodi:role="line"
         x="512.13336"
         y="418.75302">APPR</tspan></text>
  </g>
  <g
     id="g956"
     transform="translate(136.8233)">
    <text
       xml:space="preserve"
       style="font-style:normal;font-variant:normal;font-weight:normal;font-stretch:normal;font-size:26.66666603px;line-height:1.25;font-family:'Ubuntu Condensed';-inkscape-font-specification:'Ubuntu Condensed, ';text-align:center;text-anchor:middle;opacity:1;fill:#ffffff;fill-opacity:1;fill-rule:nonzero;stroke:#ffffff;stroke-width:1;stroke-linecap:butt;stroke-linejoin:miter;stroke-miterlimit:4;stroke-dasharray:none;stroke-dashoffset:0;stroke-opacity:0.99285715;paint-order:normal"
       x="443.58835"
       y="137.86501"
       id="text950"><tspan
         sodipodi:role="line"
         id="tspan948"
         x="443.58835"
         y="137.86501">1</tspan></text>
    <text
       xml:space="preserve"
       style="font-style:normal;font-variant:normal;font-weight:normal;font-stretch:normal;font-size:26.66666603px;line-height:1.25;font-family:'Ubuntu Condensed';-inkscape-font-specification:'Ubuntu Condensed, ';text-align:center;text-anchor:middle;opacity:1;fill:#ffffff;fill-opacity:1;fill-rule:nonzero;stroke:#ffffff;stroke-width:1;stroke-linecap:butt;stroke-linejoin:miter;stroke-miterlimit:4;stroke-dasharray:none;stroke-dashoffset:0;stroke-opacity:0.99285715;paint-order:normal"
       x="442.72168"
       y="168.61501"
       id="text954"><tspan
         sodipodi:role="line"
         id="tspan952"
         x="442.72168"
         y="168.61501">2</tspan></text>
  </g>
  <text
     xml:space="preserve"
     style="font-style:normal;font-variant:normal;font-weight:normal;font-stretch:normal;font-size:26.66666603px;line-height:1.25;font-family:'Ubuntu Condensed';-inkscape-font-specification:'Ubuntu Condensed, ';text-align:center;text-anchor:middle;opacity:1;fill:#ffffff;fill-opacity:1;fill-rule:nonzero;stroke:#ffffff;stroke-width:1;stroke-linecap:butt;stroke-linejoin:miter;stroke-miterlimit:4;stroke-dasharray:none;stroke-dashoffset:0;stroke-opacity:0.99285715;paint-order:normal"
     x="511.21332"
     y="225.25333"
     id="text960"><tspan
       sodipodi:role="line"
       x="511.21332"
       y="225.25333"
       id="tspan980">XFER</tspan></text>
  <text
     xml:space="preserve"
     style="font-style:normal;font-variant:normal;font-weight:normal;font-stretch:normal;font-size:26.66666603px;line-height:1.25;font-family:'Ubuntu Condensed';-inkscape-font-specification:'Ubuntu Condensed, ';text-align:center;text-anchor:middle;opacity:1;fill:#ffffff;fill-opacity:1;fill-rule:nonzero;stroke:#ffffff;stroke-width:1;stroke-linecap:butt;stroke-linejoin:miter;stroke-miterlimit:4;stroke-dasharray:none;stroke-dashoffset:0;stroke-opacity:0.99285715;paint-order:normal"
     x="606.91998"
     y="87.986664"
     id="text964"><tspan
       sodipodi:role="line"
       id="tspan962"
       x="606.91998"
       y="87.986664">FLY</tspan></text>
  <text
     xml:space="preserve"
     style="font-style:normal;font-variant:normal;font-weight:bold;font-stretch:normal;font-size:32px;line-height:1.25;font-family:'Ubuntu Condensed';-inkscape-font-specification:'Ubuntu Condensed,  Bold';text-align:center;text-anchor:middle;opacity:1;fill:#ffffff;fill-opacity:1;fill-rule:nonzero;stroke:#ffffff;stroke-width:1;stroke-linecap:butt;stroke-linejoin:miter;stroke-miterlimit:4;stroke-dasharray:none;stroke-dashoffset:0;stroke-opacity:0.99285715;paint-order:normal"
     x="219.64677"
     y="267.08801"
     id="text974"><tspan
       sodipodi:role="line"
       id="tspan972"
       x="219.64677"
       y="267.08801">BEARING</tspan></text>
  <text
     xml:space="preserve"
     style="font-style:normal;font-variant:normal;font-weight:bold;font-stretch:normal;font-size:32px;line-height:1.25;font-family:'Ubuntu Condensed';-inkscape-font-specification:'Ubuntu Condensed,  Bold';text-align:center;text-anchor:middle;opacity:1;fill:#ffffff;fill-opacity:1;fill-rule:nonzero;stroke:#ffffff;stroke-width:1;stroke-linecap:butt;stroke-linejoin:miter;stroke-miterlimit:4;stroke-dasharray:none;stroke-dashoffset:0;stroke-opacity:0.99285715;paint-order:normal"
     x="798.84924"
     y="267.104"
     id="text978"><tspan
       sodipodi:role="line"
       id="tspan976"
       x="798.84924"
       y="267.104">DISTANCE</tspan></text>
</svg>
