<?xml version="1.0" encoding="UTF-8" standalone="no"?>
<svg
   xmlns:dc="http://purl.org/dc/elements/1.1/"
   xmlns:cc="http://creativecommons.org/ns#"
   xmlns:rdf="http://www.w3.org/1999/02/22-rdf-syntax-ns#"
   xmlns:svg="http://www.w3.org/2000/svg"
   xmlns="http://www.w3.org/2000/svg"
   xmlns:xlink="http://www.w3.org/1999/xlink"
   xmlns:sodipodi="http://sodipodi.sourceforge.net/DTD/sodipodi-0.dtd"
   xmlns:inkscape="http://www.inkscape.org/namespaces/inkscape"
   width="256"
   height="256"
   viewBox="0 0 256 256"
   version="1.1"
   id="svg1265"
   sodipodi:docname="fuel-selector.svg"
   inkscape:version="0.92.5 (2060ec1f9f, 2020-04-08)"
   inkscape:export-filename="/mnt/DATEN/blender-2.83.0-linux64/2.83/datafiles/colormanagement/filmic/fgfs-addons/Aircraft/c210-family/Models/Interior/Panel/Controls/fuel-selector/fuel-selector.png"
   inkscape:export-xdpi="192"
   inkscape:export-ydpi="192">
  <metadata
     id="metadata1271">
    <rdf:RDF>
      <cc:Work
         rdf:about="">
        <dc:format>image/svg+xml</dc:format>
        <dc:type
           rdf:resource="http://purl.org/dc/dcmitype/StillImage" />
      </cc:Work>
    </rdf:RDF>
  </metadata>
  <defs
     id="defs1269">
    <inkscape:path-effect
       effect="spiro"
       id="path-effect1773"
       is_visible="true" />
    <inkscape:path-effect
       effect="spiro"
       id="path-effect1769"
       is_visible="true" />
    <inkscape:path-effect
       effect="spiro"
       id="path-effect1765"
       is_visible="true" />
    <inkscape:path-effect
       effect="spiro"
       id="path-effect1761"
       is_visible="true" />
    <inkscape:path-effect
       effect="spiro"
       id="path-effect1757"
       is_visible="true" />
    <inkscape:path-effect
       effect="spiro"
       id="path-effect1753"
       is_visible="true" />
    <inkscape:path-effect
       effect="spiro"
       id="path-effect1735"
       is_visible="true" />
    <marker
       inkscape:stockid="Arrow2Mend"
       orient="auto"
       refY="0.0"
       refX="0.0"
       id="Arrow2Mend"
       style="overflow:visible;"
       inkscape:isstock="true">
      <path
         id="path1436"
         style="fill-rule:evenodd;stroke-width:0.625;stroke-linejoin:round;stroke:#000000;stroke-opacity:1;fill:#000000;fill-opacity:1"
         d="M 8.7185878,4.0337352 L -2.2072895,0.016013256 L 8.7185884,-4.0017078 C 6.9730900,-1.6296469 6.9831476,1.6157441 8.7185878,4.0337352 z "
         transform="scale(0.6) rotate(180) translate(0,0)" />
    </marker>
    <inkscape:path-effect
       effect="spiro"
       id="path-effect1391"
       is_visible="true" />
    <inkscape:path-effect
       effect="spiro"
       id="path-effect1387"
       is_visible="true" />
    <inkscape:path-effect
       effect="spiro"
       id="path-effect1383"
       is_visible="true" />
    <inkscape:path-effect
       is_visible="true"
       id="path-effect1374"
       effect="spiro" />
    <inkscape:path-effect
       effect="spiro"
       id="path-effect1368"
       is_visible="true" />
  </defs>
  <sodipodi:namedview
     pagecolor="#ffffff"
     bordercolor="#666666"
     borderopacity="1"
     objecttolerance="10"
     gridtolerance="10"
     guidetolerance="10"
     inkscape:pageopacity="0"
     inkscape:pageshadow="2"
     inkscape:window-width="1362"
     inkscape:window-height="706"
     id="namedview1267"
     showgrid="false"
     inkscape:zoom="2.6074563"
     inkscape:cx="117.52001"
     inkscape:cy="158.24451"
     inkscape:window-x="0"
     inkscape:window-y="0"
     inkscape:window-maximized="1"
     inkscape:current-layer="Plate"
     inkscape:object-paths="true"
     inkscape:snap-smooth-nodes="true"
     inkscape:snap-intersection-paths="true"
     inkscape:snap-midpoints="true"
     inkscape:snap-object-midpoints="true"
     inkscape:snap-center="true" />
  <desc
     id="desc1085">fuel-selector.blend, (Blender 2.83.0)</desc>
  <g
     id="Plate">
    <polygon
       id="polygon1087"
       points="131.678,20.267 123.91,20.263 123.886,66.851 131.651,66.857 "
       style="fill:#0d0d0d;fill-opacity:1;stroke:#0d0d0d;stroke-width:1;stroke-opacity:1" />
    <polygon
       id="polygon1089"
       points="124.406,129.092 122.874,128.404 121.489,127.472 120.294,126.323 119.325,124.992 118.611,123.52 118.174,121.951 118.028,120.333 0.023,86.145 10.596,159.729 19.03,178.551 35.09,192.457 54.928,198.136 199.687,198.136 219.578,192.482 235.811,178.597 244.471,159.817 255.945,86.204 137.433,120.347 137.285,121.965 136.846,123.533 136.13,125.004 135.159,126.334 133.962,127.481 132.576,128.411 131.043,129.096 129.409,129.516 127.724,129.656 126.039,129.513 "
       style="fill:#e6e6e6;fill-opacity:1;stroke:#e6e6e6;stroke-width:1" />
    <polygon
       id="polygon1091"
       points="131.651,66.857 123.886,66.851 46.251,66.801 0.023,86.145 255.945,86.204 209.277,66.909 "
       style="fill:#0d0d0d;fill-opacity:1;stroke:#0d0d0d;stroke-width:1;stroke-opacity:1" />
    <polygon
       id="polygon1093"
       points="123.91,20.263 131.678,20.267 209.308,20.32 250.23,19.758 236.236,5.762 217.19,0.023 38.893,0.131 19.839,5.903 5.826,19.922 46.283,20.208 "
       style="fill:#0d0d0d;fill-opacity:1;stroke:#0d0d0d;stroke-width:1;stroke-opacity:1" />
    <polygon
       id="polygon1095"
       points="255.945,86.204 255.977,38.801 250.23,19.758 209.308,20.32 209.277,66.909 "
       style="fill:#0d0d0d;fill-opacity:1;stroke:#0d0d0d;stroke-width:1;stroke-opacity:1" />
    <polygon
       id="polygon1097"
       points="46.283,20.208 5.826,19.922 0.053,38.982 0.023,86.145 46.251,66.801 "
       style="fill:#0d0d0d;fill-opacity:1;stroke:#0d0d0d;stroke-width:1;stroke-opacity:1" />
    <polygon
       id="polygon1099"
       points="118.028,120.333 118.177,118.716 118.616,117.148 119.332,115.677 120.303,114.348 121.5,113.201 122.886,112.27 124.419,111.585 126.052,111.166 127.735,111.026 129.42,111.168 131.053,111.59 132.586,112.277 133.971,113.209 135.167,114.358 136.136,115.689 136.85,117.161 137.287,118.73 137.433,120.347 255.945,86.204 0.023,86.145 "
       style="fill:#e6e6e6;fill-opacity:1;stroke:#e6e6e6;stroke-width:1;stroke-opacity:1" />
    <path
       style="opacity:1;fill:#0d0d0d;fill-opacity:1;fill-rule:nonzero;stroke:#0d0d0d;stroke-width:2;stroke-linecap:butt;stroke-linejoin:miter;stroke-miterlimit:4;stroke-dasharray:none;stroke-dashoffset:0;stroke-opacity:1;paint-order:normal"
       d="M 255.945,86.204 127.984,103.246 0.023,86.145 Z"
       id="path1403"
       inkscape:connector-curvature="0" />
    <path
       style="opacity:1;fill:#00ffff;fill-opacity:1;fill-rule:nonzero;stroke:#e6e6e6;stroke-width:5;stroke-linecap:round;stroke-linejoin:miter;stroke-miterlimit:4;stroke-dasharray:none;stroke-dashoffset:0;stroke-opacity:1;paint-order:normal"
       d="m 122.10147,198.136 h 9.99537"
       id="path1685"
       inkscape:connector-curvature="0" />
  </g>
  <g
     id="Handle"
     style="stroke:#000000;fill:#000000">
    <polygon
       id="polygon1101"
       points="181.333,200 181.333,200 256,212.25 "
       style="fill:#000000;fill-opacity:1;stroke:#000000;stroke-width:1" />
    <polygon
       id="polygon1103"
       points="32,231.5 32,231.5 32,224.5 "
       style="fill:#000000;fill-opacity:1;stroke:#000000;stroke-width:1" />
    <polygon
       id="polygon1105"
       points="181.333,256 181.333,256 106.667,243.75 "
       style="fill:#000000;fill-opacity:1;stroke:#000000;stroke-width:1" />
    <polygon
       id="polygon1107"
       points="106.667,239.605 181.333,251.855 181.333,204.145 106.667,216.395 "
       style="fill:#000000;fill-opacity:1;stroke:#000000;stroke-width:1" />
    <polygon
       id="polygon1109"
       points="181.333,251.855 251.645,240.319 251.645,215.681 181.333,204.145 "
       style="fill:#000000;fill-opacity:1;stroke:#000000;stroke-width:1" />
    <polygon
       id="polygon1111"
       points="256,212.25 256,212.25 256,243.75 "
       style="fill:#000000;fill-opacity:1;stroke:#000000;stroke-width:1" />
    <polygon
       id="polygon1113"
       points="256,243.75 256,243.75 181.333,256 "
       style="fill:#000000;fill-opacity:1;stroke:#000000;stroke-width:1" />
    <polygon
       id="polygon1115"
       points="106.667,212.25 106.667,212.25 181.333,200 "
       style="fill:#000000;fill-opacity:1;stroke:#000000;stroke-width:1" />
    <polygon
       id="polygon1117"
       points="106.667,216.395 106.667,239.605 36.356,228.069 36.356,227.931 "
       style="fill:#000000;fill-opacity:1;stroke:#000000;stroke-width:1" />
    <polygon
       id="polygon1119"
       points="36.356,228.069 106.667,239.605 106.667,216.395 36.356,227.931 "
       style="fill:#000000;fill-opacity:1;stroke:#000000;stroke-width:1" />
    <polygon
       id="polygon1121"
       points="181.333,204.145 181.333,210.5 178.092,210.766 174.949,211.555 172,212.845 169.335,214.594 167.034,216.751 165.168,219.25 163.792,222.015 162.95,224.961 162.667,228 162.95,231.039 163.792,233.985 165.168,236.75 167.034,239.249 169.335,241.406 172,243.155 174.949,244.445 178.092,245.234 181.333,245.5 181.333,251.855 106.667,239.605 106.667,216.395 "
       style="fill:#000000;fill-opacity:1;stroke:#000000;stroke-width:1" />
    <polygon
       id="polygon1123"
       points="251.645,215.681 251.645,240.319 181.333,251.855 181.333,245.5 184.575,245.234 187.718,244.445 190.667,243.155 193.332,241.406 195.633,239.249 197.499,236.75 198.874,233.985 199.716,231.039 200,228 199.716,224.961 198.874,222.015 197.499,219.25 195.633,216.751 193.332,214.594 190.667,212.845 187.718,211.555 184.575,210.766 181.333,210.5 181.333,204.145 "
       style="fill:#000000;fill-opacity:1;stroke:#000000;stroke-width:1" />
    <polygon
       id="polygon1125"
       points="106.667,243.75 106.667,243.75 32,231.5 "
       style="fill:#000000;fill-opacity:1;stroke:#000000;stroke-width:1" />
    <polygon
       id="polygon1127"
       points="200,228 199.716,231.039 199.716,231.039 200,228 "
       style="fill:#000000;fill-opacity:1;stroke:#000000;stroke-width:1" />
    <polygon
       id="polygon1129"
       points="199.716,231.039 198.874,233.985 198.874,233.985 199.716,231.039 "
       style="fill:#000000;fill-opacity:1;stroke:#000000;stroke-width:1" />
    <polygon
       id="polygon1131"
       points="198.874,233.985 197.499,236.75 197.499,236.75 198.874,233.985 "
       style="fill:#000000;fill-opacity:1;stroke:#000000;stroke-width:1" />
    <polygon
       id="polygon1133"
       points="197.499,236.75 195.633,239.249 195.633,239.249 197.499,236.75 "
       style="fill:#000000;fill-opacity:1;stroke:#000000;stroke-width:1" />
    <polygon
       id="polygon1135"
       points="195.633,239.249 193.332,241.406 193.332,241.406 195.633,239.249 "
       style="fill:#000000;fill-opacity:1;stroke:#000000;stroke-width:1" />
    <polygon
       id="polygon1137"
       points="193.332,241.406 190.667,243.155 190.667,243.155 193.332,241.406 "
       style="fill:#000000;fill-opacity:1;stroke:#000000;stroke-width:1" />
    <polygon
       id="polygon1139"
       points="190.667,243.155 187.718,244.445 187.718,244.445 190.667,243.155 "
       style="fill:#000000;fill-opacity:1;stroke:#000000;stroke-width:1" />
    <polygon
       id="polygon1141"
       points="187.718,244.445 184.575,245.234 184.575,245.234 187.718,244.445 "
       style="fill:#000000;fill-opacity:1;stroke:#000000;stroke-width:1" />
    <polygon
       id="polygon1143"
       points="184.575,245.234 181.333,245.5 181.333,245.5 184.575,245.234 "
       style="fill:#000000;fill-opacity:1;stroke:#000000;stroke-width:1" />
    <polygon
       id="polygon1145"
       points="181.333,245.5 178.092,245.234 178.092,245.234 181.333,245.5 "
       style="fill:#000000;fill-opacity:1;stroke:#000000;stroke-width:1" />
    <polygon
       id="polygon1147"
       points="178.092,245.234 174.949,244.445 174.949,244.445 178.092,245.234 "
       style="fill:#000000;fill-opacity:1;stroke:#000000;stroke-width:1" />
    <polygon
       id="polygon1149"
       points="174.949,244.445 172,243.155 172,243.155 174.949,244.445 "
       style="fill:#000000;fill-opacity:1;stroke:#000000;stroke-width:1" />
    <polygon
       id="polygon1151"
       points="172,243.155 169.335,241.406 169.335,241.406 172,243.155 "
       style="fill:#000000;fill-opacity:1;stroke:#000000;stroke-width:1" />
    <polygon
       id="polygon1153"
       points="169.335,241.406 167.034,239.249 167.034,239.249 169.335,241.406 "
       style="fill:#000000;fill-opacity:1;stroke:#000000;stroke-width:1" />
    <polygon
       id="polygon1155"
       points="167.034,239.249 165.168,236.75 165.168,236.75 167.034,239.249 "
       style="fill:#000000;fill-opacity:1;stroke:#000000;stroke-width:1" />
    <polygon
       id="polygon1157"
       points="165.168,236.75 163.792,233.985 163.792,233.985 165.168,236.75 "
       style="fill:#000000;fill-opacity:1;stroke:#000000;stroke-width:1" />
    <polygon
       id="polygon1159"
       points="163.792,233.985 162.95,231.039 162.95,231.039 163.792,233.985 "
       style="fill:#000000;fill-opacity:1;stroke:#000000;stroke-width:1" />
    <polygon
       id="polygon1161"
       points="162.95,231.039 162.667,228 162.667,228 162.95,231.039 "
       style="fill:#000000;fill-opacity:1;stroke:#000000;stroke-width:1" />
    <polygon
       id="polygon1163"
       points="162.667,228 162.95,224.961 162.95,224.961 162.667,228 "
       style="fill:#000000;fill-opacity:1;stroke:#000000;stroke-width:1" />
    <polygon
       id="polygon1165"
       points="162.95,224.961 163.792,222.015 163.792,222.015 162.95,224.961 "
       style="fill:#000000;fill-opacity:1;stroke:#000000;stroke-width:1" />
    <polygon
       id="polygon1167"
       points="163.792,222.015 165.168,219.25 165.168,219.25 163.792,222.015 "
       style="fill:#000000;fill-opacity:1;stroke:#000000;stroke-width:1" />
    <polygon
       id="polygon1169"
       points="165.168,219.25 167.034,216.751 167.034,216.751 165.168,219.25 "
       style="fill:#000000;fill-opacity:1;stroke:#000000;stroke-width:1" />
    <polygon
       id="polygon1171"
       points="167.034,216.751 169.335,214.594 169.335,214.594 167.034,216.751 "
       style="fill:#000000;fill-opacity:1;stroke:#000000;stroke-width:1" />
    <polygon
       id="polygon1173"
       points="169.335,214.594 172,212.845 172,212.845 169.335,214.594 "
       style="fill:#000000;fill-opacity:1;stroke:#000000;stroke-width:1" />
    <polygon
       id="polygon1175"
       points="172,212.845 174.949,211.555 174.949,211.555 172,212.845 "
       style="fill:#000000;fill-opacity:1;stroke:#000000;stroke-width:1" />
    <polygon
       id="polygon1177"
       points="174.949,211.555 178.092,210.766 178.092,210.766 174.949,211.555 "
       style="fill:#000000;fill-opacity:1;stroke:#000000;stroke-width:1" />
    <polygon
       id="polygon1179"
       points="178.092,210.766 181.333,210.5 181.333,210.5 178.092,210.766 "
       style="fill:#000000;fill-opacity:1;stroke:#000000;stroke-width:1" />
    <polygon
       id="polygon1181"
       points="181.333,210.5 184.575,210.766 184.575,210.766 181.333,210.5 "
       style="fill:#000000;fill-opacity:1;stroke:#000000;stroke-width:1" />
    <polygon
       id="polygon1183"
       points="184.575,210.766 187.718,211.555 187.718,211.555 184.575,210.766 "
       style="fill:#000000;fill-opacity:1;stroke:#000000;stroke-width:1" />
    <polygon
       id="polygon1185"
       points="187.718,211.555 190.667,212.845 190.667,212.845 187.718,211.555 "
       style="fill:#000000;fill-opacity:1;stroke:#000000;stroke-width:1" />
    <polygon
       id="polygon1187"
       points="190.667,212.845 193.332,214.594 193.332,214.594 190.667,212.845 "
       style="fill:#000000;fill-opacity:1;stroke:#000000;stroke-width:1" />
    <polygon
       id="polygon1189"
       points="193.332,214.594 195.633,216.751 195.633,216.751 193.332,214.594 "
       style="fill:#000000;fill-opacity:1;stroke:#000000;stroke-width:1" />
    <polygon
       id="polygon1191"
       points="195.633,216.751 197.499,219.25 197.499,219.25 195.633,216.751 "
       style="fill:#000000;fill-opacity:1;stroke:#000000;stroke-width:1" />
    <polygon
       id="polygon1193"
       points="197.499,219.25 198.874,222.015 198.874,222.015 197.499,219.25 "
       style="fill:#000000;fill-opacity:1;stroke:#000000;stroke-width:1" />
    <polygon
       id="polygon1195"
       points="198.874,222.015 199.716,224.961 199.716,224.961 198.874,222.015 "
       style="fill:#000000;fill-opacity:1;stroke:#000000;stroke-width:1" />
    <polygon
       id="polygon1197"
       points="199.716,224.961 200,228 200,228 199.716,224.961 "
       style="fill:#000000;fill-opacity:1;stroke:#000000;stroke-width:1" />
    <polygon
       id="polygon1199"
       points="36.356,227.931 33.276,225.505 106.667,213.464 106.667,216.395 "
       style="fill:#000000;fill-opacity:1;stroke:#000000;stroke-width:1" />
    <polygon
       id="polygon1201"
       points="33.276,225.505 32,224.5 106.667,212.25 106.667,213.464 "
       style="fill:#000000;fill-opacity:1;stroke:#000000;stroke-width:1" />
    <polygon
       id="polygon1203"
       points="36.356,228.069 33.276,230.495 33.276,225.505 36.356,227.931 "
       style="fill:#000000;fill-opacity:1;stroke:#000000;stroke-width:1" />
    <polygon
       id="polygon1205"
       points="33.276,230.495 32,231.5 32,224.5 33.276,225.505 "
       style="fill:#000000;fill-opacity:1;stroke:#000000;stroke-width:1" />
    <polygon
       id="polygon1207"
       points="251.645,240.319 254.724,242.745 181.333,254.786 181.333,251.855 "
       style="fill:#000000;fill-opacity:1;stroke:#000000;stroke-width:1" />
    <polygon
       id="polygon1209"
       points="254.724,242.745 256,243.75 181.333,256 181.333,254.786 "
       style="fill:#000000;fill-opacity:1;stroke:#000000;stroke-width:1" />
    <polygon
       id="polygon1211"
       points="251.645,215.681 254.724,213.255 254.724,242.745 251.645,240.319 "
       style="fill:#000000;fill-opacity:1;stroke:#000000;stroke-width:1" />
    <polygon
       id="polygon1213"
       points="254.724,213.255 256,212.25 256,243.75 254.724,242.745 "
       style="fill:#000000;fill-opacity:1;stroke:#000000;stroke-width:1" />
    <polygon
       id="polygon1215"
       points="181.333,204.145 181.333,201.214 254.724,213.255 251.645,215.681 "
       style="fill:#000000;fill-opacity:1;stroke:#000000;stroke-width:1" />
    <polygon
       id="polygon1217"
       points="181.333,201.214 181.333,200 256,212.25 254.724,213.255 "
       style="fill:#000000;fill-opacity:1;stroke:#000000;stroke-width:1" />
    <polygon
       id="polygon1219"
       points="106.667,216.395 106.667,213.464 181.333,201.214 181.333,204.145 "
       style="fill:#000000;fill-opacity:1;stroke:#000000;stroke-width:1" />
    <polygon
       id="polygon1221"
       points="106.667,213.464 106.667,212.25 181.333,200 181.333,201.214 "
       style="fill:#000000;fill-opacity:1;stroke:#000000;stroke-width:1" />
    <polygon
       id="polygon1223"
       points="106.667,239.605 106.667,242.536 33.276,230.495 36.356,228.069 "
       style="fill:#000000;fill-opacity:1;stroke:#000000;stroke-width:1" />
    <polygon
       id="polygon1225"
       points="106.667,242.536 106.667,243.75 32,231.5 33.276,230.495 "
       style="fill:#000000;fill-opacity:1;stroke:#000000;stroke-width:1" />
    <polygon
       id="polygon1227"
       points="181.333,251.855 181.333,254.786 106.667,242.536 106.667,239.605 "
       style="fill:#000000;fill-opacity:1;stroke:#000000;stroke-width:1" />
    <polygon
       id="polygon1229"
       points="181.333,254.786 181.333,256 106.667,243.75 106.667,242.536 "
       style="fill:#000000;fill-opacity:1;stroke:#000000;stroke-width:1" />
    <polygon
       id="polygon1231"
       points="32,224.5 33.276,225.505 106.667,213.464 106.667,212.25 "
       style="fill:#000000;fill-opacity:1;stroke:#000000;stroke-width:1" />
    <polygon
       id="polygon1233"
       points="33.276,225.505 36.356,227.931 106.667,216.395 106.667,213.464 "
       style="fill:#000000;fill-opacity:1;stroke:#000000;stroke-width:1" />
    <polygon
       id="polygon1235"
       points="32,231.5 33.276,230.495 33.276,225.505 32,224.5 "
       style="fill:#000000;fill-opacity:1;stroke:#000000;stroke-width:1" />
    <polygon
       id="polygon1237"
       points="33.276,230.495 36.356,228.069 36.356,227.931 33.276,225.505 "
       style="fill:#000000;fill-opacity:1;stroke:#000000;stroke-width:1" />
    <polygon
       id="polygon1239"
       points="256,243.75 254.724,242.745 181.333,254.786 181.333,256 "
       style="fill:#000000;fill-opacity:1;stroke:#000000;stroke-width:1" />
    <polygon
       id="polygon1241"
       points="254.724,242.745 251.645,240.319 181.333,251.855 181.333,254.786 "
       style="fill:#000000;fill-opacity:1;stroke:#000000;stroke-width:1" />
    <polygon
       id="polygon1243"
       points="256,212.25 254.724,213.255 254.724,242.745 256,243.75 "
       style="fill:#000000;fill-opacity:1;stroke:#000000;stroke-width:1" />
    <polygon
       id="polygon1245"
       points="254.724,213.255 251.645,215.681 251.645,240.319 254.724,242.745 "
       style="fill:#000000;fill-opacity:1;stroke:#000000;stroke-width:1" />
    <polygon
       id="polygon1247"
       points="181.333,200 181.333,201.214 254.724,213.255 256,212.25 "
       style="fill:#000000;fill-opacity:1;stroke:#000000;stroke-width:1" />
    <polygon
       id="polygon1249"
       points="181.333,201.214 181.333,204.145 251.645,215.681 254.724,213.255 "
       style="fill:#000000;fill-opacity:1;stroke:#000000;stroke-width:1" />
    <polygon
       id="polygon1251"
       points="106.667,212.25 106.667,213.464 181.333,201.214 181.333,200 "
       style="fill:#000000;fill-opacity:1;stroke:#000000;stroke-width:1" />
    <polygon
       id="polygon1253"
       points="106.667,213.464 106.667,216.395 181.333,204.145 181.333,201.214 "
       style="fill:#000000;fill-opacity:1;stroke:#000000;stroke-width:1" />
    <polygon
       id="polygon1255"
       points="106.667,243.75 106.667,242.536 33.276,230.495 32,231.5 "
       style="fill:#000000;fill-opacity:1;stroke:#000000;stroke-width:1" />
    <polygon
       id="polygon1257"
       points="106.667,242.536 106.667,239.605 36.356,228.069 33.276,230.495 "
       style="fill:#000000;fill-opacity:1;stroke:#000000;stroke-width:1" />
    <polygon
       id="polygon1259"
       points="181.333,256 181.333,254.786 106.667,242.536 106.667,243.75 "
       style="fill:#000000;fill-opacity:1;stroke:#000000;stroke-width:1" />
    <polygon
       id="polygon1261"
       points="181.333,254.786 181.333,251.855 106.667,239.605 106.667,242.536 "
       style="fill:#000000;fill-opacity:1;stroke:#000000;stroke-width:1" />
    <polygon
       id="polygon1263"
       points="32,224.5 32,224.5 106.667,212.25 "
       style="fill:#000000;fill-opacity:1;stroke:#000000;stroke-width:1" />
  </g>
  <path
     style="opacity:1;fill:#cccccc;fill-opacity:1;fill-rule:nonzero;stroke:#cccccc;stroke-width:0.5;stroke-linecap:butt;stroke-linejoin:miter;stroke-miterlimit:4;stroke-dasharray:none;stroke-dashoffset:0;stroke-opacity:1;paint-order:normal"
     d="m 181.333,210.5 c 4.73715,-1.2e-4 9.49003,1.72456 12.99131,4.91543 C 197.82559,218.6063 200,223.26285 200,228 c 0,4.73715 -2.17441,9.3937 -5.67569,12.58457 -3.50128,3.19087 -8.25416,4.91555 -12.99131,4.91543 -4.73698,-1.2e-4 -9.4896,-1.72493 -12.99067,-4.91578 C 164.84126,237.39338 162.667,232.73698 162.667,228 c 0,-4.73698 2.17426,-9.39338 5.67533,-12.58422 3.50107,-3.19085 8.25369,-4.91566 12.99067,-4.91578 z"
     id="path1366"
     inkscape:connector-curvature="0"
     inkscape:path-effect="#path-effect1368"
     inkscape:original-d="m 181.333,210.5 c 6.221,-5.83233 12.44567,11.66567 18.667,17.5 6.22133,5.83433 -12.44367,11.66567 -18.667,17.5 -6.22333,5.83433 -12.443,-11.66767 -18.666,-17.5 -6.223,-5.83233 12.445,-11.66767 18.666,-17.5 z" />
  <path
     style="opacity:1;fill:#ffffff;fill-opacity:1;fill-rule:nonzero;stroke:#ffffff;stroke-width:0.5;stroke-linecap:butt;stroke-linejoin:miter;stroke-miterlimit:4;stroke-dasharray:none;stroke-dashoffset:0;stroke-opacity:1;paint-order:normal"
     d="m 36.356,227.931 20.535868,3.50734 v -6.87668 z"
     id="path1370"
     inkscape:connector-curvature="0" />
  <path
     inkscape:original-d="m 181.333,210.5 c 6.221,-5.83233 12.44567,11.66567 18.667,17.5 6.22133,5.83433 -12.44367,11.66567 -18.667,17.5 -6.22333,5.83433 -12.443,-11.66767 -18.666,-17.5 -6.223,-5.83233 12.445,-11.66767 18.666,-17.5 z"
     inkscape:path-effect="#path-effect1374"
     inkscape:connector-curvature="0"
     id="path1372"
     d="m 181.333,210.5 c 4.73715,-1.2e-4 9.49003,1.72456 12.99131,4.91543 C 197.82559,218.6063 200,223.26285 200,228 c 0,4.73715 -2.17441,9.3937 -5.67569,12.58457 -3.50128,3.19087 -8.25416,4.91555 -12.99131,4.91543 -4.73698,-1.2e-4 -9.4896,-1.72493 -12.99067,-4.91578 C 164.84126,237.39338 162.667,232.73698 162.667,228 c 0,-4.73698 2.17426,-9.39338 5.67533,-12.58422 3.50107,-3.19085 8.25369,-4.91566 12.99067,-4.91578 z"
     style="opacity:1;fill:#808080;fill-opacity:1;fill-rule:nonzero;stroke:#808080;stroke-width:0.5;stroke-linecap:butt;stroke-linejoin:miter;stroke-miterlimit:4;stroke-dasharray:none;stroke-dashoffset:0;stroke-opacity:1;paint-order:normal"
     transform="matrix(0.4,0,0,0.4,108.8001,136.8)" />
  <path
     id="path1378"
     style="opacity:1;fill:#4d4d4d;fill-opacity:1;fill-rule:nonzero;stroke:#4d4d4d;stroke-width:2;stroke-linecap:butt;stroke-linejoin:miter;stroke-miterlimit:4;stroke-dasharray:none;stroke-dashoffset:0;stroke-opacity:1;paint-order:normal"
     d="m 181.33338,223.8 v 8.4 m -4.47984,-4.2 h 8.95992"
     inkscape:connector-curvature="0" />
  <path
     style="opacity:1;fill:#e6e6e6;fill-opacity:1;fill-rule:nonzero;stroke:#e6e6e6;stroke-width:2;stroke-linecap:butt;stroke-linejoin:miter;stroke-miterlimit:4;stroke-dasharray:none;stroke-dashoffset:0;stroke-opacity:1;paint-order:normal"
     d="m 127.735,111.026 c 2.24532,9.4e-4 4.49022,0.77101 6.236,2.183 2.12573,1.71929 3.46302,4.40401 3.462,7.138 -8.1e-4,2.18122 -0.83981,4.34359 -2.274,5.987 -1.84028,2.10875 -4.63618,3.32506 -7.435,3.322 -2.24502,-0.002 -4.48938,-0.77229 -6.235,-2.184 -2.12604,-1.71935 -3.46349,-4.40473 -3.461,-7.139 0.002,-2.73366 1.3441,-5.41592 3.472,-7.132 1.74677,-1.40871 3.99097,-2.17594 6.235,-2.175 z"
     id="path1389"
     inkscape:connector-curvature="0"
     inkscape:path-effect="#path-effect1391"
     inkscape:original-d="m 127.735,111.026 c 2.07733,-0.724 4.15833,1.45433 6.236,2.183 2.07767,0.72867 2.309,4.75767 3.462,7.138 1.153,2.38033 -1.515,3.99033 -2.274,5.987 -0.759,1.99667 -4.95567,2.21367 -7.435,3.322 -2.47933,1.10833 -4.15567,-1.457 -6.235,-2.184 -2.07933,-0.727 -2.30633,-4.76033 -3.461,-7.139 -1.15467,-2.37867 2.31567,-4.75567 3.472,-7.132 1.15633,-2.37633 4.15767,-1.451 6.235,-2.175 z"
     transform="matrix(1.5,0,0,1.5,-63.865249,-60.170501)" />
  <path
     style="opacity:1;fill:none;fill-opacity:1;fill-rule:nonzero;stroke:#000000;stroke-width:5;stroke-linecap:round;stroke-linejoin:miter;stroke-miterlimit:4;stroke-dasharray:none;stroke-dashoffset:0;stroke-opacity:1;paint-order:normal"
     d="m 141.76966,131.0375 -9.67282,67.0985 m -9.99537,0 -8.4135,-67.0985"
     id="path1393"
     inkscape:connector-curvature="0"
     sodipodi:nodetypes="cccc"
     inkscape:transform-center-x="0.0016838351"
     inkscape:transform-center-y="44.245747" />
  <path
     inkscape:transform-center-y="-1.638003"
     inkscape:transform-center-x="38.894123"
     sodipodi:nodetypes="cccc"
     inkscape:connector-curvature="0"
     id="path1395"
     d="m 113.68797,131.0375 -63.752468,-6.33016 v -9.99537 l 77.801748,-8.34347"
     style="opacity:1;fill:none;fill-opacity:1;fill-rule:nonzero;stroke:#000000;stroke-width:5;stroke-linecap:round;stroke-linejoin:miter;stroke-miterlimit:4;stroke-dasharray:none;stroke-dashoffset:0;stroke-opacity:1;paint-order:normal" />
  <path
     style="opacity:1;fill:none;fill-opacity:1;fill-rule:nonzero;stroke:#000000;stroke-width:5;stroke-linecap:round;stroke-linejoin:miter;stroke-miterlimit:4;stroke-dasharray:none;stroke-dashoffset:0;stroke-opacity:1;paint-order:normal"
     d="m 127.73725,106.3685 77.78825,9.60616 v 9.99537 l -63.75584,5.06747"
     id="path1407"
     inkscape:connector-curvature="0"
     sodipodi:nodetypes="cccc"
     inkscape:transform-center-x="-38.894126"
     inkscape:transform-center-y="1.637997" />
  <path
     inkscape:connector-curvature="0"
     id="path1693"
     d="m 112.09117,146.87683 15.29174,8.8287 15.79053,-9.11667"
     style="opacity:1;fill:none;fill-opacity:1;fill-rule:nonzero;stroke:#e6e6e6;stroke-width:6;stroke-linecap:square;stroke-linejoin:miter;stroke-miterlimit:4;stroke-dasharray:none;stroke-dashoffset:0;stroke-opacity:1;paint-order:normal" />
  <path
     style="opacity:1;fill:none;fill-opacity:1;fill-rule:nonzero;stroke:#e6e6e6;stroke-width:6;stroke-linecap:square;stroke-linejoin:miter;stroke-miterlimit:4;stroke-dasharray:none;stroke-dashoffset:0;stroke-opacity:1;paint-order:normal"
     d="m 112.09117,162.53977 15.29174,8.8287 15.79053,-9.11667"
     id="path1695"
     inkscape:connector-curvature="0" />
  <path
     inkscape:connector-curvature="0"
     id="path1697"
     d="m 112.09117,178.2027 15.29174,8.8287 15.79053,-9.11667"
     style="opacity:1;fill:none;fill-opacity:1;fill-rule:nonzero;stroke:#e6e6e6;stroke-width:6;stroke-linecap:square;stroke-linejoin:miter;stroke-miterlimit:4;stroke-dasharray:none;stroke-dashoffset:0;stroke-opacity:1;paint-order:normal" />
  <text
     xml:space="preserve"
     style="font-style:normal;font-variant:normal;font-weight:normal;font-stretch:normal;font-size:9.33333302px;line-height:0.89999998;font-family:Beteckna;-inkscape-font-specification:Beteckna;text-align:center;text-anchor:middle;opacity:1;fill:#ffffff;fill-opacity:1;fill-rule:nonzero;stroke:#ffffff;stroke-width:0.30000001;stroke-linecap:square;stroke-linejoin:miter;stroke-miterlimit:4;stroke-dasharray:none;stroke-dashoffset:0;stroke-opacity:1;paint-order:normal"
     x="128.59369"
     y="75.592834"
     id="text1705"><tspan
       sodipodi:role="line"
       id="tspan1703"
       x="128.59369"
       y="75.592834">TAKEOFF AND LAND</tspan><tspan
       sodipodi:role="line"
       x="128.59369"
       y="83.992836"
       id="tspan1707">ON FULLER TANK</tspan></text>
  <text
     xml:space="preserve"
     style="font-style:normal;font-variant:normal;font-weight:normal;font-stretch:normal;font-size:13.33333397px;line-height:1.14999998;font-family:Beteckna;-inkscape-font-specification:Beteckna;text-align:start;text-anchor:start;opacity:1;fill:#000000;fill-opacity:1;fill-rule:nonzero;stroke:#000000;stroke-width:0.1;stroke-linecap:square;stroke-linejoin:miter;stroke-miterlimit:4;stroke-dasharray:none;stroke-dashoffset:0;stroke-opacity:1;paint-order:normal"
     x="15.999854"
     y="110.18675"
     id="text1711"><tspan
       sodipodi:role="line"
       id="tspan1709"
       x="15.999854"
       y="110.18675">LEFT</tspan><tspan
       sodipodi:role="line"
       x="15.999854"
       y="125.52009"
       id="tspan1713">ON</tspan><tspan
       sodipodi:role="line"
       x="15.999854"
       y="140.88974"
       id="tspan1715">44.5</tspan><tspan
       sodipodi:role="line"
       x="15.999854"
       y="156.22307"
       id="tspan1717">GAL</tspan></text>
  <text
     id="text1727"
     y="110.2193"
     x="240.13402"
     style="font-style:normal;font-variant:normal;font-weight:normal;font-stretch:normal;font-size:13.33333397px;line-height:1.14999998;font-family:Beteckna;-inkscape-font-specification:Beteckna;text-align:end;text-anchor:end;opacity:1;fill:#000000;fill-opacity:1;fill-rule:nonzero;stroke:#000000;stroke-width:0.1;stroke-linecap:square;stroke-linejoin:miter;stroke-miterlimit:4;stroke-dasharray:none;stroke-dashoffset:0;stroke-opacity:1;paint-order:normal"
     xml:space="preserve"><tspan
       y="110.2193"
       x="240.13402"
       id="tspan1719"
       sodipodi:role="line">RIGHT</tspan><tspan
       id="tspan1721"
       y="125.55264"
       x="240.13402"
       sodipodi:role="line">ON</tspan><tspan
       id="tspan1723"
       y="140.92229"
       x="240.13402"
       sodipodi:role="line">44.5</tspan><tspan
       id="tspan1725"
       y="156.25562"
       x="240.13402"
       sodipodi:role="line">GAL</tspan></text>
  <text
     xml:space="preserve"
     style="font-style:normal;font-variant:normal;font-weight:normal;font-stretch:normal;font-size:13.33333397px;line-height:1.14999998;font-family:Beteckna;-inkscape-font-specification:Beteckna;text-align:end;text-anchor:end;opacity:1;fill:#000000;fill-opacity:1;fill-rule:nonzero;stroke:#000000;stroke-width:0.1;stroke-linecap:square;stroke-linejoin:miter;stroke-miterlimit:4;stroke-dasharray:none;stroke-dashoffset:0;stroke-opacity:1;paint-order:normal"
     x="163.65895"
     y="194.83585"
     id="text1731"><tspan
       sodipodi:role="line"
       id="tspan1729"
       x="163.65897"
       y="194.83585">OFF    OFF</tspan></text>
  <path
     style="opacity:1;fill:none;fill-opacity:1;fill-rule:nonzero;stroke:#000000;stroke-width:2;stroke-linecap:square;stroke-linejoin:miter;stroke-miterlimit:4;stroke-dasharray:none;stroke-dashoffset:0;stroke-opacity:0;paint-order:normal"
     d="m 49.935502,114.71197 c -0.365895,3.31839 -0.365895,6.67698 0,9.99537 0.937084,8.49863 4.295247,16.66535 9.279367,23.61254 4.984119,6.94719 11.561788,12.69114 18.913007,17.05743 14.702436,8.73256 32.155784,11.86464 49.255034,12.05204 17.12124,0.18764 34.6742,-2.57377 49.53931,-11.07086 7.43255,-4.24855 14.10351,-9.90989 19.16637,-16.81354 5.06286,-6.90365 8.48341,-15.06705 9.43691,-23.57492 0.37185,-3.31794 0.37185,-6.67743 0,-9.99537"
     id="path1733"
     inkscape:connector-curvature="0"
     inkscape:path-effect="#path-effect1735"
     inkscape:original-d="m 49.935502,114.71197 c 10e-4,3.33079 10e-4,6.66258 0,9.99537 -10e-4,3.33279 51.632608,35.14701 77.447408,52.72201 25.8148,17.575 52.09606,-34.30721 78.14259,-51.45932 26.04653,-17.15211 0.001,-6.66458 0,-9.99537" />
  <text
     xml:space="preserve"
     style="font-style:normal;font-variant:normal;font-weight:normal;font-stretch:normal;font-size:10.66666698px;line-height:1.14999998;font-family:Beteckna;-inkscape-font-specification:Beteckna;text-align:end;text-anchor:end;opacity:1;fill:#000000;fill-opacity:1;fill-rule:nonzero;stroke:#000000;stroke-width:2;stroke-linecap:square;stroke-linejoin:miter;stroke-miterlimit:4;stroke-dasharray:none;stroke-dashoffset:0;stroke-opacity:0;paint-order:normal"
     id="text1743"
     transform="translate(0,4.0269132)"><textPath
       xlink:href="#path1733"
       startOffset="100%"
       id="textPath1748"><tspan
   id="tspan1741">FUEL             SELECTOR           </tspan></textPath></text>
  <path
     style="opacity:1;fill:none;fill-opacity:1;fill-rule:nonzero;stroke:#000000;stroke-width:2;stroke-linecap:square;stroke-linejoin:miter;stroke-miterlimit:4;stroke-dasharray:none;stroke-dashoffset:0;stroke-opacity:1;paint-order:normal"
     d="m 111.02259,176.26634 c -3.48518,-0.45877 -6.94553,-1.10616 -10.36084,-1.93839 -3.066303,-0.74719 -6.096303,-1.64333 -9.075739,-2.68423"
     id="path1751"
     inkscape:connector-curvature="0"
     inkscape:path-effect="#path-effect1753"
     inkscape:original-d="m 111.02259,176.26634 c -3.45261,-0.64713 -6.90622,-1.29326 -10.36084,-1.93839 -3.454608,-0.64513 -6.049492,-1.79049 -9.075739,-2.68423"
     sodipodi:nodetypes="csc" />
  <path
     style="opacity:1;fill:none;fill-opacity:1;fill-rule:nonzero;stroke:#000000;stroke-width:2;stroke-linecap:square;stroke-linejoin:miter;stroke-miterlimit:4;stroke-dasharray:none;stroke-dashoffset:0;stroke-opacity:1;paint-order:normal"
     d="m 69.266798,159.10205 c -2.118176,-1.76285 -4.11065,-3.6767 -5.957295,-5.72223 -2.461584,-2.7267 -4.663631,-5.68759 -6.566707,-8.82966"
     id="path1767"
     inkscape:connector-curvature="0"
     inkscape:path-effect="#path-effect1769"
     inkscape:original-d="m 69.266798,159.10205 c -1.984765,-1.90841 -3.97053,-3.81582 -5.957295,-5.72223 -1.986765,-1.90642 -4.376804,-5.88744 -6.566707,-8.82966" />
  <path
     style="opacity:1;fill:none;fill-opacity:1;fill-rule:nonzero;stroke:#000000;stroke-width:2;stroke-linecap:square;stroke-linejoin:miter;stroke-miterlimit:4;stroke-dasharray:none;stroke-dashoffset:0;stroke-opacity:1;paint-order:normal"
     d="m 187.54219,158.8181 c 2.38207,-2.01138 4.58283,-4.2374 6.56689,-6.64227 1.96371,-2.3802 3.71509,-4.93551 5.22655,-7.62567"
     id="path1771"
     inkscape:connector-curvature="0"
     inkscape:path-effect="#path-effect1773"
     inkscape:original-d="m 187.54219,158.8181 c 2.18996,-2.21509 4.37893,-4.42918 6.56689,-6.64227 2.18797,-2.21309 3.48537,-5.08478 5.22655,-7.62567" />
  <path
     style="opacity:1;fill:#000000;fill-opacity:1;fill-rule:nonzero;stroke:#000000;stroke-width:1;stroke-linecap:square;stroke-linejoin:miter;stroke-miterlimit:4;stroke-dasharray:none;stroke-dashoffset:0;stroke-opacity:0.98333333;paint-order:normal"
     d="m 55.055463,141.82393 3.403962,10.06709 4.607764,-3.06488 z"
     id="path1777"
     inkscape:connector-curvature="0"
     sodipodi:nodetypes="cccc"
     inkscape:transform-center-x="1.7019832"
     inkscape:transform-center-y="-3.5011037" />
  <path
     inkscape:transform-center-y="-3.6541737"
     inkscape:transform-center-x="-1.5008318"
     sodipodi:nodetypes="cccc"
     inkscape:connector-curvature="0"
     id="path1779"
     d="m 200.89988,141.60027 -7.71501,7.30835 4.71334,2.89992 z"
     style="opacity:1;fill:#000000;fill-opacity:1;fill-rule:nonzero;stroke:#000000;stroke-width:1;stroke-linecap:square;stroke-linejoin:miter;stroke-miterlimit:4;stroke-dasharray:none;stroke-dashoffset:0;stroke-opacity:0.98333333;paint-order:normal" />
</svg>
