<?xml version="1.0" encoding="UTF-8" standalone="no"?>
<svg
   xmlns:dc="http://purl.org/dc/elements/1.1/"
   xmlns:cc="http://creativecommons.org/ns#"
   xmlns:rdf="http://www.w3.org/1999/02/22-rdf-syntax-ns#"
   xmlns:svg="http://www.w3.org/2000/svg"
   xmlns="http://www.w3.org/2000/svg"
   xmlns:sodipodi="http://sodipodi.sourceforge.net/DTD/sodipodi-0.dtd"
   xmlns:inkscape="http://www.inkscape.org/namespaces/inkscape"
   width="256"
   height="256"
   viewBox="0 0 256 256"
   version="1.1"
   id="svg8"
   sodipodi:docname="turn-coordinator-face.svg"
   inkscape:version="0.92.5 (2060ec1f9f, 2020-04-08)"
   inkscape:export-filename="/mnt/DATEN/blender-2.83.0-linux64/2.83/datafiles/colormanagement/filmic/fgfs-addons/Aircraft/c210-family/Models/Interior/Panel/Instruments/turn-coordinator-face.png"
   inkscape:export-xdpi="96"
   inkscape:export-ydpi="96">
  <metadata
     id="metadata14">
    <rdf:RDF>
      <cc:Work
         rdf:about="">
        <dc:format>image/svg+xml</dc:format>
        <dc:type
           rdf:resource="http://purl.org/dc/dcmitype/StillImage" />
      </cc:Work>
    </rdf:RDF>
  </metadata>
  <defs
     id="defs12" />
  <sodipodi:namedview
     pagecolor="#ffffff"
     bordercolor="#666666"
     borderopacity="1"
     objecttolerance="10"
     gridtolerance="10"
     guidetolerance="10"
     inkscape:pageopacity="0"
     inkscape:pageshadow="2"
     inkscape:window-width="1362"
     inkscape:window-height="706"
     id="namedview10"
     showgrid="true"
     inkscape:zoom="1.84375"
     inkscape:cx="183.04661"
     inkscape:cy="130.94638"
     inkscape:window-x="0"
     inkscape:window-y="0"
     inkscape:window-maximized="1"
     inkscape:current-layer="svg8"
     inkscape:snap-center="true">
    <inkscape:grid
       type="xygrid"
       id="grid823" />
  </sodipodi:namedview>
  <desc
     id="desc2">turn-coordinator.blend, (Blender 2.83.0)</desc>
  <polygon
     stroke="black"
     stroke-width="1"
     fill="rgb(204, 204, 204)"
     fill-opacity="0"
     points="256.000,128.000 253.541,103.028 246.257,79.017 234.428,56.887 218.510,37.490 199.113,21.572 176.983,9.743 152.972,2.459 128.000,0.000 103.028,2.459 79.017,9.743 56.887,21.572 37.490,37.490 21.572,56.887 9.743,79.017 2.459,103.028 0.000,128.000 2.459,152.972 9.743,176.984 21.572,199.113 37.490,218.510 72.690,213.299 73.258,211.515 74.941,209.800 77.673,208.219 80.810,207.037 81.500,206.834 87.224,205.697 93.019,204.947 94.042,204.852 103.913,204.332 104.871,204.315 116.492,204.195 128.000,204.156 139.508,204.195 151.129,204.315 152.087,204.331 161.958,204.852 162.981,204.947 168.776,205.697 174.500,206.834 175.190,207.037 178.327,208.219 181.059,209.800 182.742,211.515 183.310,213.299 218.510,218.510 234.428,199.113 246.257,176.983 253.541,152.971 "
     id="polygon4"
     style="stroke:none;fill:#000000;fill-opacity:1" />
  <polygon
     stroke="black"
     stroke-width="1"
     fill="rgb(204, 204, 204)"
     fill-opacity="0"
     points="218.510,218.510 183.310,213.299 182.742,215.082 181.059,216.797 178.327,218.378 175.190,219.560 174.500,219.764 168.776,220.901 162.981,221.651 161.958,221.746 152.087,222.266 151.129,222.282 139.508,222.402 128.000,222.442 116.492,222.402 104.871,222.282 103.913,222.266 94.042,221.746 93.019,221.651 87.224,220.901 81.500,219.764 80.810,219.560 77.673,218.378 74.941,216.797 73.258,215.082 72.690,213.299 37.490,218.510 56.887,234.428 79.017,246.257 103.029,253.541 128.000,256.000 152.972,253.541 176.984,246.257 199.113,234.428 "
     id="polygon6"
     style="fill:#000000;fill-opacity:0.97380954" />
  <path
     style="fill:none;fill-opacity:1;stroke:#ffffff;stroke-width:5.48757648;stroke-linecap:butt;stroke-linejoin:miter;stroke-miterlimit:4;stroke-dasharray:none;stroke-opacity:1"
     d="M 18.033898,128 H 35.601145"
     id="path821"
     inkscape:connector-curvature="0"
     inkscape:transform-center-x="101.18248" />
  <path
     inkscape:transform-center-x="-101.18248"
     inkscape:connector-curvature="0"
     id="path825"
     d="M 237.9661,128 H 220.39886"
     style="fill:none;fill-opacity:1;stroke:#ffffff;stroke-width:5.48757648;stroke-linecap:butt;stroke-linejoin:miter;stroke-miterlimit:4;stroke-dasharray:none;stroke-opacity:1" />
  <path
     style="fill:none;fill-opacity:1;stroke:#ffffff;stroke-width:5.48757648;stroke-linecap:butt;stroke-linejoin:miter;stroke-miterlimit:4;stroke-dasharray:none;stroke-opacity:1"
     d="m 231.33433,165.61062 -16.5078,-6.00836"
     id="path827"
     inkscape:connector-curvature="0"
     inkscape:transform-center-x="-95.08043"
     inkscape:transform-center-y="34.60644" />
  <path
     inkscape:transform-center-y="34.60644"
     inkscape:transform-center-x="-95.08043"
     inkscape:connector-curvature="0"
     id="path829"
     d="m 231.33433,165.61062 -16.5078,-6.00836"
     style="fill:none;fill-opacity:1;stroke:#ffffff;stroke-width:5.48757648;stroke-linecap:butt;stroke-linejoin:miter;stroke-miterlimit:4;stroke-dasharray:none;stroke-opacity:1" />
  <path
     style="fill:none;fill-opacity:1;stroke:#ffffff;stroke-width:5.48757648;stroke-linecap:butt;stroke-linejoin:miter;stroke-miterlimit:4;stroke-dasharray:none;stroke-opacity:1"
     d="m 24.665676,165.61062 16.507798,-6.00833"
     id="path831"
     inkscape:connector-curvature="0"
     inkscape:transform-center-x="95.080424"
     inkscape:transform-center-y="34.606455" />
  <text
     xml:space="preserve"
     style="font-style:normal;font-weight:normal;font-size:10.66666698px;line-height:1.25;font-family:sans-serif;letter-spacing:0px;word-spacing:0px;fill:#ffffff;fill-opacity:1;stroke:none"
     x="71.726562"
     y="165.85352"
     id="text835"><tspan
       sodipodi:role="line"
       id="tspan833"
       x="71.726562"
       y="165.85352">TURN COORDINATOR</tspan></text>
  <text
     xml:space="preserve"
     style="font-style:normal;font-variant:normal;font-weight:normal;font-stretch:normal;font-size:17.33333397px;line-height:1.25;font-family:sans-serif;-inkscape-font-specification:sans-serif;letter-spacing:0px;word-spacing:0px;fill:#ffffff;fill-opacity:1;stroke:none"
     x="100.76009"
     y="186"
     id="text843"
     inkscape:export-xdpi="96"
     inkscape:export-ydpi="96"><tspan
       sodipodi:role="line"
       id="tspan841"
       x="100.76009"
       y="186">2 MIN.</tspan></text>
</svg>
