<?xml version="1.0" encoding="UTF-8" standalone="no"?>
<svg
   xmlns:dc="http://purl.org/dc/elements/1.1/"
   xmlns:cc="http://creativecommons.org/ns#"
   xmlns:rdf="http://www.w3.org/1999/02/22-rdf-syntax-ns#"
   xmlns:svg="http://www.w3.org/2000/svg"
   xmlns="http://www.w3.org/2000/svg"
   xmlns:sodipodi="http://sodipodi.sourceforge.net/DTD/sodipodi-0.dtd"
   xmlns:inkscape="http://www.inkscape.org/namespaces/inkscape"
   width="512"
   height="512"
   viewBox="0 0 512 512"
   version="1.1"
   id="svg68"
   sodipodi:docname="ai-roll-scale.svg"
   inkscape:version="0.92.5 (2060ec1f9f, 2020-04-08)"
   inkscape:export-filename="/mnt/DATEN/blender-2.83.0-linux64/2.83/datafiles/colormanagement/filmic/fgfs-addons/Aircraft/c210-family/Models/Interior/Panel/Instruments/ai-roll-scale.png"
   inkscape:export-xdpi="96"
   inkscape:export-ydpi="96">
  <metadata
     id="metadata74">
    <rdf:RDF>
      <cc:Work
         rdf:about="">
        <dc:format>image/svg+xml</dc:format>
        <dc:type
           rdf:resource="http://purl.org/dc/dcmitype/StillImage" />
      </cc:Work>
    </rdf:RDF>
  </metadata>
  <defs
     id="defs72" />
  <sodipodi:namedview
     pagecolor="#ffffff"
     bordercolor="#666666"
     borderopacity="1"
     objecttolerance="10"
     gridtolerance="10"
     guidetolerance="10"
     inkscape:pageopacity="0"
     inkscape:pageshadow="2"
     inkscape:window-width="1362"
     inkscape:window-height="706"
     id="namedview70"
     showgrid="true"
     inkscape:zoom="0.48467504"
     inkscape:cx="331.71391"
     inkscape:cy="435.55586"
     inkscape:window-x="0"
     inkscape:window-y="0"
     inkscape:window-maximized="1"
     inkscape:current-layer="svg68"
     inkscape:snap-center="true"
     showguides="true">
    <inkscape:grid
       type="xygrid"
       id="grid949" />
  </sodipodi:namedview>
  <desc
     id="desc2">attitude-indicator.blend, (Blender 2.83.0)</desc>
  <polygon
     style="fill:#00c0ff;fill-opacity:1;stroke:none;stroke-width:1;stroke-opacity:1"
     points="503.349,206.799 458.159,215.788 462.119,256 508.195,256 "
     id="polygon4" />
  <polygon
     style="fill:#00c0ff;fill-opacity:1;stroke:none;stroke-width:1;stroke-opacity:1"
     points="488.998,159.489 446.43,177.122 458.159,215.788 503.349,206.799 "
     id="polygon6" />
  <polygon
     style="fill:#00c0ff;fill-opacity:1;stroke:none;stroke-width:1;stroke-opacity:1"
     points="465.693,115.888 427.382,141.486 446.43,177.122 488.998,159.489 "
     id="polygon8" />
  <polygon
     style="fill:#00c0ff;fill-opacity:1;stroke:none;stroke-width:1;stroke-opacity:1"
     points="434.329,77.671 401.749,110.252 427.382,141.486 465.693,115.888 "
     id="polygon10" />
  <polygon
     style="fill:#00c0ff;fill-opacity:1;stroke:none;stroke-width:1;stroke-opacity:1"
     points="396.112,46.308 370.514,84.618 401.749,110.252 434.329,77.671 "
     id="polygon12" />
  <polygon
     style="fill:#00c0ff;fill-opacity:1;stroke:none;stroke-width:1;stroke-opacity:1"
     points="352.511,23.002 334.879,65.571 370.514,84.618 396.112,46.308 "
     id="polygon14" />
  <polygon
     style="fill:#00c0ff;fill-opacity:1;stroke:none;stroke-width:1;stroke-opacity:1"
     points="305.201,8.651 296.212,53.841 334.879,65.571 352.511,23.002 "
     id="polygon16" />
  <polygon
     style="fill:#00c0ff;fill-opacity:1;stroke:none;stroke-width:1;stroke-opacity:1"
     points="256,3.805 256,49.881 296.212,53.841 305.201,8.651 "
     id="polygon18" />
  <polygon
     style="fill:#00c0ff;fill-opacity:1;stroke:none;stroke-width:1;stroke-opacity:1"
     points="206.8,8.651 215.788,53.841 256,49.881 256,3.805 "
     id="polygon20" />
  <polygon
     style="fill:#00c0ff;fill-opacity:1;stroke:none;stroke-width:1;stroke-opacity:1"
     points="159.49,23.002 177.122,65.57 215.788,53.841 206.8,8.651 "
     id="polygon22" />
  <polygon
     style="fill:#00c0ff;fill-opacity:1;stroke:none;stroke-width:1;stroke-opacity:1"
     points="115.888,46.307 141.487,84.618 177.122,65.57 159.49,23.002 "
     id="polygon24" />
  <polygon
     style="fill:#00c0ff;fill-opacity:1;stroke:none;stroke-width:1;stroke-opacity:1"
     points="77.672,77.671 110.252,110.252 141.487,84.618 115.888,46.307 "
     id="polygon26" />
  <polygon
     style="fill:#00c0ff;fill-opacity:1;stroke:none;stroke-width:1;stroke-opacity:1"
     points="46.308,115.888 84.618,141.486 110.252,110.252 77.672,77.671 "
     id="polygon28" />
  <polygon
     style="fill:#00c0ff;fill-opacity:1;stroke:none;stroke-width:1;stroke-opacity:1"
     points="23.003,159.489 65.571,177.121 84.618,141.486 46.308,115.888 "
     id="polygon30" />
  <polygon
     style="fill:#00c0ff;fill-opacity:1;stroke:none;stroke-width:1;stroke-opacity:1"
     points="8.651,206.799 53.841,215.788 65.571,177.121 23.003,159.489 "
     id="polygon32" />
  <polygon
     style="fill:#00c0ff;fill-opacity:1;stroke:none;stroke-width:1;stroke-opacity:1"
     points="3.805,256 49.881,256 53.841,215.788 8.651,206.799 "
     id="polygon34" />
  <polygon
     style="fill:#500000;fill-opacity:1;stroke:none;stroke-width:1;stroke-opacity:1"
     points="8.651,305.2 53.841,296.212 49.881,256 3.805,256 "
     id="polygon36" />
  <polygon
     style="fill:#500000;fill-opacity:1;stroke:none;stroke-width:1;stroke-opacity:1"
     points="23.002,352.51 65.57,334.878 53.841,296.212 8.651,305.2 "
     id="polygon38" />
  <polygon
     style="fill:#500000;fill-opacity:1;stroke:none;stroke-width:1;stroke-opacity:1"
     points="46.307,396.112 84.618,370.514 65.57,334.878 23.002,352.51 "
     id="polygon40" />
  <polygon
     style="fill:#500000;fill-opacity:1;stroke:none;stroke-width:1;stroke-opacity:1"
     points="77.671,434.328 110.251,401.748 84.618,370.514 46.307,396.112 "
     id="polygon42" />
  <polygon
     style="fill:#500000;fill-opacity:1;stroke:none;stroke-width:1;stroke-opacity:1"
     points="115.888,465.692 141.486,427.382 110.251,401.748 77.671,434.328 "
     id="polygon44" />
  <polygon
     style="fill:#500000;fill-opacity:1;stroke:none;stroke-width:1;stroke-opacity:1"
     points="159.489,488.998 177.121,446.429 141.486,427.382 115.888,465.692 "
     id="polygon46" />
  <polygon
     style="fill:#500000;fill-opacity:1;stroke:none;stroke-width:1;stroke-opacity:1"
     points="206.799,503.349 215.788,458.159 177.121,446.429 159.489,488.998 "
     id="polygon48" />
  <polygon
     style="fill:#500000;fill-opacity:1;stroke:none;stroke-width:1;stroke-opacity:1"
     points="256,508.195 256,462.119 215.788,458.159 206.799,503.349 "
     id="polygon50" />
  <polygon
     style="fill:#500000;fill-opacity:1;stroke:none;stroke-width:1;stroke-opacity:1"
     points="305.201,503.349 296.212,458.159 256,462.119 256,508.195 "
     id="polygon52" />
  <polygon
     style="fill:#500000;fill-opacity:1;stroke:none;stroke-width:1;stroke-opacity:1"
     points="352.511,488.998 334.878,446.429 296.212,458.159 305.201,503.349 "
     id="polygon54" />
  <polygon
     style="fill:#500000;fill-opacity:1;stroke:none;stroke-width:1;stroke-opacity:1"
     points="396.112,465.692 370.514,427.382 334.878,446.429 352.511,488.998 "
     id="polygon56" />
  <polygon
     style="fill:#500000;fill-opacity:1;stroke:none;stroke-width:1;stroke-opacity:1"
     points="434.329,434.329 401.748,401.748 370.514,427.382 396.112,465.692 "
     id="polygon58" />
  <polygon
     style="fill:#500000;fill-opacity:1;stroke:none;stroke-width:1;stroke-opacity:1"
     points="465.692,396.112 427.382,370.514 401.748,401.748 434.329,434.329 "
     id="polygon60" />
  <polygon
     style="fill:#500000;fill-opacity:1;stroke:none;stroke-width:1;stroke-opacity:1"
     points="488.998,352.511 446.429,334.878 427.382,370.514 465.692,396.112 "
     id="polygon62" />
  <polygon
     style="fill:#500000;fill-opacity:1;stroke:none;stroke-width:1;stroke-opacity:1"
     points="503.349,305.201 458.159,296.212 446.429,334.878 488.998,352.511 "
     id="polygon64" />
  <polygon
     style="fill:#500000;fill-opacity:1;stroke:none;stroke-width:1;stroke-opacity:1"
     points="508.195,256 462.119,256 458.159,296.212 503.349,305.201 "
     id="polygon66" />
  <path
     style="fill:none;stroke:#fffffc;stroke-width:7.5;stroke-linecap:butt;stroke-linejoin:miter;stroke-miterlimit:4;stroke-dasharray:none;stroke-opacity:1"
     d="M 3.805,256 H 49.881"
     id="path947"
     inkscape:connector-curvature="0"
     inkscape:transform-center-x="229.157" />
  <path
     inkscape:transform-center-x="198.45578"
     inkscape:connector-curvature="0"
     id="path959"
     d="m 37.592723,129.9025 39.902987,23.038"
     style="fill:none;stroke:#fffffc;stroke-width:7.5;stroke-linecap:butt;stroke-linejoin:miter;stroke-miterlimit:4;stroke-dasharray:none;stroke-opacity:1"
     inkscape:transform-center-y="-114.5785" />
  <path
     inkscape:transform-center-y="-198.45578"
     style="fill:none;stroke:#fffffc;stroke-width:7.5;stroke-linecap:butt;stroke-linejoin:miter;stroke-miterlimit:4;stroke-dasharray:none;stroke-opacity:1"
     d="m 129.9025,37.592725 23.038,39.902987"
     id="path961"
     inkscape:connector-curvature="0"
     inkscape:transform-center-x="114.5785" />
  <path
     inkscape:connector-curvature="0"
     id="path967"
     d="m 334.32262,40.810381 -7.82576,21.501125"
     style="fill:none;stroke:#fffffc;stroke-width:7;stroke-linecap:butt;stroke-linejoin:miter;stroke-miterlimit:4;stroke-dasharray:none;stroke-opacity:1"
     inkscape:transform-center-y="-204.43904"
     inkscape:transform-center-x="-74.40974" />
  <path
     inkscape:transform-center-y="-198.45578"
     style="fill:none;stroke:#fffffc;stroke-width:7.5;stroke-linecap:butt;stroke-linejoin:miter;stroke-miterlimit:4;stroke-dasharray:none;stroke-opacity:1"
     d="m 382.0975,37.592725 -23.038,39.902987"
     id="path973"
     inkscape:connector-curvature="0"
     inkscape:transform-center-x="-114.5785" />
  <path
     inkscape:transform-center-x="-198.45577"
     inkscape:connector-curvature="0"
     id="path975"
     d="m 474.40728,129.90251 -39.90299,23.038"
     style="fill:none;stroke:#fffffc;stroke-width:7.5;stroke-linecap:butt;stroke-linejoin:miter;stroke-miterlimit:4;stroke-dasharray:none;stroke-opacity:1"
     inkscape:transform-center-y="-114.57849" />
  <path
     style="fill:none;stroke:#fffffc;stroke-width:7.5;stroke-linecap:butt;stroke-linejoin:miter;stroke-miterlimit:4;stroke-dasharray:none;stroke-opacity:1"
     d="M 508.195,256 H 462.119"
     id="path977"
     inkscape:connector-curvature="0"
     inkscape:transform-center-x="-229.15699" />
  <path
     inkscape:transform-center-x="-37.77882"
     inkscape:transform-center-y="-214.25427"
     style="fill:none;stroke:#fffffc;stroke-width:7;stroke-linecap:butt;stroke-linejoin:miter;stroke-miterlimit:4;stroke-dasharray:none;stroke-opacity:1"
     d="M 295.76544,30.479014 291.7922,53.012418"
     id="path979"
     inkscape:connector-curvature="0" />
  <path
     inkscape:connector-curvature="0"
     id="path981"
     d="m 216.23458,30.479011 3.97324,22.533403"
     style="fill:none;stroke:#fffffc;stroke-width:7;stroke-linecap:butt;stroke-linejoin:miter;stroke-miterlimit:4;stroke-dasharray:none;stroke-opacity:1"
     inkscape:transform-center-y="-214.25427"
     inkscape:transform-center-x="37.7788" />
  <path
     inkscape:transform-center-x="74.40972"
     inkscape:transform-center-y="-204.43905"
     style="fill:none;stroke:#fffffc;stroke-width:7;stroke-linecap:butt;stroke-linejoin:miter;stroke-miterlimit:4;stroke-dasharray:none;stroke-opacity:1"
     d="m 177.6774,40.810374 7.82576,21.501124"
     id="path983"
     inkscape:connector-curvature="0" />
  <path
     style="fill:#ffffff;stroke:#000000;stroke-width:0;stroke-linecap:butt;stroke-linejoin:miter;stroke-opacity:1;stroke-miterlimit:4;stroke-dasharray:none;fill-opacity:1"
     d="M 256,49.881 265,27 h -17 z"
     id="path989"
     inkscape:connector-curvature="0" />
</svg>
