<?xml version="1.0" encoding="UTF-8" standalone="no"?>
<svg
   xmlns:dc="http://purl.org/dc/elements/1.1/"
   xmlns:cc="http://creativecommons.org/ns#"
   xmlns:rdf="http://www.w3.org/1999/02/22-rdf-syntax-ns#"
   xmlns:svg="http://www.w3.org/2000/svg"
   xmlns="http://www.w3.org/2000/svg"
   xmlns:sodipodi="http://sodipodi.sourceforge.net/DTD/sodipodi-0.dtd"
   xmlns:inkscape="http://www.inkscape.org/namespaces/inkscape"
   width="512"
   height="128"
   viewBox="0 0 512 128"
   version="1.1"
   id="svg3024"
   sodipodi:docname="audio-panel.svg"
   inkscape:version="0.92.5 (2060ec1f9f, 2020-04-08)"
   inkscape:export-filename="/mnt/DATEN/blender-2.83.0-linux64/2.83/datafiles/colormanagement/filmic/fgfs-addons/Aircraft/c210-family/Models/Interior/Panel/Avionics/audio-panel/audio-panel.png"
   inkscape:export-xdpi="192"
   inkscape:export-ydpi="192">
  <metadata
     id="metadata3030">
    <rdf:RDF>
      <cc:Work
         rdf:about="">
        <dc:format>image/svg+xml</dc:format>
        <dc:type
           rdf:resource="http://purl.org/dc/dcmitype/StillImage" />
      </cc:Work>
    </rdf:RDF>
  </metadata>
  <defs
     id="defs3028" />
  <sodipodi:namedview
     pagecolor="#ffffff"
     bordercolor="#666666"
     borderopacity="1"
     objecttolerance="10"
     gridtolerance="10"
     guidetolerance="10"
     inkscape:pageopacity="0"
     inkscape:pageshadow="2"
     inkscape:window-width="1362"
     inkscape:window-height="706"
     id="namedview3026"
     showgrid="true"
     inkscape:zoom="4"
     inkscape:cx="133.00711"
     inkscape:cy="121.32332"
     inkscape:window-x="0"
     inkscape:window-y="0"
     inkscape:window-maximized="1"
     inkscape:current-layer="svg3024">
    <inkscape:grid
       type="xygrid"
       id="grid3865" />
  </sodipodi:namedview>
  <desc
     id="desc2">audio-panel.blend, (Blender 2.83.0)</desc>
  <polygon
     points="0.000,0.000 44.800,64.000 44.864,64.552 44.992,65.105 45.216,65.594 45.536,66.046 45.952,66.436 46.400,66.762 46.912,67.020 47.456,67.151 48.000,67.183 48.544,67.151 49.088,67.020 49.600,66.762 50.048,66.436 50.464,66.046 50.784,65.594 51.008,65.105 51.136,64.552 51.200,64.000 84.800,64.000 84.864,64.552 84.992,65.105 85.216,65.594 85.536,66.046 85.952,66.436 86.400,66.762 86.912,67.020 87.456,67.151 88.000,67.183 88.544,67.151 89.088,67.020 89.600,66.762 90.048,66.436 90.464,66.046 90.784,65.594 91.008,65.105 91.136,64.552 91.200,64.000 148.800,64.000 148.864,64.552 148.992,65.105 149.216,65.594 149.536,66.046 149.952,66.436 150.400,66.762 150.912,67.020 151.456,67.151 152.000,67.183 152.544,67.151 153.088,67.020 153.600,66.762 154.048,66.436 154.464,66.046 154.784,65.594 155.008,65.105 155.136,64.552 155.200,64.000 212.800,64.000 212.864,64.552 212.992,65.105 213.216,65.594 213.536,66.046 213.952,66.436 214.400,66.762 214.912,67.020 215.456,67.151 216.000,67.183 216.544,67.151 217.088,67.020 217.600,66.762 218.048,66.436 218.464,66.046 218.784,65.594 219.008,65.105 219.136,64.552 219.200,64.000 252.800,64.000 252.864,64.552 252.992,65.105 253.216,65.594 253.536,66.046 253.952,66.436 254.400,66.762 254.912,67.020 255.456,67.151 256.000,67.183 256.544,67.151 257.088,67.020 257.600,66.762 258.048,66.436 258.464,66.046 258.784,65.594 259.008,65.105 259.136,64.552 259.200,64.000 292.800,64.000 292.864,64.552 292.992,65.105 293.216,65.594 293.536,66.046 293.952,66.436 294.400,66.762 294.912,67.020 295.456,67.151 296.000,67.183 296.544,67.151 297.088,67.020 297.600,66.762 298.048,66.436 298.464,66.046 298.784,65.594 299.008,65.105 299.136,64.552 299.200,64.000 332.800,64.000 332.864,64.552 332.992,65.105 333.216,65.594 333.536,66.046 333.952,66.436 334.400,66.762 334.912,67.020 335.456,67.151 336.000,67.183 336.544,67.151 337.088,67.020 337.600,66.762 338.048,66.436 338.464,66.046 338.784,65.594 339.008,65.105 339.136,64.552 339.200,64.000 372.800,64.000 372.864,64.552 372.992,65.105 373.216,65.594 373.536,66.046 373.952,66.436 374.400,66.762 374.912,67.020 375.456,67.151 376.000,67.183 376.544,67.151 377.088,67.020 377.600,66.762 378.048,66.436 378.464,66.046 378.784,65.594 379.008,65.105 379.136,64.552 379.200,64.000 412.800,64.000 412.864,64.552 412.992,65.105 413.216,65.594 413.536,66.046 413.952,66.436 414.400,66.762 414.912,67.020 415.456,67.151 416.000,67.183 416.544,67.151 417.088,67.020 417.600,66.762 418.048,66.436 418.464,66.046 418.784,65.594 419.008,65.105 419.136,64.552 419.200,64.000 460.800,64.000 460.864,64.552 460.992,65.105 461.216,65.594 461.536,66.046 461.952,66.436 462.400,66.762 462.912,67.020 463.456,67.151 464.000,67.183 464.544,67.151 465.088,67.020 465.600,66.762 466.048,66.436 466.464,66.046 466.784,65.594 467.008,65.105 467.136,64.552 467.200,64.000 512.000,128.000 0.000,128.000 "
     id="polygon4"
     style="fill:#000000;stroke:#000000"
     stroke-width="1"
     stroke="black"
     fill-opacity="1"
     fill="rgb(0, 0, 0)" />
  <polygon
     points="512.000,128.000 467.200,64.000 467.136,63.448 467.008,62.895 466.784,62.406 466.464,61.954 466.048,61.564 465.600,61.238 465.088,60.980 464.544,60.849 464.000,60.817 463.456,60.849 462.912,60.980 462.400,61.238 461.952,61.564 461.536,61.954 461.216,62.406 460.992,62.895 460.864,63.448 460.800,64.000 419.200,64.000 419.136,63.448 419.008,62.895 418.784,62.406 418.464,61.954 418.048,61.564 417.600,61.238 417.088,60.980 416.544,60.849 416.000,60.817 415.456,60.849 414.912,60.980 414.400,61.238 413.952,61.564 413.536,61.954 413.216,62.406 412.992,62.895 412.864,63.448 412.800,64.000 379.200,64.000 379.136,63.448 379.008,62.895 378.784,62.406 378.464,61.954 378.048,61.564 377.600,61.238 377.088,60.980 376.544,60.849 376.000,60.817 375.456,60.849 374.912,60.980 374.400,61.238 373.952,61.564 373.536,61.954 373.216,62.406 372.992,62.895 372.864,63.448 372.800,64.000 339.200,64.000 339.136,63.448 339.008,62.895 338.784,62.406 338.464,61.954 338.048,61.564 337.600,61.238 337.088,60.980 336.544,60.849 336.000,60.817 335.456,60.849 334.912,60.980 334.400,61.238 333.952,61.564 333.536,61.954 333.216,62.406 332.992,62.895 332.864,63.448 332.800,64.000 299.200,64.000 299.136,63.448 299.008,62.895 298.784,62.406 298.464,61.954 298.048,61.564 297.600,61.238 297.088,60.980 296.544,60.849 296.000,60.817 295.456,60.849 294.912,60.980 294.400,61.238 293.952,61.564 293.536,61.954 293.216,62.406 292.992,62.895 292.864,63.448 292.800,64.000 259.200,64.000 259.136,63.448 259.008,62.895 258.784,62.406 258.464,61.954 258.048,61.564 257.600,61.238 257.088,60.980 256.544,60.849 256.000,60.817 255.456,60.849 254.912,60.980 254.400,61.238 253.952,61.564 253.536,61.954 253.216,62.406 252.992,62.895 252.864,63.448 252.800,64.000 219.200,64.000 219.136,63.448 219.008,62.895 218.784,62.406 218.464,61.954 218.048,61.564 217.600,61.238 217.088,60.980 216.544,60.849 216.000,60.817 215.456,60.849 214.912,60.980 214.400,61.238 213.952,61.564 213.536,61.954 213.216,62.406 212.992,62.895 212.864,63.448 212.800,64.000 155.200,64.000 155.136,63.448 155.008,62.895 154.784,62.406 154.464,61.954 154.048,61.564 153.600,61.238 153.088,60.980 152.544,60.849 152.000,60.817 151.456,60.849 150.912,60.980 150.400,61.238 149.952,61.564 149.536,61.954 149.216,62.406 148.992,62.895 148.864,63.448 148.800,64.000 91.200,64.000 91.136,63.448 91.008,62.895 90.784,62.406 90.464,61.954 90.048,61.564 89.600,61.238 89.088,60.980 88.544,60.849 88.000,60.817 87.456,60.849 86.912,60.980 86.400,61.238 85.952,61.564 85.536,61.954 85.216,62.406 84.992,62.895 84.864,63.448 84.800,64.000 51.200,64.000 51.136,63.448 51.008,62.895 50.784,62.406 50.464,61.954 50.048,61.564 49.600,61.238 49.088,60.980 48.544,60.849 48.000,60.817 47.456,60.849 46.912,60.980 46.400,61.238 45.952,61.564 45.536,61.954 45.216,62.406 44.992,62.895 44.864,63.448 44.800,64.000 0.000,0.000 30.400,24.000 30.979,27.283 32.646,30.171 35.200,32.314 38.333,33.454 41.667,33.454 44.800,32.314 47.354,30.171 49.021,27.283 49.600,24.000 59.200,24.000 59.779,27.283 61.446,30.171 64.000,32.314 67.133,33.454 70.467,33.454 73.600,32.314 76.154,30.171 77.821,27.283 78.400,24.000 88.000,24.000 88.579,27.283 90.246,30.171 92.800,32.314 95.933,33.454 99.267,33.454 102.400,32.314 104.954,30.171 106.621,27.283 107.200,24.000 512.000,0.000 "
     id="polygon6"
     style="fill:#000000;stroke:#000000"
     stroke-width="1"
     stroke="black"
     fill-opacity="1"
     fill="rgb(0, 0, 0)" />
  <text
     xml:space="preserve"
     style="font-style:normal;font-variant:normal;font-weight:bold;font-stretch:normal;font-size:10.66666698px;line-height:1.25;font-family:Ubuntu;-inkscape-font-specification:'Ubuntu Bold';text-align:center;text-anchor:middle;opacity:1;fill:#ffffff;fill-opacity:1;fill-rule:nonzero;stroke:none;stroke-width:1;stroke-linecap:butt;stroke-linejoin:round;stroke-miterlimit:4;stroke-dasharray:none;stroke-dashoffset:0;stroke-opacity:1;paint-order:markers stroke fill"
     x="33.552242"
     y="53.164215"
     id="text3855"><tspan
       sodipodi:role="line"
       id="tspan3853"
       x="33.552242"
       y="53.164215">HIGH</tspan></text>
  <polygon
     stroke="black"
     stroke-width="1"
     fill="rgb(0, 0, 0)"
     fill-opacity="1"
     points="512.000,0.000 107.200,24.000 106.621,20.717 104.954,17.829 102.400,15.686 99.267,14.546 95.933,14.546 92.800,15.686 90.246,17.829 88.579,20.717 88.000,24.000 78.400,24.000 77.821,20.717 76.154,17.829 73.600,15.686 70.467,14.546 67.133,14.546 64.000,15.686 61.446,17.829 59.779,20.717 59.200,24.000 49.600,24.000 49.021,20.717 47.354,17.829 44.800,15.686 41.667,14.546 38.333,14.546 35.200,15.686 32.646,17.829 30.979,20.717 30.400,24.000 0.000,0.000 "
     id="polygon8"
     style="fill:#000000;stroke:#000000" />
  <polygon
     stroke="black"
     stroke-width="1"
     fill="rgb(0, 0, 0)"
     fill-opacity="1"
     points="78.400,24.000 78.400,24.000 77.821,27.283 77.821,27.283 "
     id="polygon2620" />
  <polygon
     stroke="black"
     stroke-width="1"
     fill="rgb(0, 0, 0)"
     fill-opacity="1"
     points="77.821,27.283 77.821,27.283 76.154,30.171 76.154,30.171 "
     id="polygon2622" />
  <polygon
     stroke="black"
     stroke-width="1"
     fill="rgb(0, 0, 0)"
     fill-opacity="1"
     points="76.154,30.171 76.154,30.171 73.600,32.314 73.600,32.314 "
     id="polygon2624" />
  <polygon
     stroke="black"
     stroke-width="1"
     fill="rgb(0, 0, 0)"
     fill-opacity="1"
     points="73.600,32.314 73.600,32.314 70.467,33.454 70.467,33.454 "
     id="polygon2626" />
  <polygon
     stroke="black"
     stroke-width="1"
     fill="rgb(0, 0, 0)"
     fill-opacity="1"
     points="70.467,33.454 70.467,33.454 67.133,33.454 67.133,33.454 "
     id="polygon2628" />
  <polygon
     stroke="black"
     stroke-width="1"
     fill="rgb(0, 0, 0)"
     fill-opacity="1"
     points="67.133,33.454 67.133,33.454 64.000,32.314 64.000,32.314 "
     id="polygon2630" />
  <polygon
     stroke="black"
     stroke-width="1"
     fill="rgb(0, 0, 0)"
     fill-opacity="1"
     points="64.000,32.314 64.000,32.314 61.446,30.171 61.446,30.171 "
     id="polygon2632" />
  <polygon
     stroke="black"
     stroke-width="1"
     fill="rgb(0, 0, 0)"
     fill-opacity="1"
     points="61.446,30.171 61.446,30.171 59.779,27.283 59.779,27.283 "
     id="polygon2634" />
  <polygon
     stroke="black"
     stroke-width="1"
     fill="rgb(0, 0, 0)"
     fill-opacity="1"
     points="59.779,27.283 59.779,27.283 59.200,24.000 59.200,24.000 "
     id="polygon2636" />
  <polygon
     stroke="black"
     stroke-width="1"
     fill="rgb(0, 0, 0)"
     fill-opacity="1"
     points="59.200,24.000 59.200,24.000 59.779,20.717 59.779,20.717 "
     id="polygon2638" />
  <polygon
     stroke="black"
     stroke-width="1"
     fill="rgb(0, 0, 0)"
     fill-opacity="1"
     points="59.779,20.717 59.779,20.717 61.446,17.829 61.446,17.829 "
     id="polygon2640" />
  <polygon
     stroke="black"
     stroke-width="1"
     fill="rgb(0, 0, 0)"
     fill-opacity="1"
     points="61.446,17.829 61.446,17.829 64.000,15.686 64.000,15.686 "
     id="polygon2642" />
  <polygon
     stroke="black"
     stroke-width="1"
     fill="rgb(0, 0, 0)"
     fill-opacity="1"
     points="64.000,15.686 64.000,15.686 67.133,14.546 67.133,14.546 "
     id="polygon2644" />
  <polygon
     stroke="black"
     stroke-width="1"
     fill="rgb(0, 0, 0)"
     fill-opacity="1"
     points="67.133,14.546 67.133,14.546 70.467,14.546 70.467,14.546 "
     id="polygon2646" />
  <polygon
     stroke="black"
     stroke-width="1"
     fill="rgb(0, 0, 0)"
     fill-opacity="1"
     points="70.467,14.546 70.467,14.546 73.600,15.686 73.600,15.686 "
     id="polygon2648" />
  <polygon
     stroke="black"
     stroke-width="1"
     fill="rgb(0, 0, 0)"
     fill-opacity="1"
     points="73.600,15.686 73.600,15.686 76.154,17.829 76.154,17.829 "
     id="polygon2650" />
  <polygon
     points="77.821,20.717 76.154,17.829 73.6,15.686 70.467,14.546 67.133,14.546 64,15.686 61.446,17.829 59.779,20.717 59.2,24 59.779,27.283 61.446,30.171 64,32.314 67.133,33.454 70.467,33.454 73.6,32.314 76.154,30.171 77.821,27.283 78.4,24 "
     id="polygon2652"
     style="fill:#ffff00;fill-opacity:1;stroke:#ffff00;stroke-width:1;stroke-miterlimit:4;stroke-dasharray:none"
     transform="translate(-2.5024414e-6)" />
  <polygon
     stroke="black"
     stroke-width="1"
     fill="rgb(0, 0, 0)"
     fill-opacity="1"
     points="49.600,24.000 49.600,24.000 49.021,27.283 49.021,27.283 "
     id="polygon2948" />
  <polygon
     stroke="black"
     stroke-width="1"
     fill="rgb(0, 0, 0)"
     fill-opacity="1"
     points="49.021,27.283 49.021,27.283 47.354,30.171 47.354,30.171 "
     id="polygon2950" />
  <polygon
     stroke="black"
     stroke-width="1"
     fill="rgb(0, 0, 0)"
     fill-opacity="1"
     points="47.354,30.171 47.354,30.171 44.800,32.314 44.800,32.314 "
     id="polygon2952" />
  <polygon
     stroke="black"
     stroke-width="1"
     fill="rgb(0, 0, 0)"
     fill-opacity="1"
     points="44.800,32.314 44.800,32.314 41.667,33.454 41.667,33.454 "
     id="polygon2954" />
  <polygon
     stroke="black"
     stroke-width="1"
     fill="rgb(0, 0, 0)"
     fill-opacity="1"
     points="41.667,33.454 41.667,33.454 38.333,33.454 38.333,33.454 "
     id="polygon2956" />
  <polygon
     stroke="black"
     stroke-width="1"
     fill="rgb(0, 0, 0)"
     fill-opacity="1"
     points="38.333,33.454 38.333,33.454 35.200,32.314 35.200,32.314 "
     id="polygon2958" />
  <polygon
     stroke="black"
     stroke-width="1"
     fill="rgb(0, 0, 0)"
     fill-opacity="1"
     points="35.200,32.314 35.200,32.314 32.646,30.171 32.646,30.171 "
     id="polygon2960" />
  <polygon
     stroke="black"
     stroke-width="1"
     fill="rgb(0, 0, 0)"
     fill-opacity="1"
     points="32.646,30.171 32.646,30.171 30.979,27.283 30.979,27.283 "
     id="polygon2962" />
  <polygon
     stroke="black"
     stroke-width="1"
     fill="rgb(0, 0, 0)"
     fill-opacity="1"
     points="30.979,27.283 30.979,27.283 30.400,24.000 30.400,24.000 "
     id="polygon2964" />
  <polygon
     stroke="black"
     stroke-width="1"
     fill="rgb(0, 0, 0)"
     fill-opacity="1"
     points="30.400,24.000 30.400,24.000 30.979,20.717 30.979,20.717 "
     id="polygon2966" />
  <polygon
     stroke="black"
     stroke-width="1"
     fill="rgb(0, 0, 0)"
     fill-opacity="1"
     points="30.979,20.717 30.979,20.717 32.646,17.829 32.646,17.829 "
     id="polygon2968" />
  <polygon
     stroke="black"
     stroke-width="1"
     fill="rgb(0, 0, 0)"
     fill-opacity="1"
     points="32.646,17.829 32.646,17.829 35.200,15.686 35.200,15.686 "
     id="polygon2970" />
  <polygon
     stroke="black"
     stroke-width="1"
     fill="rgb(0, 0, 0)"
     fill-opacity="1"
     points="35.200,15.686 35.200,15.686 38.333,14.546 38.333,14.546 "
     id="polygon2972" />
  <polygon
     stroke="black"
     stroke-width="1"
     fill="rgb(0, 0, 0)"
     fill-opacity="1"
     points="38.333,14.546 38.333,14.546 41.667,14.546 41.667,14.546 "
     id="polygon2974" />
  <polygon
     stroke="black"
     stroke-width="1"
     fill="rgb(0, 0, 0)"
     fill-opacity="1"
     points="41.667,14.546 41.667,14.546 44.800,15.686 44.800,15.686 "
     id="polygon2976" />
  <polygon
     stroke="black"
     stroke-width="1"
     fill="rgb(0, 0, 0)"
     fill-opacity="1"
     points="44.800,15.686 44.800,15.686 47.354,17.829 47.354,17.829 "
     id="polygon2978" />
  <polygon
     points="49.021,20.717 47.354,17.829 44.8,15.686 41.667,14.546 38.333,14.546 35.2,15.686 32.646,17.829 30.979,20.717 30.4,24 30.979,27.283 32.646,30.171 35.2,32.314 38.333,33.454 41.667,33.454 44.8,32.314 47.354,30.171 49.021,27.283 49.6,24 "
     id="polygon2980"
     style="fill:#0032ff;fill-opacity:1;stroke:#0032ff;stroke-width:1;stroke-opacity:1" />
  <polygon
     stroke="black"
     stroke-width="1"
     fill="rgb(0, 0, 0)"
     fill-opacity="1"
     points="107.200,24.000 107.200,24.000 106.621,27.283 106.621,27.283 "
     id="polygon2986" />
  <polygon
     stroke="black"
     stroke-width="1"
     fill="rgb(0, 0, 0)"
     fill-opacity="1"
     points="106.621,27.283 106.621,27.283 104.954,30.171 104.954,30.171 "
     id="polygon2988" />
  <polygon
     stroke="black"
     stroke-width="1"
     fill="rgb(0, 0, 0)"
     fill-opacity="1"
     points="104.954,30.171 104.954,30.171 102.400,32.314 102.400,32.314 "
     id="polygon2990" />
  <polygon
     stroke="black"
     stroke-width="1"
     fill="rgb(0, 0, 0)"
     fill-opacity="1"
     points="102.400,32.314 102.400,32.314 99.267,33.454 99.267,33.454 "
     id="polygon2992" />
  <polygon
     stroke="black"
     stroke-width="1"
     fill="rgb(0, 0, 0)"
     fill-opacity="1"
     points="99.267,33.454 99.267,33.454 95.933,33.454 95.933,33.454 "
     id="polygon2994" />
  <polygon
     stroke="black"
     stroke-width="1"
     fill="rgb(0, 0, 0)"
     fill-opacity="1"
     points="95.933,33.454 95.933,33.454 92.800,32.314 92.800,32.314 "
     id="polygon2996" />
  <polygon
     stroke="black"
     stroke-width="1"
     fill="rgb(0, 0, 0)"
     fill-opacity="1"
     points="92.800,32.314 92.800,32.314 90.246,30.171 90.246,30.171 "
     id="polygon2998" />
  <polygon
     stroke="black"
     stroke-width="1"
     fill="rgb(0, 0, 0)"
     fill-opacity="1"
     points="90.246,30.171 90.246,30.171 88.579,27.283 88.579,27.283 "
     id="polygon3000" />
  <polygon
     stroke="black"
     stroke-width="1"
     fill="rgb(0, 0, 0)"
     fill-opacity="1"
     points="88.579,27.283 88.579,27.283 88.000,24.000 88.000,24.000 "
     id="polygon3002" />
  <polygon
     stroke="black"
     stroke-width="1"
     fill="rgb(0, 0, 0)"
     fill-opacity="1"
     points="88.000,24.000 88.000,24.000 88.579,20.717 88.579,20.717 "
     id="polygon3004" />
  <polygon
     stroke="black"
     stroke-width="1"
     fill="rgb(0, 0, 0)"
     fill-opacity="1"
     points="88.579,20.717 88.579,20.717 90.246,17.829 90.246,17.829 "
     id="polygon3006" />
  <polygon
     stroke="black"
     stroke-width="1"
     fill="rgb(0, 0, 0)"
     fill-opacity="1"
     points="90.246,17.829 90.246,17.829 92.800,15.686 92.800,15.686 "
     id="polygon3008" />
  <polygon
     stroke="black"
     stroke-width="1"
     fill="rgb(0, 0, 0)"
     fill-opacity="1"
     points="92.800,15.686 92.800,15.686 95.933,14.546 95.933,14.546 "
     id="polygon3010" />
  <polygon
     stroke="black"
     stroke-width="1"
     fill="rgb(0, 0, 0)"
     fill-opacity="1"
     points="95.933,14.546 95.933,14.546 99.267,14.546 99.267,14.546 "
     id="polygon3012" />
  <polygon
     stroke="black"
     stroke-width="1"
     fill="rgb(0, 0, 0)"
     fill-opacity="1"
     points="99.267,14.546 99.267,14.546 102.400,15.686 102.400,15.686 "
     id="polygon3014" />
  <polygon
     stroke="black"
     stroke-width="1"
     fill="rgb(0, 0, 0)"
     fill-opacity="1"
     points="102.400,15.686 102.400,15.686 104.954,17.829 104.954,17.829 "
     id="polygon3016" />
  <polygon
     stroke="black"
     stroke-width="1"
     fill="rgb(0, 0, 0)"
     fill-opacity="1"
     points="106.621,27.283 107.200,24.000 106.621,20.717 104.954,17.829 102.400,15.686 99.267,14.546 95.933,14.546 92.800,15.686 90.246,17.829 88.579,20.717 88.000,24.000 88.579,27.283 90.246,30.171 92.800,32.314 95.933,33.454 99.267,33.454 102.400,32.314 104.954,30.171 "
     id="polygon3018"
     style="fill:#ffffff;stroke:#ffffff;paint-order:normal;stroke-width:1;stroke-miterlimit:4;stroke-dasharray:none" />
  <text
     xml:space="preserve"
     style="font-style:normal;font-variant:normal;font-weight:bold;font-stretch:normal;font-size:16px;line-height:1.25;font-family:Ubuntu;-inkscape-font-specification:'Ubuntu Bold';text-align:center;text-anchor:middle;opacity:1;fill:#000000;fill-opacity:1;fill-rule:nonzero;stroke:none;stroke-width:1;stroke-linecap:butt;stroke-linejoin:round;stroke-miterlimit:4;stroke-dasharray:none;stroke-dashoffset:0;stroke-opacity:1;paint-order:normal;"
     x="40"
     y="29.552"
     id="text3839"><tspan
       sodipodi:role="line"
       id="tspan3837"
       x="40"
       y="29.552">O</tspan></text>
  <text
     xml:space="preserve"
     style="font-style:normal;font-variant:normal;font-weight:bold;font-stretch:normal;font-size:16px;line-height:1.25;font-family:Ubuntu;-inkscape-font-specification:'Ubuntu Bold';text-align:center;text-anchor:middle;opacity:1;fill:#000000;fill-opacity:1;fill-rule:nonzero;stroke:none;stroke-width:1;stroke-linecap:butt;stroke-linejoin:round;stroke-miterlimit:4;stroke-dasharray:none;stroke-dashoffset:0;stroke-opacity:1;paint-order:normal;"
     x="68.791985"
     y="29.544001"
     id="text3843"><tspan
       sodipodi:role="line"
       id="tspan3841"
       x="68.791985"
       y="29.544001">M</tspan></text>
  <text
     xml:space="preserve"
     style="font-style:normal;font-variant:normal;font-weight:bold;font-stretch:normal;font-size:16px;line-height:1.25;font-family:Ubuntu;-inkscape-font-specification:'Ubuntu Bold';text-align:center;text-anchor:middle;opacity:1;fill:#000000;fill-opacity:1;fill-rule:nonzero;stroke:none;stroke-width:1;stroke-linecap:butt;stroke-linejoin:round;stroke-miterlimit:4;stroke-dasharray:none;stroke-dashoffset:0;stroke-opacity:1;paint-order:normal;"
     x="97.599991"
     y="29.544001"
     id="text3847"><tspan
       sodipodi:role="line"
       id="tspan3845"
       x="97.599991"
       y="29.544001">I</tspan></text>
  <circle
     style="opacity:1;fill:#999999;fill-opacity:1;fill-rule:nonzero;stroke:none;stroke-width:1;stroke-linecap:butt;stroke-linejoin:round;stroke-miterlimit:4;stroke-dasharray:none;stroke-dashoffset:0;stroke-opacity:1;paint-order:markers stroke fill"
     id="path3849"
     cx="48"
     cy="64"
     r="3.2" />
  <circle
     r="2.4000001"
     cy="64"
     cx="48"
     id="circle3851"
     style="opacity:1;fill:#ffffff;fill-opacity:1;fill-rule:nonzero;stroke:#ffffff;stroke-width:0.75;stroke-linecap:butt;stroke-linejoin:round;stroke-miterlimit:4;stroke-dasharray:none;stroke-dashoffset:0;stroke-opacity:1;paint-order:markers stroke fill" />
  <text
     xml:space="preserve"
     style="font-style:normal;font-variant:normal;font-weight:bold;font-stretch:normal;font-size:10.66666698px;line-height:1.25;font-family:Ubuntu;-inkscape-font-specification:'Ubuntu Bold';text-align:center;text-anchor:middle;opacity:1;fill:#f9f9f9;fill-opacity:1;fill-rule:nonzero;stroke:#000000;stroke-width:1;stroke-linecap:butt;stroke-linejoin:round;stroke-miterlimit:4;stroke-dasharray:none;stroke-dashoffset:0;stroke-opacity:1;paint-order:markers stroke fill"
     x="27.90291"
     y="68.138573"
     id="text3859"><tspan
       sodipodi:role="line"
       id="tspan3857"
       x="27.90291"
       y="68.138573">LO</tspan></text>
  <text
     xml:space="preserve"
     style="font-style:normal;font-variant:normal;font-weight:bold;font-stretch:normal;font-size:10.66666698px;line-height:1.25;font-family:Ubuntu;-inkscape-font-specification:'Ubuntu Bold';text-align:center;text-anchor:middle;opacity:1;fill:#f9f9f9;fill-opacity:1;fill-rule:nonzero;stroke:#000000;stroke-width:1;stroke-linecap:butt;stroke-linejoin:round;stroke-miterlimit:4;stroke-dasharray:none;stroke-dashoffset:0;stroke-opacity:1;paint-order:markers stroke fill"
     x="36.06823"
     y="83.012932"
     id="text3863"><tspan
       sodipodi:role="line"
       id="tspan3861"
       x="36.06823"
       y="83.012932">MUTE</tspan></text>
  <text
     xml:space="preserve"
     style="font-style:normal;font-variant:normal;font-weight:bold;font-stretch:normal;font-size:10.66666698px;line-height:1.25;font-family:Ubuntu;-inkscape-font-specification:'Ubuntu Bold';text-align:center;text-anchor:middle;opacity:1;fill:#ffffff;fill-opacity:1;fill-rule:nonzero;stroke:none;stroke-width:1;stroke-linecap:butt;stroke-linejoin:round;stroke-miterlimit:4;stroke-dasharray:none;stroke-dashoffset:0;stroke-opacity:1;paint-order:markers stroke fill"
     x="77.113495"
     y="53.25"
     id="text3869"><tspan
       sodipodi:role="line"
       id="tspan3867"
       x="77.113495"
       y="53.25">SPKR</tspan></text>
  <text
     xml:space="preserve"
     style="font-style:normal;font-variant:normal;font-weight:bold;font-stretch:normal;font-size:10.66666698px;line-height:1.25;font-family:Ubuntu;-inkscape-font-specification:'Ubuntu Bold';text-align:center;text-anchor:middle;opacity:1;fill:#ffffff;fill-opacity:1;fill-rule:nonzero;stroke:none;stroke-width:1;stroke-linecap:butt;stroke-linejoin:round;stroke-miterlimit:4;stroke-dasharray:none;stroke-dashoffset:0;stroke-opacity:1;paint-order:markers stroke fill"
     x="73.566841"
     y="68.105003"
     id="text3873"><tspan
       sodipodi:role="line"
       id="tspan3871"
       x="73.566841"
       y="68.105003">OFF</tspan></text>
  <text
     xml:space="preserve"
     style="font-style:normal;font-variant:normal;font-weight:bold;font-stretch:normal;font-size:10.66666698px;line-height:1.25;font-family:Ubuntu;-inkscape-font-specification:'Ubuntu Bold';text-align:center;text-anchor:middle;opacity:1;fill:#ffffff;fill-opacity:1;fill-rule:nonzero;stroke:none;stroke-width:1;stroke-linecap:butt;stroke-linejoin:round;stroke-miterlimit:4;stroke-dasharray:none;stroke-dashoffset:0;stroke-opacity:1;paint-order:markers stroke fill"
     x="74.292168"
     y="83"
     id="text3877"><tspan
       sodipodi:role="line"
       x="74.292168"
       y="83"
       id="tspan3879">PHN</tspan></text>
  <text
     xml:space="preserve"
     style="font-style:normal;font-variant:normal;font-weight:bold;font-stretch:normal;font-size:10.66666698px;line-height:1.25;font-family:Ubuntu;-inkscape-font-specification:'Ubuntu Bold';text-align:center;text-anchor:middle;opacity:1;fill:#ffffff;fill-opacity:1;fill-rule:nonzero;stroke:none;stroke-width:1;stroke-linecap:butt;stroke-linejoin:round;stroke-miterlimit:4;stroke-dasharray:none;stroke-dashoffset:0;stroke-opacity:1;paint-order:markers stroke fill"
     x="57.5"
     y="105.5"
     id="text3885"><tspan
       sodipodi:role="line"
       id="tspan3883"
       x="57.5"
       y="105.5">MKR BCN</tspan></text>
  <path
     style="fill:none;stroke:#ffffff;stroke-width:3;stroke-linecap:butt;stroke-linejoin:miter;stroke-opacity:1;stroke-miterlimit:4;stroke-dasharray:none"
     d="M 30,102 H 13 V 92"
     id="path3887"
     inkscape:connector-curvature="0" />
  <path
     style="fill:none;stroke:#ffffff;stroke-width:3;stroke-linecap:butt;stroke-linejoin:miter;stroke-opacity:1;stroke-miterlimit:4;stroke-dasharray:none"
     d="M 84,102 H 97.934289 V 92"
     id="path3889"
     inkscape:connector-curvature="0" />
  <text
     xml:space="preserve"
     style="font-style:normal;font-variant:normal;font-weight:bold;font-stretch:normal;font-size:10.66666698px;line-height:1.25;font-family:Ubuntu;-inkscape-font-specification:'Ubuntu Bold';text-align:center;text-anchor:middle;opacity:1;fill:#ffffff;fill-opacity:1;fill-rule:nonzero;stroke:none;stroke-width:1;stroke-linecap:butt;stroke-linejoin:round;stroke-miterlimit:4;stroke-dasharray:none;stroke-dashoffset:0;stroke-opacity:1;paint-order:normal"
     x="151.66727"
     y="30.474874"
     id="text893"><tspan
       sodipodi:role="line"
       id="tspan891"
       x="151.66727"
       y="30.474874">XMTTR</tspan><tspan
       sodipodi:role="line"
       x="151.66727"
       y="43.808205"
       id="tspan895">1</tspan></text>
  <text
     xml:space="preserve"
     style="font-style:normal;font-variant:normal;font-weight:bold;font-stretch:normal;font-size:10.66666698px;line-height:1.25;font-family:Ubuntu;-inkscape-font-specification:'Ubuntu Bold';text-align:center;text-anchor:middle;opacity:1;fill:#ffffff;fill-opacity:1;fill-rule:nonzero;stroke:none;stroke-width:1;stroke-linecap:butt;stroke-linejoin:round;stroke-miterlimit:4;stroke-dasharray:none;stroke-dashoffset:0;stroke-opacity:1;paint-order:normal"
     x="151.69926"
     y="90.474869"
     id="text899"><tspan
       sodipodi:role="line"
       id="tspan897"
       x="151.69926"
       y="90.474869">2</tspan></text>
  <text
     xml:space="preserve"
     style="font-style:normal;font-variant:normal;font-weight:bold;font-stretch:normal;font-size:10.66666698px;line-height:1.25;font-family:Ubuntu;-inkscape-font-specification:'Ubuntu Bold';text-align:center;text-anchor:middle;opacity:1;fill:#ffffff;fill-opacity:1;fill-rule:nonzero;stroke:none;stroke-width:1;stroke-linecap:butt;stroke-linejoin:round;stroke-miterlimit:4;stroke-dasharray:none;stroke-dashoffset:0;stroke-opacity:1;paint-order:normal"
     x="216"
     y="54.278564"
     id="text903"><tspan
       sodipodi:role="line"
       id="tspan901"
       x="216"
       y="54.278564">AUTO</tspan></text>
  <text
     xml:space="preserve"
     style="font-style:normal;font-variant:normal;font-weight:bold;font-stretch:normal;font-size:10.66666698px;line-height:1.25;font-family:Ubuntu;-inkscape-font-specification:'Ubuntu Bold';text-align:center;text-anchor:middle;opacity:1;fill:#ffffff;fill-opacity:1;fill-rule:nonzero;stroke:none;stroke-width:1;stroke-linecap:butt;stroke-linejoin:round;stroke-miterlimit:4;stroke-dasharray:none;stroke-dashoffset:0;stroke-opacity:1;paint-order:normal"
     x="255.25"
     y="54.278564"
     id="text907"><tspan
       sodipodi:role="line"
       id="tspan905"
       x="255.25"
       y="54.278564">BOTH</tspan></text>
  <text
     xml:space="preserve"
     style="font-style:normal;font-variant:normal;font-weight:bold;font-stretch:normal;font-size:10.66666698px;line-height:1.25;font-family:Ubuntu;-inkscape-font-specification:'Ubuntu Bold';text-align:center;text-anchor:middle;opacity:1;fill:#ffffff;fill-opacity:1;fill-rule:nonzero;stroke:none;stroke-width:1;stroke-linecap:butt;stroke-linejoin:round;stroke-miterlimit:4;stroke-dasharray:none;stroke-dashoffset:0;stroke-opacity:1;paint-order:normal"
     x="234.25"
     y="41.858757"
     id="text911"><tspan
       sodipodi:role="line"
       id="tspan909"
       x="234.25"
       y="41.858757">COM</tspan></text>
  <text
     xml:space="preserve"
     style="font-style:normal;font-variant:normal;font-weight:bold;font-stretch:normal;font-size:10.66666698px;line-height:1.25;font-family:Ubuntu;-inkscape-font-specification:'Ubuntu Bold';text-align:center;text-anchor:middle;opacity:1;fill:#ffffff;fill-opacity:1;fill-rule:nonzero;stroke:none;stroke-width:1;stroke-linecap:butt;stroke-linejoin:round;stroke-miterlimit:4;stroke-dasharray:none;stroke-dashoffset:0;stroke-opacity:1;paint-order:normal"
     x="316.625"
     y="67.75"
     id="text904"><tspan
       sodipodi:role="line"
       id="tspan902"
       x="316.625"
       y="67.75">OFF</tspan></text>
  <text
     xml:space="preserve"
     style="font-style:normal;font-variant:normal;font-weight:bold;font-stretch:normal;font-size:10.66666698px;line-height:1.25;font-family:Ubuntu;-inkscape-font-specification:'Ubuntu Bold';text-align:center;text-anchor:middle;opacity:1;fill:#ffffff;fill-opacity:1;fill-rule:nonzero;stroke:none;stroke-width:1;stroke-linecap:butt;stroke-linejoin:round;stroke-miterlimit:4;stroke-dasharray:none;stroke-dashoffset:0;stroke-opacity:1;paint-order:normal"
     x="295.5"
     y="54.267899"
     id="text908"><tspan
       sodipodi:role="line"
       id="tspan906"
       x="295.5"
       y="54.267899">1</tspan></text>
  <text
     xml:space="preserve"
     style="font-style:normal;font-variant:normal;font-weight:bold;font-stretch:normal;font-size:10.66666698px;line-height:1.25;font-family:Ubuntu;-inkscape-font-specification:'Ubuntu Bold';text-align:center;text-anchor:middle;opacity:1;fill:#ffffff;fill-opacity:1;fill-rule:nonzero;stroke:none;stroke-width:1;stroke-linecap:butt;stroke-linejoin:round;stroke-miterlimit:4;stroke-dasharray:none;stroke-dashoffset:0;stroke-opacity:1;paint-order:normal"
     x="336.03552"
     y="54.35323"
     id="text912"><tspan
       sodipodi:role="line"
       id="tspan910"
       x="336.03552"
       y="54.35323">2</tspan></text>
  <text
     xml:space="preserve"
     style="font-style:normal;font-variant:normal;font-weight:bold;font-stretch:normal;font-size:10.66666698px;line-height:1.25;font-family:Ubuntu;-inkscape-font-specification:'Ubuntu Bold';text-align:center;text-anchor:middle;opacity:1;fill:#ffffff;fill-opacity:1;fill-rule:nonzero;stroke:none;stroke-width:1;stroke-linecap:butt;stroke-linejoin:round;stroke-miterlimit:4;stroke-dasharray:none;stroke-dashoffset:0;stroke-opacity:1;paint-order:normal"
     x="316.5"
     y="41.688091"
     id="text916"><tspan
       sodipodi:role="line"
       id="tspan914"
       x="316.5"
       y="41.688091">NAV</tspan></text>
  <text
     xml:space="preserve"
     style="font-style:normal;font-variant:normal;font-weight:bold;font-stretch:normal;font-size:10.66666698px;line-height:1.25;font-family:Ubuntu;-inkscape-font-specification:'Ubuntu Bold';text-align:center;text-anchor:middle;opacity:1;fill:#ffffff;fill-opacity:1;fill-rule:nonzero;stroke:none;stroke-width:1;stroke-linecap:butt;stroke-linejoin:round;stroke-miterlimit:4;stroke-dasharray:none;stroke-dashoffset:0;stroke-opacity:1;paint-order:normal"
     x="376.31372"
     y="41.773422"
     id="text920"><tspan
       sodipodi:role="line"
       id="tspan918"
       x="376.31372"
       y="41.773422">ADF</tspan></text>
  <text
     xml:space="preserve"
     style="font-style:normal;font-variant:normal;font-weight:bold;font-stretch:normal;font-size:10.66666698px;line-height:1.25;font-family:Ubuntu;-inkscape-font-specification:'Ubuntu Bold';text-align:center;text-anchor:middle;opacity:1;fill:#ffffff;fill-opacity:1;fill-rule:nonzero;stroke:none;stroke-width:1;stroke-linecap:butt;stroke-linejoin:round;stroke-miterlimit:4;stroke-dasharray:none;stroke-dashoffset:0;stroke-opacity:1;paint-order:normal"
     x="415.30331"
     y="41.773422"
     id="text924"><tspan
       sodipodi:role="line"
       id="tspan922"
       x="415.30331"
       y="41.773422">DME</tspan></text>
  <text
     xml:space="preserve"
     style="font-style:normal;font-variant:normal;font-weight:bold;font-stretch:normal;font-size:10.66666698px;line-height:1.25;font-family:Ubuntu;-inkscape-font-specification:'Ubuntu Bold';text-align:center;text-anchor:middle;opacity:1;fill:#ffffff;fill-opacity:1;fill-rule:nonzero;stroke:none;stroke-width:1;stroke-linecap:butt;stroke-linejoin:round;stroke-miterlimit:4;stroke-dasharray:none;stroke-dashoffset:0;stroke-opacity:1;paint-order:normal"
     x="446.40839"
     y="67.673149"
     id="text928"><tspan
       sodipodi:role="line"
       id="tspan926"
       x="446.40839"
       y="67.673149">DAY</tspan></text>
  <text
     xml:space="preserve"
     style="font-style:normal;font-variant:normal;font-weight:bold;font-stretch:normal;font-size:10.66666698px;line-height:1.25;font-family:Ubuntu;-inkscape-font-specification:'Ubuntu Bold';text-align:center;text-anchor:middle;opacity:1;fill:#ffffff;fill-opacity:1;fill-rule:nonzero;stroke:none;stroke-width:1;stroke-linecap:butt;stroke-linejoin:round;stroke-miterlimit:4;stroke-dasharray:none;stroke-dashoffset:0;stroke-opacity:1;paint-order:normal"
     x="449.19238"
     y="81.371323"
     id="text932"><tspan
       sodipodi:role="line"
       id="tspan930"
       x="449.19238"
       y="81.371323">TEST</tspan></text>
  <text
     xml:space="preserve"
     style="font-style:normal;font-variant:normal;font-weight:bold;font-stretch:normal;font-size:10.66666698px;line-height:1.25;font-family:Ubuntu;-inkscape-font-specification:'Ubuntu Bold';text-align:center;text-anchor:middle;opacity:1;fill:#ffffff;fill-opacity:1;fill-rule:nonzero;stroke:none;stroke-width:1;stroke-linecap:butt;stroke-linejoin:round;stroke-miterlimit:4;stroke-dasharray:none;stroke-dashoffset:0;stroke-opacity:1;paint-order:normal"
     x="447.99771"
     y="53.996319"
     id="text936"><tspan
       sodipodi:role="line"
       id="tspan934"
       x="447.99771"
       y="53.996319">NITE</tspan></text>
  <text
     xml:space="preserve"
     style="font-style:normal;font-variant:normal;font-weight:bold;font-stretch:normal;font-size:10.66666698px;line-height:1.25;font-family:Ubuntu;-inkscape-font-specification:'Ubuntu Bold';text-align:center;text-anchor:middle;opacity:1;fill:#ffffff;fill-opacity:1;fill-rule:nonzero;stroke:none;stroke-width:1;stroke-linecap:butt;stroke-linejoin:round;stroke-miterlimit:4;stroke-dasharray:none;stroke-dashoffset:0;stroke-opacity:1;paint-order:normal"
     x="460.30026"
     y="28.128679"
     id="text940"><tspan
       sodipodi:role="line"
       id="tspan938"
       x="460.30026"
       y="28.128679">ANN LTS</tspan></text>
  <text
     xml:space="preserve"
     style="font-style:normal;font-variant:normal;font-weight:bold;font-stretch:normal;font-size:10.66666698px;line-height:1.25;font-family:Ubuntu;-inkscape-font-specification:'Ubuntu Bold';text-align:center;text-anchor:middle;opacity:1;fill:#ffffff;fill-opacity:1;fill-rule:nonzero;stroke:none;stroke-width:1;stroke-linecap:butt;stroke-linejoin:round;stroke-miterlimit:4;stroke-dasharray:none;stroke-dashoffset:0;stroke-opacity:1;paint-order:normal"
     x="316.44333"
     y="93"
     id="text944"><tspan
       sodipodi:role="line"
       id="tspan942"
       x="316.44333"
       y="93">PHONE</tspan></text>
  <text
     xml:space="preserve"
     style="font-style:normal;font-variant:normal;font-weight:bold;font-stretch:normal;font-size:10.66666698px;line-height:1.25;font-family:Ubuntu;-inkscape-font-specification:'Ubuntu Bold';text-align:center;text-anchor:middle;opacity:1;fill:#ffffff;fill-opacity:1;fill-rule:nonzero;stroke:none;stroke-width:1;stroke-linecap:butt;stroke-linejoin:round;stroke-miterlimit:4;stroke-dasharray:none;stroke-dashoffset:0;stroke-opacity:1;paint-order:normal"
     x="316.59265"
     y="24.5"
     id="text948"><tspan
       sodipodi:role="line"
       id="tspan946"
       x="316.59265"
       y="24.5">SPEAKER</tspan></text>
  <path
     style="fill:none;stroke:#ffffff;stroke-width:3;stroke-linecap:butt;stroke-linejoin:miter;stroke-opacity:1;stroke-miterlimit:4;stroke-dasharray:none"
     d="M 290,21 H 213.625 V 33"
     id="path950"
     inkscape:connector-curvature="0" />
  <path
     style="fill:none;stroke:#ffffff;stroke-width:3;stroke-linecap:butt;stroke-linejoin:miter;stroke-opacity:1;stroke-miterlimit:4;stroke-dasharray:none"
     d="m 344,21 h 71 v 9.596041"
     id="path952"
     inkscape:connector-curvature="0" />
  <path
     style="opacity:1;fill:none;fill-opacity:1;fill-rule:nonzero;stroke:#ffffff;stroke-width:3;stroke-linecap:butt;stroke-linejoin:miter;stroke-miterlimit:4;stroke-dasharray:none;stroke-dashoffset:0;stroke-opacity:1;paint-order:normal"
     d="m 339,89 h 76 V 78"
     id="path954"
     inkscape:connector-curvature="0"
     sodipodi:nodetypes="ccc" />
  <path
     style="opacity:1;fill:none;fill-opacity:1;fill-rule:nonzero;stroke:#ffffff;stroke-width:3;stroke-linecap:butt;stroke-linejoin:miter;stroke-miterlimit:4;stroke-dasharray:none;stroke-dashoffset:0;stroke-opacity:1;paint-order:normal"
     d="M 295,89 H 213.25 V 78"
     id="path956"
     inkscape:connector-curvature="0"
     sodipodi:nodetypes="ccc" />
</svg>
