<?xml version="1.0" encoding="UTF-8" standalone="no"?>
<svg
   xmlns:dc="http://purl.org/dc/elements/1.1/"
   xmlns:cc="http://creativecommons.org/ns#"
   xmlns:rdf="http://www.w3.org/1999/02/22-rdf-syntax-ns#"
   xmlns:svg="http://www.w3.org/2000/svg"
   xmlns="http://www.w3.org/2000/svg"
   xmlns:sodipodi="http://sodipodi.sourceforge.net/DTD/sodipodi-0.dtd"
   xmlns:inkscape="http://www.inkscape.org/namespaces/inkscape"
   width="32"
   height="256"
   viewBox="0 0 32 256"
   version="1.1"
   id="svg150"
   sodipodi:docname="fuel-select.svg"
   inkscape:version="0.92.5 (2060ec1f9f, 2020-04-08)"
   inkscape:export-filename="/mnt/DATEN/blender-2.83.0-linux64/2.83/datafiles/colormanagement/filmic/fgfs-addons/Aircraft/c210-family/Models/Interior/Panel/Controls/fuel-select/fuel-select.png"
   inkscape:export-xdpi="96"
   inkscape:export-ydpi="96">
  <metadata
     id="metadata156">
    <rdf:RDF>
      <cc:Work
         rdf:about="">
        <dc:format>image/svg+xml</dc:format>
        <dc:type
           rdf:resource="http://purl.org/dc/dcmitype/StillImage" />
      </cc:Work>
    </rdf:RDF>
  </metadata>
  <defs
     id="defs154" />
  <sodipodi:namedview
     pagecolor="#ffffff"
     bordercolor="#666666"
     borderopacity="1"
     objecttolerance="10"
     gridtolerance="10"
     guidetolerance="10"
     inkscape:pageopacity="0"
     inkscape:pageshadow="2"
     inkscape:window-width="1362"
     inkscape:window-height="706"
     id="namedview152"
     showgrid="false"
     inkscape:zoom="1.3037281"
     inkscape:cx="-128.35236"
     inkscape:cy="115.39567"
     inkscape:window-x="0"
     inkscape:window-y="0"
     inkscape:window-maximized="1"
     inkscape:current-layer="svg150"
     inkscape:snap-midpoints="true"
     inkscape:object-paths="true"
     inkscape:snap-smooth-nodes="true"
     inkscape:snap-intersection-paths="true"
     inkscape:snap-center="true"
     inkscape:snap-text-baseline="true"
     inkscape:snap-object-midpoints="true" />
  <desc
     id="desc2">fuel-select.blend, (Blender 2.83.0)</desc>
  <g
     id="g1036"
     style="fill:#1a1a1a;stroke:#1a1a1a;fill-opacity:1;stroke-opacity:1">
    <polygon
       id="polygon4"
       points="6.221,110.225 12.428,248.913 19.596,248.913 25.779,110.225 "
       fill-opacity="1"
       fill="rgb(204, 204, 204)"
       stroke-width="1"
       stroke="black"
       style="fill:#1a1a1a;stroke:#1a1a1a;fill-opacity:1;stroke-opacity:1" />
    <polygon
       id="polygon6"
       points="30.376,41.967 19.597,56.020 12.403,56.020 1.630,41.968 5.684,7.026 8.077,2.058 12.701,0.000 19.324,0.000 23.947,2.058 26.338,7.026 "
       fill-opacity="1"
       fill="rgb(204, 204, 204)"
       stroke-width="1"
       stroke="black"
       style="fill:#1a1a1a;stroke:#1a1a1a;fill-opacity:1;stroke-opacity:1" />
    <polygon
       id="polygon8"
       points="0.000,110.225 0.000,96.050 0.541,106.073 "
       fill-opacity="1"
       fill="rgb(204, 204, 204)"
       stroke-width="1"
       stroke="black"
       style="fill:#1a1a1a;stroke:#1a1a1a;fill-opacity:1;stroke-opacity:1" />
    <polygon
       id="polygon10"
       points="12.726,256.000 8.248,253.927 6.207,248.922 0.634,124.381 12.403,110.225 19.597,110.225 31.369,124.381 25.816,248.922 23.777,253.927 19.299,256.000 "
       fill-opacity="1"
       fill="rgb(204, 204, 204)"
       stroke-width="1"
       stroke="black"
       style="fill:#1a1a1a;stroke:#1a1a1a;fill-opacity:1;stroke-opacity:1" />
    <polygon
       id="polygon12"
       points="32.000,56.020 32.000,56.020 30.376,41.967 26.338,7.026 26.338,7.026 "
       fill-opacity="1"
       fill="rgb(204, 204, 204)"
       stroke-width="1"
       stroke="black"
       style="fill:#1a1a1a;stroke:#1a1a1a;fill-opacity:1;stroke-opacity:1" />
    <polygon
       id="polygon14"
       points="6.207,248.922 0.000,110.225 0.000,110.225 0.634,124.381 6.207,248.922 "
       fill-opacity="1"
       fill="rgb(204, 204, 204)"
       stroke-width="1"
       stroke="black"
       style="fill:#1a1a1a;stroke:#1a1a1a;fill-opacity:1;stroke-opacity:1" />
    <polygon
       id="polygon16"
       points="12.701,0.000 19.324,0.000 19.324,0.000 12.701,0.000 "
       fill-opacity="1"
       fill="rgb(204, 204, 204)"
       stroke-width="1"
       stroke="black"
       style="fill:#1a1a1a;stroke:#1a1a1a;fill-opacity:1;stroke-opacity:1" />
    <polygon
       id="polygon18"
       points="0.000,96.050 0.000,70.194 0.000,70.194 0.000,96.050 "
       fill-opacity="1"
       fill="rgb(204, 204, 204)"
       stroke-width="1"
       stroke="black"
       style="fill:#1a1a1a;stroke:#1a1a1a;fill-opacity:1;stroke-opacity:1" />
    <polygon
       id="polygon20"
       points="6.221,110.225 25.779,110.225 25.777,56.020 6.223,56.020 "
       fill-opacity="1"
       fill="rgb(204, 204, 204)"
       stroke-width="1"
       stroke="black"
       style="fill:#1a1a1a;stroke:#1a1a1a;fill-opacity:1;stroke-opacity:1" />
    <polygon
       id="polygon22"
       points="32.000,110.225 25.816,248.922 25.816,248.922 31.369,124.381 32.000,110.225 "
       fill-opacity="1"
       fill="rgb(204, 204, 204)"
       stroke-width="1"
       stroke="black"
       style="fill:#1a1a1a;stroke:#1a1a1a;fill-opacity:1;stroke-opacity:1" />
    <polygon
       id="polygon24"
       points="6.223,56.020 25.777,56.020 20.121,7.088 11.901,7.088 "
       fill-opacity="1"
       fill="rgb(204, 204, 204)"
       stroke-width="1"
       stroke="black"
       style="fill:#1a1a1a;stroke:#1a1a1a;fill-opacity:1;stroke-opacity:1" />
    <polygon
       id="polygon26"
       points="32.000,110.225 32.000,110.225 32.000,96.050 32.000,70.194 32.000,56.020 32.000,56.020 "
       fill-opacity="1"
       fill="rgb(204, 204, 204)"
       stroke-width="1"
       stroke="black"
       style="fill:#1a1a1a;stroke:#1a1a1a;fill-opacity:1;stroke-opacity:1" />
    <polygon
       id="polygon28"
       points="1.630,41.968 0.000,56.020 0.000,56.020 5.684,7.026 5.684,7.026 "
       fill-opacity="1"
       fill="rgb(204, 204, 204)"
       stroke-width="1"
       stroke="black"
       style="fill:#1a1a1a;stroke:#1a1a1a;fill-opacity:1;stroke-opacity:1" />
    <polygon
       id="polygon30"
       points="0.000,96.050 0.000,110.225 0.000,110.225 0.000,56.020 0.000,56.020 0.000,70.194 "
       fill-opacity="1"
       fill="rgb(204, 204, 204)"
       stroke-width="1"
       stroke="black"
       style="fill:#1a1a1a;stroke:#1a1a1a;fill-opacity:1;stroke-opacity:1" />
    <polygon
       id="polygon32"
       points="32.000,70.194 32.000,96.050 32.000,96.050 32.000,70.194 "
       fill-opacity="1"
       fill="rgb(204, 204, 204)"
       stroke-width="1"
       stroke="black"
       style="fill:#1a1a1a;stroke:#1a1a1a;fill-opacity:1;stroke-opacity:1" />
    <polygon
       id="polygon34"
       points="12.403,56.020 19.597,56.020 19.597,56.020 12.403,56.020 "
       fill-opacity="1"
       fill="rgb(204, 204, 204)"
       stroke-width="1"
       stroke="black"
       style="fill:#1a1a1a;stroke:#1a1a1a;fill-opacity:1;stroke-opacity:1" />
    <polygon
       id="polygon36"
       points="12.726,256.000 12.577,253.924 9.002,253.022 8.248,253.927 "
       fill-opacity="1"
       fill="rgb(204, 204, 204)"
       stroke-width="1"
       stroke="black"
       style="fill:#1a1a1a;stroke:#1a1a1a;fill-opacity:1;stroke-opacity:1" />
    <polygon
       id="polygon38"
       points="12.428,248.913 8.032,248.992 9.002,253.022 12.577,253.924 "
       fill-opacity="1"
       fill="rgb(204, 204, 204)"
       stroke-width="1"
       stroke="black"
       style="fill:#1a1a1a;stroke:#1a1a1a;fill-opacity:1;stroke-opacity:1" />
    <polygon
       id="polygon40"
       points="6.207,248.922 8.248,253.927 9.002,253.022 8.032,248.992 "
       fill-opacity="1"
       fill="rgb(204, 204, 204)"
       stroke-width="1"
       stroke="black"
       style="fill:#1a1a1a;stroke:#1a1a1a;fill-opacity:1;stroke-opacity:1" />
    <polygon
       id="polygon42"
       points="19.596,248.913 19.382,253.922 23.009,253.006 23.991,248.917 "
       fill-opacity="1"
       fill="rgb(204, 204, 204)"
       stroke-width="1"
       stroke="black"
       style="fill:#1a1a1a;stroke:#1a1a1a;fill-opacity:1;stroke-opacity:1" />
    <polygon
       id="polygon44"
       points="19.299,256.000 23.781,253.929 23.009,253.006 19.382,253.922 "
       fill-opacity="1"
       fill="rgb(204, 204, 204)"
       stroke-width="1"
       stroke="black"
       style="fill:#1a1a1a;stroke:#1a1a1a;fill-opacity:1;stroke-opacity:1" />
    <polygon
       id="polygon46"
       points="25.816,248.922 23.991,248.917 23.009,253.006 23.781,253.929 "
       fill-opacity="1"
       fill="rgb(204, 204, 204)"
       stroke-width="1"
       stroke="black"
       style="fill:#1a1a1a;stroke:#1a1a1a;fill-opacity:1;stroke-opacity:1" />
    <polygon
       id="polygon48"
       points="5.684,7.026 7.508,7.057 8.779,2.983 8.074,2.045 "
       fill-opacity="1"
       fill="rgb(204, 204, 204)"
       stroke-width="1"
       stroke="black"
       style="fill:#1a1a1a;stroke:#1a1a1a;fill-opacity:1;stroke-opacity:1" />
    <polygon
       id="polygon50"
       points="11.901,7.088 12.470,2.089 8.779,2.983 7.508,7.057 "
       fill-opacity="1"
       fill="rgb(204, 204, 204)"
       stroke-width="1"
       stroke="black"
       style="fill:#1a1a1a;stroke:#1a1a1a;fill-opacity:1;stroke-opacity:1" />
    <polygon
       id="polygon52"
       points="12.701,0.000 8.074,2.045 8.779,2.983 12.470,2.089 "
       fill-opacity="1"
       fill="rgb(204, 204, 204)"
       stroke-width="1"
       stroke="black"
       style="fill:#1a1a1a;stroke:#1a1a1a;fill-opacity:1;stroke-opacity:1" />
    <polygon
       id="polygon54"
       points="20.121,7.088 24.495,6.865 23.275,2.943 19.722,2.076 "
       fill-opacity="1"
       fill="rgb(204, 204, 204)"
       stroke-width="1"
       stroke="black"
       style="fill:#1a1a1a;stroke:#1a1a1a;fill-opacity:1;stroke-opacity:1" />
    <polygon
       id="polygon56"
       points="26.338,7.026 23.947,2.058 23.275,2.943 24.495,6.865 "
       fill-opacity="1"
       fill="rgb(204, 204, 204)"
       stroke-width="1"
       stroke="black"
       style="fill:#1a1a1a;stroke:#1a1a1a;fill-opacity:1;stroke-opacity:1" />
    <polygon
       id="polygon58"
       points="19.324,0.000 19.722,2.076 23.275,2.943 23.947,2.058 "
       fill-opacity="1"
       fill="rgb(204, 204, 204)"
       stroke-width="1"
       stroke="black"
       style="fill:#1a1a1a;stroke:#1a1a1a;fill-opacity:1;stroke-opacity:1" />
    <polygon
       id="polygon60"
       points="6.207,248.922 6.207,248.922 8.248,253.927 8.248,253.927 "
       fill-opacity="1"
       fill="rgb(204, 204, 204)"
       stroke-width="1"
       stroke="black"
       style="fill:#1a1a1a;stroke:#1a1a1a;fill-opacity:1;stroke-opacity:1" />
    <polygon
       id="polygon62"
       points="8.248,253.927 8.248,253.927 12.726,256.000 12.726,256.000 "
       fill-opacity="1"
       fill="rgb(204, 204, 204)"
       stroke-width="1"
       stroke="black"
       style="fill:#1a1a1a;stroke:#1a1a1a;fill-opacity:1;stroke-opacity:1" />
    <polygon
       id="polygon64"
       points="12.428,248.913 6.221,110.225 1.822,110.225 8.032,248.992 "
       fill-opacity="1"
       fill="rgb(204, 204, 204)"
       stroke-width="1"
       stroke="black"
       style="fill:#1a1a1a;stroke:#1a1a1a;fill-opacity:1;stroke-opacity:1" />
    <polygon
       id="polygon66"
       points="8.032,248.992 1.822,110.225 0.000,110.225 6.207,248.922 "
       fill-opacity="1"
       fill="rgb(204, 204, 204)"
       stroke-width="1"
       stroke="black"
       style="fill:#1a1a1a;stroke:#1a1a1a;fill-opacity:1;stroke-opacity:1" />
    <polygon
       id="polygon68"
       points="25.779,110.225 19.596,248.913 23.991,248.917 30.178,110.225 "
       fill-opacity="1"
       fill="rgb(204, 204, 204)"
       stroke-width="1"
       stroke="black"
       style="fill:#1a1a1a;stroke:#1a1a1a;fill-opacity:1;stroke-opacity:1" />
    <polygon
       id="polygon70"
       points="30.178,110.225 23.991,248.917 25.816,248.922 32.000,110.225 "
       fill-opacity="1"
       fill="rgb(204, 204, 204)"
       stroke-width="1"
       stroke="black"
       style="fill:#1a1a1a;stroke:#1a1a1a;fill-opacity:1;stroke-opacity:1" />
    <polygon
       id="polygon72"
       points="19.299,256.000 19.299,256.000 23.777,253.927 23.781,253.929 "
       fill-opacity="1"
       fill="rgb(204, 204, 204)"
       stroke-width="1"
       stroke="black"
       style="fill:#1a1a1a;stroke:#1a1a1a;fill-opacity:1;stroke-opacity:1" />
    <polygon
       id="polygon74"
       points="23.781,253.929 23.777,253.927 25.816,248.922 25.816,248.922 "
       fill-opacity="1"
       fill="rgb(204, 204, 204)"
       stroke-width="1"
       stroke="black"
       style="fill:#1a1a1a;stroke:#1a1a1a;fill-opacity:1;stroke-opacity:1" />
    <polygon
       id="polygon76"
       points="12.726,256.000 19.299,256.000 19.382,253.922 12.577,253.924 "
       fill-opacity="1"
       fill="rgb(204, 204, 204)"
       stroke-width="1"
       stroke="black"
       style="fill:#1a1a1a;stroke:#1a1a1a;fill-opacity:1;stroke-opacity:1" />
    <polygon
       id="polygon78"
       points="12.577,253.924 19.382,253.922 19.596,248.913 12.428,248.913 "
       fill-opacity="1"
       fill="rgb(204, 204, 204)"
       stroke-width="1"
       stroke="black"
       style="fill:#1a1a1a;stroke:#1a1a1a;fill-opacity:1;stroke-opacity:1" />
    <polygon
       id="polygon80"
       points="32.000,110.225 32.000,56.020 30.177,56.020 30.178,110.225 "
       fill-opacity="1"
       fill="rgb(204, 204, 204)"
       stroke-width="1"
       stroke="black"
       style="fill:#1a1a1a;stroke:#1a1a1a;fill-opacity:1;stroke-opacity:1" />
    <polygon
       id="polygon82"
       points="30.178,110.225 30.177,56.020 25.777,56.020 25.779,110.225 "
       fill-opacity="1"
       fill="rgb(204, 204, 204)"
       stroke-width="1"
       stroke="black"
       style="fill:#1a1a1a;stroke:#1a1a1a;fill-opacity:1;stroke-opacity:1" />
    <polygon
       id="polygon84"
       points="6.221,110.225 6.223,56.020 1.823,56.020 1.822,110.225 "
       fill-opacity="1"
       fill="rgb(204, 204, 204)"
       stroke-width="1"
       stroke="black"
       style="fill:#1a1a1a;stroke:#1a1a1a;fill-opacity:1;stroke-opacity:1" />
    <polygon
       id="polygon86"
       points="1.822,110.225 1.823,56.020 0.000,56.020 0.000,110.225 "
       fill-opacity="1"
       fill="rgb(204, 204, 204)"
       stroke-width="1"
       stroke="black"
       style="fill:#1a1a1a;stroke:#1a1a1a;fill-opacity:1;stroke-opacity:1" />
    <polygon
       id="polygon88"
       points="5.684,7.026 5.684,7.026 8.074,2.045 8.077,2.058 "
       fill-opacity="1"
       fill="rgb(204, 204, 204)"
       stroke-width="1"
       stroke="black"
       style="fill:#1a1a1a;stroke:#1a1a1a;fill-opacity:1;stroke-opacity:1" />
    <polygon
       id="polygon90"
       points="8.077,2.058 8.074,2.045 12.701,0.000 12.701,0.000 "
       fill-opacity="1"
       fill="rgb(204, 204, 204)"
       stroke-width="1"
       stroke="black"
       style="fill:#1a1a1a;stroke:#1a1a1a;fill-opacity:1;stroke-opacity:1" />
    <polygon
       id="polygon92"
       points="11.901,7.088 20.121,7.088 19.722,2.076 12.470,2.089 "
       fill-opacity="1"
       fill="rgb(204, 204, 204)"
       stroke-width="1"
       stroke="black"
       style="fill:#1a1a1a;stroke:#1a1a1a;fill-opacity:1;stroke-opacity:1" />
    <polygon
       id="polygon94"
       points="12.470,2.089 19.722,2.076 19.324,0.000 12.701,0.000 "
       fill-opacity="1"
       fill="rgb(204, 204, 204)"
       stroke-width="1"
       stroke="black"
       style="fill:#1a1a1a;stroke:#1a1a1a;fill-opacity:1;stroke-opacity:1" />
    <polygon
       id="polygon96"
       points="19.324,0.000 19.324,0.000 23.947,2.058 23.947,2.058 "
       fill-opacity="1"
       fill="rgb(204, 204, 204)"
       stroke-width="1"
       stroke="black"
       style="fill:#1a1a1a;stroke:#1a1a1a;fill-opacity:1;stroke-opacity:1" />
    <polygon
       id="polygon98"
       points="23.947,2.058 23.947,2.058 26.338,7.026 26.338,7.026 "
       fill-opacity="1"
       fill="rgb(204, 204, 204)"
       stroke-width="1"
       stroke="black"
       style="fill:#1a1a1a;stroke:#1a1a1a;fill-opacity:1;stroke-opacity:1" />
    <polygon
       id="polygon100"
       points="32.000,56.020 26.338,7.026 24.495,6.865 30.177,56.020 "
       fill-opacity="1"
       fill="rgb(204, 204, 204)"
       stroke-width="1"
       stroke="black"
       style="fill:#1a1a1a;stroke:#1a1a1a;fill-opacity:1;stroke-opacity:1" />
    <polygon
       id="polygon102"
       points="30.177,56.020 24.495,6.865 20.121,7.088 25.777,56.020 "
       fill-opacity="1"
       fill="rgb(204, 204, 204)"
       stroke-width="1"
       stroke="black"
       style="fill:#1a1a1a;stroke:#1a1a1a;fill-opacity:1;stroke-opacity:1" />
    <polygon
       id="polygon104"
       points="6.223,56.020 11.901,7.088 7.508,7.057 1.823,56.020 "
       fill-opacity="1"
       fill="rgb(204, 204, 204)"
       stroke-width="1"
       stroke="black"
       style="fill:#1a1a1a;stroke:#1a1a1a;fill-opacity:1;stroke-opacity:1" />
    <polygon
       id="polygon106"
       points="1.823,56.020 7.508,7.057 5.684,7.026 0.000,56.020 "
       fill-opacity="1"
       fill="rgb(204, 204, 204)"
       stroke-width="1"
       stroke="black"
       style="fill:#1a1a1a;stroke:#1a1a1a;fill-opacity:1;stroke-opacity:1" />
    <polygon
       id="polygon108"
       points="19.299,256.000 12.726,256.000 12.726,256.000 19.299,256.000 "
       fill-opacity="1"
       fill="rgb(204, 204, 204)"
       stroke-width="1"
       stroke="black"
       style="fill:#1a1a1a;stroke:#1a1a1a;fill-opacity:1;stroke-opacity:1" />
    <polygon
       id="polygon110"
       points="0.541,106.073 0.634,124.381 0.000,110.225 "
       fill-opacity="1"
       fill="rgb(204, 204, 204)"
       stroke-width="1"
       stroke="black"
       style="fill:#1a1a1a;stroke:#1a1a1a;fill-opacity:1;stroke-opacity:1" />
    <polygon
       id="polygon112"
       points="31.459,60.171 30.376,41.967 32.000,56.020 "
       fill-opacity="1"
       fill="rgb(204, 204, 204)"
       stroke-width="1"
       stroke="black"
       style="fill:#1a1a1a;stroke:#1a1a1a;fill-opacity:1;stroke-opacity:1" />
    <polygon
       id="polygon114"
       points="31.459,106.073 32.000,110.225 31.369,124.381 "
       fill-opacity="1"
       fill="rgb(204, 204, 204)"
       stroke-width="1"
       stroke="black"
       style="fill:#1a1a1a;stroke:#1a1a1a;fill-opacity:1;stroke-opacity:1" />
    <polygon
       id="polygon116"
       points="0.541,60.171 0.000,56.020 1.630,41.968 "
       fill-opacity="1"
       fill="rgb(204, 204, 204)"
       stroke-width="1"
       stroke="black"
       style="fill:#1a1a1a;stroke:#1a1a1a;fill-opacity:1;stroke-opacity:1" />
    <polygon
       id="polygon118"
       points="19.597,110.225 12.403,110.225 12.403,110.225 19.597,110.225 "
       fill-opacity="1"
       fill="rgb(204, 204, 204)"
       stroke-width="1"
       stroke="black"
       style="fill:#1a1a1a;stroke:#1a1a1a;fill-opacity:1;stroke-opacity:1" />
    <polygon
       id="polygon120"
       points="0.541,106.073 12.403,110.225 0.634,124.381 "
       fill-opacity="1"
       fill="rgb(204, 204, 204)"
       stroke-width="1"
       stroke="black"
       style="fill:#1a1a1a;stroke:#1a1a1a;fill-opacity:1;stroke-opacity:1" />
    <polygon
       id="polygon122"
       points="32.000,56.020 32.000,70.194 31.459,60.171 "
       fill-opacity="1"
       fill="rgb(204, 204, 204)"
       stroke-width="1"
       stroke="black"
       style="fill:#1a1a1a;stroke:#1a1a1a;fill-opacity:1;stroke-opacity:1" />
    <polygon
       id="polygon124"
       points="31.459,60.171 19.597,56.020 30.376,41.967 "
       fill-opacity="1"
       fill="rgb(204, 204, 204)"
       stroke-width="1"
       stroke="black"
       style="fill:#1a1a1a;stroke:#1a1a1a;fill-opacity:1;stroke-opacity:1" />
    <polygon
       id="polygon126"
       points="31.369,124.381 19.597,110.225 31.459,106.073 "
       fill-opacity="1"
       fill="rgb(204, 204, 204)"
       stroke-width="1"
       stroke="black"
       style="fill:#1a1a1a;stroke:#1a1a1a;fill-opacity:1;stroke-opacity:1" />
    <polygon
       id="polygon128"
       points="31.459,106.073 32.000,96.050 32.000,110.225 "
       fill-opacity="1"
       fill="rgb(204, 204, 204)"
       stroke-width="1"
       stroke="black"
       style="fill:#1a1a1a;stroke:#1a1a1a;fill-opacity:1;stroke-opacity:1" />
    <polygon
       id="polygon130"
       points="1.630,41.968 12.403,56.020 0.541,60.171 "
       fill-opacity="1"
       fill="rgb(204, 204, 204)"
       stroke-width="1"
       stroke="black"
       style="fill:#1a1a1a;stroke:#1a1a1a;fill-opacity:1;stroke-opacity:1" />
    <polygon
       id="polygon132"
       points="0.541,60.171 0.000,70.194 0.000,56.020 "
       fill-opacity="1"
       fill="rgb(204, 204, 204)"
       stroke-width="1"
       stroke="black"
       style="fill:#1a1a1a;stroke:#1a1a1a;fill-opacity:1;stroke-opacity:1" />
    <polygon
       id="polygon134"
       points="32.000,96.050 31.459,106.073 28.367,106.073 32.000,96.050 "
       fill-opacity="1"
       fill="rgb(204, 204, 204)"
       stroke-width="1"
       stroke="black"
       style="fill:#1a1a1a;stroke:#1a1a1a;fill-opacity:1;stroke-opacity:1" />
    <polygon
       id="polygon136"
       points="3.633,106.073 0.541,106.073 0.000,96.050 0.000,96.050 "
       fill-opacity="1"
       fill="rgb(204, 204, 204)"
       stroke-width="1"
       stroke="black"
       style="fill:#1a1a1a;stroke:#1a1a1a;fill-opacity:1;stroke-opacity:1" />
    <polygon
       id="polygon138"
       points="31.459,106.073 19.597,110.225 19.597,110.225 28.367,106.073 "
       fill-opacity="1"
       fill="rgb(204, 204, 204)"
       stroke-width="1"
       stroke="black"
       style="fill:#1a1a1a;stroke:#1a1a1a;fill-opacity:1;stroke-opacity:1" />
    <polygon
       id="polygon140"
       points="0.000,70.194 0.541,60.171 3.633,60.171 0.000,70.194 "
       fill-opacity="1"
       fill="rgb(204, 204, 204)"
       stroke-width="1"
       stroke="black"
       style="fill:#1a1a1a;stroke:#1a1a1a;fill-opacity:1;stroke-opacity:1" />
    <polygon
       id="polygon142"
       points="19.597,56.020 31.459,60.171 28.367,60.171 19.597,56.020 "
       fill-opacity="1"
       fill="rgb(204, 204, 204)"
       stroke-width="1"
       stroke="black"
       style="fill:#1a1a1a;stroke:#1a1a1a;fill-opacity:1;stroke-opacity:1" />
    <polygon
       id="polygon144"
       points="12.403,110.225 0.541,106.073 3.633,106.073 12.403,110.225 "
       fill-opacity="1"
       fill="rgb(204, 204, 204)"
       stroke-width="1"
       stroke="black"
       style="fill:#1a1a1a;stroke:#1a1a1a;fill-opacity:1;stroke-opacity:1" />
    <polygon
       id="polygon146"
       points="31.459,60.171 32.000,70.194 32.000,70.194 28.367,60.171 "
       fill-opacity="1"
       fill="rgb(204, 204, 204)"
       stroke-width="1"
       stroke="black"
       style="fill:#1a1a1a;stroke:#1a1a1a;fill-opacity:1;stroke-opacity:1" />
    <polygon
       id="polygon148"
       points="0.541,60.171 12.403,56.020 12.403,56.020 3.633,60.171 "
       fill-opacity="1"
       fill="rgb(204, 204, 204)"
       stroke-width="1"
       stroke="black"
       style="fill:#1a1a1a;stroke:#1a1a1a;fill-opacity:1;stroke-opacity:1" />
  </g>
  <path
     id="path1042"
     style="opacity:1;fill:#ffffff;fill-opacity:1;fill-rule:nonzero;stroke:#ffffff;stroke-width:1;stroke-linecap:butt;stroke-linejoin:miter;stroke-miterlimit:4;stroke-dasharray:none;stroke-dashoffset:0;stroke-opacity:0.99285715;paint-order:normal"
     d="m 16,56.02 c -9.777,0 -9.777509,13.783201 -9.777509,13.783201 L 6.222,83.1225 C 6.221409,99.142076 12.403,110.225 16,110.225 M 16,56.02 c 9.777,0 9.777509,13.783201 9.777509,13.783201 L 25.778,83.1225 C 25.778591,99.142076 19.597,110.225 16,110.225" />
</svg>
