<?xml version="1.0" encoding="UTF-8" standalone="no"?>
<svg
   xmlns:dc="http://purl.org/dc/elements/1.1/"
   xmlns:cc="http://creativecommons.org/ns#"
   xmlns:rdf="http://www.w3.org/1999/02/22-rdf-syntax-ns#"
   xmlns:svg="http://www.w3.org/2000/svg"
   xmlns="http://www.w3.org/2000/svg"
   xmlns:sodipodi="http://sodipodi.sourceforge.net/DTD/sodipodi-0.dtd"
   xmlns:inkscape="http://www.inkscape.org/namespaces/inkscape"
   width="512"
   height="256"
   viewBox="0 0 512 256"
   version="1.1"
   id="svg22"
   sodipodi:docname="face.svg"
   inkscape:version="0.92.5 (2060ec1f9f, 2020-04-08)"
   inkscape:export-filename="/mnt/DATEN/blender-2.83.0-linux64/2.83/datafiles/colormanagement/filmic/fgfs-addons/Aircraft/c210-family/Models/Interior/Panel/Instruments/alt-alert/face.png"
   inkscape:export-xdpi="96"
   inkscape:export-ydpi="96">
  <metadata
     id="metadata28">
    <rdf:RDF>
      <cc:Work
         rdf:about="">
        <dc:format>image/svg+xml</dc:format>
        <dc:type
           rdf:resource="http://purl.org/dc/dcmitype/StillImage" />
      </cc:Work>
    </rdf:RDF>
  </metadata>
  <defs
     id="defs26" />
  <sodipodi:namedview
     pagecolor="#ffffff"
     bordercolor="#666666"
     borderopacity="1"
     objecttolerance="10"
     gridtolerance="10"
     guidetolerance="10"
     inkscape:pageopacity="0"
     inkscape:pageshadow="2"
     inkscape:window-width="1362"
     inkscape:window-height="706"
     id="namedview24"
     showgrid="false"
     inkscape:zoom="0.921875"
     inkscape:cx="173.41854"
     inkscape:cy="145.99222"
     inkscape:window-x="0"
     inkscape:window-y="0"
     inkscape:window-maximized="1"
     inkscape:current-layer="svg22" />
  <desc
     id="desc2">alt-alert.blend, (Blender 2.83.0)</desc>
  <polygon
     points="64.000,0.000 0.000,64.000 19.200,80.000 19.394,77.777 19.972,75.622 20.915,73.600 22.195,71.772 23.772,70.195 25.600,68.915 27.622,67.972 29.777,67.394 32.000,67.200 34.223,67.395 36.378,67.972 38.400,68.915 40.228,70.195 41.805,71.772 43.085,73.600 44.028,75.622 44.605,77.777 44.800,80.000 96.000,60.800 "
     id="polygon4"
     style="fill:#000000;fill-opacity:1"
     stroke-width="1"
     stroke="black"
     fill-opacity="1"
     fill="rgb(204, 204, 204)" />
  <polygon
     stroke="black"
     stroke-width="1"
     fill="rgb(204, 204, 204)"
     fill-opacity="1"
     points="448.000,256.000 416.000,220.800 96.000,220.800 64.000,256.000 "
     id="polygon6"
     style="fill:#000000;fill-opacity:1" />
  <polygon
     stroke="black"
     stroke-width="1"
     fill="rgb(204, 204, 204)"
     fill-opacity="1"
     points="448.000,0.000 64.000,0.000 96.000,60.800 416.000,60.800 "
     id="polygon8"
     style="fill:#000000;fill-opacity:1" />
  <polygon
     stroke="black"
     stroke-width="1"
     fill="rgb(204, 204, 204)"
     fill-opacity="1"
     points="448.000,0.000 416.000,60.800 467.200,80.000 467.394,77.777 467.972,75.622 468.915,73.600 470.195,71.772 471.772,70.195 473.600,68.915 475.622,67.972 477.777,67.395 480.000,67.200 482.223,67.394 484.378,67.972 486.400,68.915 488.228,70.195 489.805,71.772 491.085,73.600 492.028,75.622 492.606,77.777 492.800,80.000 512.000,64.000 "
     id="polygon10"
     style="fill:#000000;fill-opacity:1" />
  <polygon
     stroke="black"
     stroke-width="1"
     fill="rgb(204, 204, 204)"
     fill-opacity="1"
     points="512.000,64.000 492.800,80.000 492.606,82.223 492.028,84.378 491.085,86.400 489.805,88.228 488.228,89.805 486.400,91.085 484.378,92.028 482.223,92.606 480.000,92.800 477.777,92.606 475.622,92.028 473.600,91.085 471.772,89.805 470.195,88.228 468.915,86.400 467.972,84.378 467.394,82.223 467.200,80.000 416.000,60.800 416.000,220.800 467.200,176.000 467.394,173.777 467.972,171.622 468.915,169.600 470.195,167.772 471.772,166.195 473.600,164.915 475.622,163.972 477.777,163.395 480.000,163.200 482.223,163.394 484.378,163.972 486.400,164.915 488.228,166.195 489.805,167.772 491.085,169.600 492.028,171.622 492.606,173.777 492.800,176.000 512.000,192.000 "
     id="polygon12"
     style="fill:#000000;fill-opacity:1" />
  <polygon
     stroke="black"
     stroke-width="1"
     fill="rgb(204, 204, 204)"
     fill-opacity="1"
     points="512.000,192.000 492.800,176.000 492.606,178.223 492.028,180.378 491.085,182.400 489.805,184.228 488.228,185.805 486.400,187.085 484.378,188.028 482.223,188.606 480.000,188.800 477.777,188.606 475.622,188.028 473.600,187.085 471.772,185.805 470.195,184.228 468.915,182.400 467.972,180.378 467.394,178.223 467.200,176.000 416.000,220.800 448.000,256.000 "
     id="polygon14"
     style="fill:#000000;fill-opacity:1" />
  <polygon
     stroke="black"
     stroke-width="1"
     fill="rgb(204, 204, 204)"
     fill-opacity="1"
     points="96.000,60.800 44.800,128.000 44.605,130.223 44.028,132.378 43.085,134.400 41.805,136.228 40.228,137.805 38.400,139.085 36.378,140.028 34.223,140.606 32.000,140.800 29.777,140.606 27.622,140.028 25.600,139.085 23.772,137.805 22.195,136.228 20.915,134.400 19.972,132.378 19.394,130.223 19.200,128.000 0.000,64.000 0.000,192.000 19.200,176.000 19.394,173.777 19.972,171.622 20.915,169.600 22.195,167.772 23.772,166.195 25.600,164.915 27.622,163.972 29.777,163.394 32.000,163.200 34.223,163.394 36.378,163.972 38.400,164.915 40.228,166.195 41.805,167.772 43.085,169.600 44.028,171.622 44.605,173.777 44.800,176.000 96.000,220.800 "
     id="polygon16"
     style="fill:#000000;fill-opacity:1" />
  <polygon
     stroke="black"
     stroke-width="1"
     fill="rgb(204, 204, 204)"
     fill-opacity="1"
     points="96.000,220.800 44.800,176.000 44.605,178.223 44.028,180.378 43.085,182.400 41.805,184.228 40.228,185.805 38.400,187.085 36.378,188.028 34.223,188.606 32.000,188.800 29.777,188.606 27.622,188.028 25.600,187.085 23.772,185.805 22.195,184.228 20.915,182.400 19.972,180.378 19.394,178.223 19.200,176.000 0.000,192.000 64.000,256.000 "
     id="polygon18"
     style="fill:#000000;fill-opacity:1" />
  <polygon
     stroke="black"
     stroke-width="1"
     fill="rgb(204, 204, 204)"
     fill-opacity="1"
     points="19.394,125.777 19.972,123.622 20.915,121.600 22.195,119.772 23.772,118.195 25.600,116.915 27.622,115.972 29.777,115.394 32.000,115.200 34.223,115.394 36.378,115.972 38.400,116.915 40.228,118.195 41.805,119.772 43.085,121.600 44.028,123.622 44.605,125.777 44.800,128.000 96.000,60.800 44.800,80.000 44.605,82.223 44.028,84.378 43.085,86.400 41.805,88.228 40.228,89.805 38.400,91.085 36.378,92.028 34.223,92.606 32.000,92.800 29.777,92.606 27.622,92.028 25.600,91.085 23.772,89.805 22.195,88.228 20.915,86.400 19.972,84.378 19.394,82.223 19.200,80.000 0.000,64.000 19.200,128.000 "
     id="polygon20"
     style="fill:#000000;fill-opacity:1" />
  <text
     xml:space="preserve"
     style="font-style:normal;font-variant:normal;font-weight:normal;font-stretch:normal;font-size:37.33333206px;line-height:1.25;font-family:'Ubuntu Condensed';-inkscape-font-specification:'Ubuntu Condensed, ';text-align:center;text-anchor:middle;opacity:1;fill:#ffffff;fill-opacity:1;fill-rule:nonzero;stroke:#ffffff;stroke-width:1;stroke-linecap:butt;stroke-linejoin:round;stroke-miterlimit:4;stroke-dasharray:none;stroke-dashoffset:0;stroke-opacity:1;paint-order:normal"
     x="255.88797"
     y="43.466667"
     id="text837"><tspan
       sodipodi:role="line"
       id="tspan835"
       x="255.88797"
       y="43.466667">ALT ALERT</tspan></text>
  <text
     xml:space="preserve"
     style="font-style:normal;font-variant:normal;font-weight:normal;font-stretch:normal;font-size:26.66666603px;line-height:0.94999999;font-family:'Ubuntu Condensed';-inkscape-font-specification:'Ubuntu Condensed, ';text-align:center;text-anchor:middle;opacity:1;fill:#ffffff;fill-opacity:1;fill-rule:nonzero;stroke:#ffffff;stroke-width:1;stroke-linecap:butt;stroke-linejoin:round;stroke-miterlimit:4;stroke-dasharray:none;stroke-dashoffset:0;stroke-opacity:1;paint-order:normal"
     x="60.745766"
     y="86.573334"
     id="text841"><tspan
       sodipodi:role="line"
       id="tspan839"
       x="60.745766"
       y="86.573334">A</tspan><tspan
       sodipodi:role="line"
       x="60.745766"
       y="111.90667"
       id="tspan843">L</tspan><tspan
       sodipodi:role="line"
       x="60.745766"
       y="137.24001"
       id="tspan845">E</tspan><tspan
       sodipodi:role="line"
       x="60.745766"
       y="162.57333"
       id="tspan847">R</tspan><tspan
       sodipodi:role="line"
       x="60.745766"
       y="187.90668"
       id="tspan849">T</tspan></text>
  <text
     xml:space="preserve"
     style="font-style:normal;font-variant:normal;font-weight:normal;font-stretch:normal;font-size:26.66666603px;line-height:0.94999999;font-family:'Ubuntu Condensed';-inkscape-font-specification:'Ubuntu Condensed, ';text-align:center;text-anchor:middle;opacity:1;fill:#ffffff;fill-opacity:1;fill-rule:nonzero;stroke:#ffffff;stroke-width:1;stroke-linecap:butt;stroke-linejoin:round;stroke-miterlimit:4;stroke-dasharray:none;stroke-dashoffset:0;stroke-opacity:1;paint-order:normal"
     x="42.19717"
     y="57.152332"
     id="text853"><tspan
       sodipodi:role="line"
       id="tspan851"
       x="42.19717"
       y="57.152332">HI</tspan></text>
  <text
     xml:space="preserve"
     style="font-style:normal;font-variant:normal;font-weight:normal;font-stretch:normal;font-size:26.66666603px;line-height:0.94999999;font-family:'Ubuntu Condensed';-inkscape-font-specification:'Ubuntu Condensed, ';text-align:center;text-anchor:middle;opacity:1;fill:#ffffff;fill-opacity:1;fill-rule:nonzero;stroke:#ffffff;stroke-width:1;stroke-linecap:butt;stroke-linejoin:round;stroke-miterlimit:4;stroke-dasharray:none;stroke-dashoffset:0;stroke-opacity:1;paint-order:normal"
     x="41.823837"
     y="216.92767"
     id="text857"><tspan
       sodipodi:role="line"
       id="tspan855"
       x="41.823837"
       y="216.92767">LO</tspan></text>
  <text
     xml:space="preserve"
     style="font-style:normal;font-variant:normal;font-weight:normal;font-stretch:normal;font-size:26.66666603px;line-height:0.94999999;font-family:'Ubuntu Condensed';-inkscape-font-specification:'Ubuntu Condensed, ';text-align:center;text-anchor:middle;opacity:1;fill:#ffffff;fill-opacity:1;fill-rule:nonzero;stroke:#ffffff;stroke-width:1;stroke-linecap:butt;stroke-linejoin:round;stroke-miterlimit:4;stroke-dasharray:none;stroke-dashoffset:0;stroke-opacity:1;paint-order:normal"
     x="453.78659"
     y="58.420811"
     id="text861"><tspan
       sodipodi:role="line"
       id="tspan859"
       x="453.78659"
       y="58.420811">ARMD</tspan></text>
  <text
     xml:space="preserve"
     style="font-style:normal;font-variant:normal;font-weight:normal;font-stretch:normal;font-size:26.66666603px;line-height:0.94999999;font-family:'Ubuntu Condensed';-inkscape-font-specification:'Ubuntu Condensed, ';text-align:center;text-anchor:middle;opacity:1;fill:#ffffff;fill-opacity:1;fill-rule:nonzero;stroke:#ffffff;stroke-width:1;stroke-linecap:butt;stroke-linejoin:round;stroke-miterlimit:4;stroke-dasharray:none;stroke-dashoffset:0;stroke-opacity:1;paint-order:normal"
     x="449.68823"
     y="215.87251"
     id="text865"><tspan
       sodipodi:role="line"
       id="tspan863"
       x="449.68823"
       y="215.87251">CPLD</tspan></text>
  <text
     xml:space="preserve"
     style="font-style:normal;font-variant:normal;font-weight:normal;font-stretch:normal;font-size:26.66666603px;line-height:0.94999999;font-family:'Ubuntu Condensed';-inkscape-font-specification:'Ubuntu Condensed, ';text-align:center;text-anchor:middle;opacity:1;fill:#ffffff;fill-opacity:1;fill-rule:nonzero;stroke:#ffffff;stroke-width:1;stroke-linecap:butt;stroke-linejoin:round;stroke-miterlimit:4;stroke-dasharray:none;stroke-dashoffset:0;stroke-opacity:1;paint-order:normal"
     x="446.91525"
     y="111.90667"
     id="text869"><tspan
       sodipodi:role="line"
       id="tspan867"
       x="446.91525"
       y="111.90667">A</tspan><tspan
       sodipodi:role="line"
       x="446.91525"
       y="137.24001"
       id="tspan871">R</tspan><tspan
       sodipodi:role="line"
       x="446.91525"
       y="162.57333"
       id="tspan873">M</tspan></text>
</svg>
