<?xml version="1.0" encoding="UTF-8" standalone="no"?>
<svg
   xmlns:dc="http://purl.org/dc/elements/1.1/"
   xmlns:cc="http://creativecommons.org/ns#"
   xmlns:rdf="http://www.w3.org/1999/02/22-rdf-syntax-ns#"
   xmlns:svg="http://www.w3.org/2000/svg"
   xmlns="http://www.w3.org/2000/svg"
   xmlns:xlink="http://www.w3.org/1999/xlink"
   xmlns:sodipodi="http://sodipodi.sourceforge.net/DTD/sodipodi-0.dtd"
   xmlns:inkscape="http://www.inkscape.org/namespaces/inkscape"
   width="512"
   height="256"
   viewBox="0 0 512 256"
   version="1.1"
   id="svg22"
   sodipodi:docname="face.svg"
   inkscape:version="0.92.5 (2060ec1f9f, 2020-04-08)"
   inkscape:export-filename="/media/frederic/TOSHIBA EXT/.fg/fgfs-addons/Aircraft/c210-family/Models/Interior/Panel/Instruments/alt-alert/aa-801a.png"
   inkscape:export-xdpi="96"
   inkscape:export-ydpi="96">
  <metadata
     id="metadata28">
    <rdf:RDF>
      <cc:Work
         rdf:about="">
        <dc:format>image/svg+xml</dc:format>
        <dc:type
           rdf:resource="http://purl.org/dc/dcmitype/StillImage" />
      </cc:Work>
    </rdf:RDF>
  </metadata>
  <defs
     id="defs26">
    <pattern
       inkscape:collect="always"
       xlink:href="#Strips1_1.5white"
       id="pattern2349"
       patternTransform="matrix(10.673248,10.673248,-10.673248,10.673248,104.337,77.228996)" />
    <pattern
       inkscape:stockid="Stripes 1:1.5 white"
       id="Strips1_1.5white"
       patternTransform="translate(0,0) scale(10,10)"
       height="1"
       width="2.5"
       patternUnits="userSpaceOnUse"
       inkscape:collect="always">
      <rect
         id="rect1586"
         height="2"
         width="1"
         y="-0.5"
         x="0"
         style="fill:white;stroke:none" />
    </pattern>
  </defs>
  <sodipodi:namedview
     pagecolor="#ffffff"
     bordercolor="#666666"
     borderopacity="1"
     objecttolerance="10"
     gridtolerance="10"
     guidetolerance="10"
     inkscape:pageopacity="0"
     inkscape:pageshadow="2"
     inkscape:window-width="1362"
     inkscape:window-height="706"
     id="namedview24"
     showgrid="false"
     inkscape:zoom="2.6074563"
     inkscape:cx="150.3943"
     inkscape:cy="114.23262"
     inkscape:window-x="0"
     inkscape:window-y="0"
     inkscape:window-maximized="1"
     inkscape:current-layer="svg22"
     inkscape:object-paths="true"
     inkscape:snap-intersection-paths="true"
     inkscape:snap-smooth-nodes="false"
     inkscape:snap-midpoints="false"
     inkscape:snap-object-midpoints="false"
     inkscape:snap-bbox="false"
     inkscape:snap-nodes="true" />
  <desc
     id="desc2">alt-alert.blend, (Blender 2.83.0)</desc>
  <rect
     style="opacity:1;fill:#000000;fill-opacity:1;fill-rule:nonzero;stroke:none;stroke-width:0;stroke-linecap:round;stroke-linejoin:miter;stroke-miterlimit:4;stroke-dasharray:none;stroke-dashoffset:0;stroke-opacity:1;paint-order:normal"
     id="rect2341"
     width="83.417999"
     height="128"
     x="104.337"
     y="77.228996" />
  <g
     id="Face">
    <polygon
       style="fill:#000000;fill-opacity:1;stroke:#000000;stroke-width:1"
       id="polygon4"
       points="0,64 19.2,80 19.394,77.777 19.972,75.622 20.915,73.6 22.195,71.772 23.772,70.195 25.6,68.915 27.622,67.972 29.777,67.394 32,67.2 34.223,67.395 36.378,67.972 38.4,68.915 40.228,70.195 41.805,71.772 43.085,73.6 44.028,75.622 44.605,77.777 44.8,80 96,60.8 64,0 " />
    <polygon
       style="fill:#000000;fill-opacity:1;stroke:#000000;stroke-width:1"
       id="polygon6"
       points="416,220.8 96,220.8 64,256 448,256 " />
    <polygon
       style="fill:#000000;fill-opacity:1;stroke:#000000;stroke-width:1"
       id="polygon8"
       points="64,0 96,60.8 416,60.8 448,0 " />
    <polygon
       style="fill:#000000;fill-opacity:1;stroke:#000000;stroke-width:1"
       id="polygon10"
       points="416,60.8 467.2,80 467.394,77.777 467.972,75.622 468.915,73.6 470.195,71.772 471.772,70.195 473.6,68.915 475.622,67.972 477.777,67.395 480,67.2 482.223,67.394 484.378,67.972 486.4,68.915 488.228,70.195 489.805,71.772 491.085,73.6 492.028,75.622 492.606,77.777 492.8,80 512,64 448,0 " />
    <polygon
       style="fill:#000000;fill-opacity:1;stroke:#000000;stroke-width:1"
       id="polygon12"
       points="492.8,80 492.606,82.223 492.028,84.378 491.085,86.4 489.805,88.228 488.228,89.805 486.4,91.085 484.378,92.028 482.223,92.606 480,92.8 477.777,92.606 475.622,92.028 473.6,91.085 471.772,89.805 470.195,88.228 468.915,86.4 467.972,84.378 467.394,82.223 467.2,80 416,60.8 416,220.8 467.2,176 467.394,173.777 467.972,171.622 468.915,169.6 470.195,167.772 471.772,166.195 473.6,164.915 475.622,163.972 477.777,163.395 480,163.2 482.223,163.394 484.378,163.972 486.4,164.915 488.228,166.195 489.805,167.772 491.085,169.6 492.028,171.622 492.606,173.777 492.8,176 512,192 512,64 " />
    <polygon
       style="fill:#000000;fill-opacity:1;stroke:#000000;stroke-width:1"
       id="polygon14"
       points="492.8,176 492.606,178.223 492.028,180.378 491.085,182.4 489.805,184.228 488.228,185.805 486.4,187.085 484.378,188.028 482.223,188.606 480,188.8 477.777,188.606 475.622,188.028 473.6,187.085 471.772,185.805 470.195,184.228 468.915,182.4 467.972,180.378 467.394,178.223 467.2,176 416,220.8 448,256 512,192 " />
    <polygon
       style="fill:#000000;fill-opacity:1;stroke:#000000;stroke-width:1"
       id="polygon16"
       points="44.8,128 44.605,130.223 44.028,132.378 43.085,134.4 41.805,136.228 40.228,137.805 38.4,139.085 36.378,140.028 34.223,140.606 32,140.8 29.777,140.606 27.622,140.028 25.6,139.085 23.772,137.805 22.195,136.228 20.915,134.4 19.972,132.378 19.394,130.223 19.2,128 0,64 0,192 19.2,176 19.394,173.777 19.972,171.622 20.915,169.6 22.195,167.772 23.772,166.195 25.6,164.915 27.622,163.972 29.777,163.394 32,163.2 34.223,163.394 36.378,163.972 38.4,164.915 40.228,166.195 41.805,167.772 43.085,169.6 44.028,171.622 44.605,173.777 44.8,176 96,220.8 96,60.8 " />
    <polygon
       style="fill:#000000;fill-opacity:1;stroke:#000000;stroke-width:1"
       id="polygon18"
       points="44.8,176 44.605,178.223 44.028,180.378 43.085,182.4 41.805,184.228 40.228,185.805 38.4,187.085 36.378,188.028 34.223,188.606 32,188.8 29.777,188.606 27.622,188.028 25.6,187.085 23.772,185.805 22.195,184.228 20.915,182.4 19.972,180.378 19.394,178.223 19.2,176 0,192 64,256 96,220.8 " />
    <polygon
       style="fill:#000000;fill-opacity:1;stroke:#000000;stroke-width:1"
       id="polygon20"
       points="19.972,123.622 20.915,121.6 22.195,119.772 23.772,118.195 25.6,116.915 27.622,115.972 29.777,115.394 32,115.2 34.223,115.394 36.378,115.972 38.4,116.915 40.228,118.195 41.805,119.772 43.085,121.6 44.028,123.622 44.605,125.777 44.8,128 96,60.8 44.8,80 44.605,82.223 44.028,84.378 43.085,86.4 41.805,88.228 40.228,89.805 38.4,91.085 36.378,92.028 34.223,92.606 32,92.8 29.777,92.606 27.622,92.028 25.6,91.085 23.772,89.805 22.195,88.228 20.915,86.4 19.972,84.378 19.394,82.223 19.2,80 0,64 19.2,128 19.394,125.777 " />
  </g>
  <text
     xml:space="preserve"
     style="font-style:normal;font-variant:normal;font-weight:normal;font-stretch:normal;font-size:37.33333206px;line-height:1.25;font-family:'Ubuntu Condensed';-inkscape-font-specification:'Ubuntu Condensed, ';text-align:center;text-anchor:middle;opacity:1;fill:#ffffff;fill-opacity:1;fill-rule:nonzero;stroke:#ffffff;stroke-width:1;stroke-linecap:butt;stroke-linejoin:round;stroke-miterlimit:4;stroke-dasharray:none;stroke-dashoffset:0;stroke-opacity:1;paint-order:normal"
     x="255.88797"
     y="43.466667"
     id="text837"><tspan
       sodipodi:role="line"
       id="tspan835"
       x="255.88797"
       y="43.466667">ALT ALERT</tspan></text>
  <text
     xml:space="preserve"
     style="font-style:normal;font-variant:normal;font-weight:normal;font-stretch:normal;font-size:26.66666603px;line-height:0.94999999;font-family:'Ubuntu Condensed';-inkscape-font-specification:'Ubuntu Condensed, ';text-align:center;text-anchor:middle;opacity:1;fill:#ffffff;fill-opacity:1;fill-rule:nonzero;stroke:#ffffff;stroke-width:1;stroke-linecap:butt;stroke-linejoin:round;stroke-miterlimit:4;stroke-dasharray:none;stroke-dashoffset:0;stroke-opacity:1;paint-order:normal"
     x="60.745766"
     y="86.573334"
     id="text841"><tspan
       sodipodi:role="line"
       id="tspan839"
       x="60.745766"
       y="86.573334">A</tspan><tspan
       sodipodi:role="line"
       x="60.745766"
       y="111.90667"
       id="tspan843">L</tspan><tspan
       sodipodi:role="line"
       x="60.745766"
       y="137.24001"
       id="tspan845">E</tspan><tspan
       sodipodi:role="line"
       x="60.745766"
       y="162.57333"
       id="tspan847">R</tspan><tspan
       sodipodi:role="line"
       x="60.745766"
       y="187.90668"
       id="tspan849">T</tspan></text>
  <text
     xml:space="preserve"
     style="font-style:normal;font-variant:normal;font-weight:normal;font-stretch:normal;font-size:26.66666603px;line-height:0.94999999;font-family:'Ubuntu Condensed';-inkscape-font-specification:'Ubuntu Condensed, ';text-align:center;text-anchor:middle;opacity:1;fill:#ffffff;fill-opacity:1;fill-rule:nonzero;stroke:#ffffff;stroke-width:1;stroke-linecap:butt;stroke-linejoin:round;stroke-miterlimit:4;stroke-dasharray:none;stroke-dashoffset:0;stroke-opacity:1;paint-order:normal"
     x="42.19717"
     y="57.152332"
     id="text853"><tspan
       sodipodi:role="line"
       id="tspan851"
       x="42.19717"
       y="57.152332">HI</tspan></text>
  <text
     xml:space="preserve"
     style="font-style:normal;font-variant:normal;font-weight:normal;font-stretch:normal;font-size:26.66666603px;line-height:0.94999999;font-family:'Ubuntu Condensed';-inkscape-font-specification:'Ubuntu Condensed, ';text-align:center;text-anchor:middle;opacity:1;fill:#ffffff;fill-opacity:1;fill-rule:nonzero;stroke:#ffffff;stroke-width:1;stroke-linecap:butt;stroke-linejoin:round;stroke-miterlimit:4;stroke-dasharray:none;stroke-dashoffset:0;stroke-opacity:1;paint-order:normal"
     x="41.823837"
     y="216.92767"
     id="text857"><tspan
       sodipodi:role="line"
       id="tspan855"
       x="41.823837"
       y="216.92767">LO</tspan></text>
  <text
     xml:space="preserve"
     style="font-style:normal;font-variant:normal;font-weight:normal;font-stretch:normal;font-size:26.66666603px;line-height:0.94999999;font-family:'Ubuntu Condensed';-inkscape-font-specification:'Ubuntu Condensed, ';text-align:center;text-anchor:middle;opacity:1;fill:#ffffff;fill-opacity:1;fill-rule:nonzero;stroke:#ffffff;stroke-width:1;stroke-linecap:butt;stroke-linejoin:round;stroke-miterlimit:4;stroke-dasharray:none;stroke-dashoffset:0;stroke-opacity:1;paint-order:normal"
     x="453.78659"
     y="58.420811"
     id="text861"><tspan
       sodipodi:role="line"
       id="tspan859"
       x="453.78659"
       y="58.420811">ARMD</tspan></text>
  <text
     xml:space="preserve"
     style="font-style:normal;font-variant:normal;font-weight:normal;font-stretch:normal;font-size:26.66666603px;line-height:0.94999999;font-family:'Ubuntu Condensed';-inkscape-font-specification:'Ubuntu Condensed, ';text-align:center;text-anchor:middle;opacity:1;fill:#ffffff;fill-opacity:1;fill-rule:nonzero;stroke:#ffffff;stroke-width:1;stroke-linecap:butt;stroke-linejoin:round;stroke-miterlimit:4;stroke-dasharray:none;stroke-dashoffset:0;stroke-opacity:1;paint-order:normal"
     x="449.68823"
     y="215.87251"
     id="text865"><tspan
       sodipodi:role="line"
       id="tspan863"
       x="449.68823"
       y="215.87251">CPLD</tspan></text>
  <text
     xml:space="preserve"
     style="font-style:normal;font-variant:normal;font-weight:normal;font-stretch:normal;font-size:26.66666603px;line-height:0.94999999;font-family:'Ubuntu Condensed';-inkscape-font-specification:'Ubuntu Condensed, ';text-align:center;text-anchor:middle;opacity:1;fill:#ffffff;fill-opacity:1;fill-rule:nonzero;stroke:#ffffff;stroke-width:1;stroke-linecap:butt;stroke-linejoin:round;stroke-miterlimit:4;stroke-dasharray:none;stroke-dashoffset:0;stroke-opacity:1;paint-order:normal"
     x="446.91525"
     y="111.90667"
     id="text869"><tspan
       sodipodi:role="line"
       id="tspan867"
       x="446.91525"
       y="111.90667">A</tspan><tspan
       sodipodi:role="line"
       x="446.91525"
       y="137.24001"
       id="tspan871">R</tspan><tspan
       sodipodi:role="line"
       x="446.91525"
       y="162.57333"
       id="tspan873">M</tspan></text>
  <g
     id="Flag"
     style="fill:url(#pattern2349);fill-opacity:1;stroke:none">
    <polygon
       points="104.337,95.6 104.337,132.34 187.755,132.34 187.755,95.6 "
       id="polygon35"
       style="fill:url(#pattern2349);fill-opacity:1;stroke:none;stroke-width:1" />
    <polygon
       points="104.337,132.34 104.337,169.081 187.755,169.081 187.755,132.34 "
       id="polygon37"
       style="fill:url(#pattern2349);fill-opacity:1;stroke:none;stroke-width:1" />
    <polygon
       points="104.337,169.081 104.337,205.229 187.755,205.229 187.755,169.081 "
       id="polygon39"
       style="fill:url(#pattern2349);fill-opacity:1;stroke:none;stroke-width:1" />
    <polygon
       points="104.337,77.229 104.337,95.6 187.755,95.6 187.755,77.229 "
       id="polygon41"
       style="fill:url(#pattern2349);fill-opacity:1;stroke:none;stroke-width:1" />
  </g>
</svg>
